<?xml version="1.0" standalone="no"?>
<!DOCTYPE svg PUBLIC "-//W3C//DTD SVG 1.1//EN" "http://www.w3.org/Graphics/SVG/1.1/DTD/svg11.dtd" >
<svg xmlns="http://www.w3.org/2000/svg">
<metadata>
This is a custom SVG webfont generated by Font Squirrel.
Copyright   : Copyright c 1989 Adobe Systems Incorporated  All Rights ReservedBauhaus is a registered trademark of International Typeface Corporation
</metadata>
<defs>
<font id="BauhausRegular" horiz-adv-x="1138" >
<font-face units-per-em="2048" ascent="1638" descent="-410" />
<missing-glyph horiz-adv-x="569" />
<glyph unicode=" "  horiz-adv-x="569" />
<glyph unicode="&#x09;" horiz-adv-x="569" />
<glyph unicode="&#xa0;" horiz-adv-x="569" />
<glyph unicode="!" horiz-adv-x="569" d="M115 161.5q0 71.5 48 121t121.5 49.5t122 -49.5t48.5 -121t-48.5 -120.5t-122 -49t-121.5 49t-48 120.5zM119 1458h332l-27 -1046h-279z" />
<glyph unicode="&#x22;" horiz-adv-x="681" d="M49 879v555h230v-555h-230zM406 879v555h229v-555h-229z" />
<glyph unicode="#" d="M57 410l6 184h199l35 246h-180l6 184h199l57 410h199l-56 -410h197l57 410h199l-55 -410h161l-6 -184h-180l-35 -246h162l-6 -184h-182l-58 -410h-198l55 410h-197l-57 -410h-199l56 410h-179zM463 594h196l35 246h-196z" />
<glyph unicode="$" d="M180 1079q0 143 81 229.5t222 100.5v213h181v-213h223v-238h-330q-102 0 -102 -77q0 -35 50 -77t121.5 -87t143.5 -98.5t122 -129t50 -161.5q0 -139 -72.5 -234.5t-205.5 -122.5v-250h-181v250h-278v250h360q47 0 75 21.5t28 58.5q0 43 -50.5 90t-122 94t-143 99.5 t-122 126t-50.5 155.5z" />
<glyph unicode="%" horiz-adv-x="1820" d="M66 1071.5q0 151.5 103 257t259 105.5t259.5 -105.5t103.5 -257t-103.5 -257t-259.5 -105.5t-259 105.5t-103 257zM266 1071.5q0 -67.5 47 -115t115 -47.5t115 47.5t47 115t-47 114.5t-115 47t-115 -47t-47 -114.5zM328 -2l927 1436h177l-922 -1436h-182zM963 362.5 q0 151.5 103 257t259 105.5t259.5 -105.5t103.5 -257t-103.5 -257t-259.5 -105.5t-259 105.5t-103 257zM1163 362.5q0 -67.5 47 -114.5t115 -47t115 47t47 114.5t-47 114.5t-115 47t-115 -47t-47 -114.5z" />
<glyph unicode="&#x26;" horiz-adv-x="1593" d="M143 565q0 141 70 264t190 199q-76 76 -75 186q0 94 70.5 157t195.5 63h567v-287h-510l471 -563h4q0 209 -114 313l198 188q211 -207 211 -448q0 -172 -86 -309l267 -328h-355l-84 115q-162 -139 -413 -140q-262 0 -434.5 165t-172.5 425zM455 555q0 -125 85 -213 t203 -88q152 0 234 92l-395 477q-127 -96 -127 -268z" />
<glyph unicode="'" horiz-adv-x="454" d="M113 879v555h229v-555h-229z" />
<glyph unicode="(" horiz-adv-x="909" d="M197 495.5q0 284.5 116.5 537.5t337.5 425l152 -155q-180 -147 -282.5 -359.5t-102.5 -448t102.5 -447.5t282.5 -359l-152 -156q-221 172 -337.5 425t-116.5 537.5z" />
<glyph unicode=")" horiz-adv-x="909" d="M106 -311q180 147 283 359t103 447.5t-102.5 447.5t-283.5 360l152 155q221 -172 338 -425t117 -537.5t-117 -537.5t-338 -425z" />
<glyph unicode="*" horiz-adv-x="1024" d="M139 1159l117 189l209 -195l4 4l-57 277h202l-57 -277l4 -4l209 195l117 -189l-283 -88v-4l281 -88l-105 -193l-215 197l-4 -4l62 -283h-220l62 283l-4 4l-215 -197l-105 193l281 88v4z" />
<glyph unicode="+" horiz-adv-x="1228" d="M119 387v221h385v387h221v-387h385v-221h-385v-387h-221v387h-385z" />
<glyph unicode="," horiz-adv-x="569" d="M33 -356l119 618h294l-206 -618h-207z" />
<glyph unicode="-" horiz-adv-x="681" d="M104 383v229h474v-229h-474z" />
<glyph unicode="." horiz-adv-x="569" d="M115 161.5q0 71.5 48 121t121.5 49.5t122 -49.5t48.5 -121t-48.5 -120.5t-122 -49t-121.5 49t-48 120.5z" />
<glyph unicode="/" horiz-adv-x="569" d="M-57 -25l458 1483h224l-459 -1483h-223z" />
<glyph unicode="0" d="M72 451v532q0 205 135 340t362.5 135t362.5 -135t135 -340v-532q0 -205 -135 -340.5t-362.5 -135.5t-362.5 135.5t-135 340.5zM375 451q0 -188 194.5 -188.5t194.5 188.5v532q0 188 -194.5 188t-194.5 -188v-532z" />
<glyph unicode="1" d="M213 1159v275h516v-1434h-295v1159h-221z" />
<glyph unicode="2" d="M57 172q0 72 34 123t167 182l297 295q84 84 125 142.5t41 117.5q0 51 -47 97.5t-125 46.5t-125 -46.5t-47 -105.5q0 -70 33.5 -122t87.5 -62l-209 -209q-100 55 -153.5 159.5t-53.5 225.5q0 188 135 315t331.5 127t332 -127t135.5 -315q0 -137 -51.5 -226.5 t-169.5 -197.5l-332 -309h598v-283h-785q-219 0 -219 172z" />
<glyph unicode="3" d="M61 0v295h435q205 0 204.5 170t-204.5 170h-279v184l418 338v-2v4h-549v275h598q139 0 211 -62.5t72 -150.5q0 -66 -33 -122.5t-72 -89t-103.5 -79.5t-94.5 -76q164 -29 268 -139.5t104 -274.5q0 -229 -142 -334.5t-376 -105.5h-457z" />
<glyph unicode="4" d="M25 500q0 92 77 221l426 713h297l-518 -856h344v401l244 414q35 59 37 59t2 -55v-819h137v-275h-137v-303h-283v303h-428q-82 0 -140 52.5t-58 144.5z" />
<glyph unicode="5" d="M100 0v287h392q115 0 174 37.5t59 146.5t-59.5 146.5t-173.5 37.5h-361v779h803v-275h-508v-229h180q168 0 305.5 -125t137.5 -340t-137.5 -340t-305.5 -125h-506z" />
<glyph unicode="6" d="M66 479q0 131 114 340l336 615h348l-442 -793q-53 -94 -53 -162q0 -88 57 -144t143 -56t143.5 56t57.5 144q0 201 -215 213l145 271q168 -41 270.5 -175.5t102.5 -308.5q0 -219 -141 -361.5t-362.5 -142.5t-362.5 142.5t-141 361.5z" />
<glyph unicode="7" d="M123 1147v287h659q98 0 166 -47.5t68 -120.5q0 -80 -45 -219l-348 -1047h-328l412 1147h-584z" />
<glyph unicode="8" d="M66 446q0 111 58 199t161 137q-82 37 -126 113t-44 170q0 182 132 287.5t326 105.5q188 0 317.5 -105.5t129.5 -287.5q0 -94 -42 -170t-124 -113q102 -49 160.5 -137t58.5 -199q0 -227 -137 -349t-366.5 -122t-366.5 122t-137 349zM369 442q0 -86 57 -143t143 -57 t143.5 58t57.5 142t-57.5 142.5t-143.5 58.5t-143 -57.5t-57 -143.5zM397 1050.5q0 -73.5 48.5 -121.5t120 -48t121.5 48t50 121.5t-50 122t-121.5 48.5t-120 -48.5t-48.5 -122z" />
<glyph unicode="9" d="M66 954q0 219 141 361.5t362.5 142.5t362.5 -142t141 -362q0 -131 -115 -340l-335 -614h-349l443 793q53 94 53 161q0 88 -57.5 144.5t-143.5 56.5t-143 -56.5t-57 -144.5q0 -201 215 -213l-146 -270q-168 41 -270 175t-102 308z" />
<glyph unicode=":" horiz-adv-x="569" d="M115 161.5q0 71.5 48 121t121.5 49.5t122 -49.5t48.5 -121t-48.5 -120.5t-122 -49t-121.5 49t-48 120.5zM115 780.5q0 71.5 48 120.5t121.5 49t122 -49t48.5 -120.5t-48.5 -121t-122 -49.5t-121.5 49.5t-48 121z" />
<glyph unicode=";" horiz-adv-x="569" d="M33 -356l119 618h294l-206 -618h-207zM115 780.5q0 71.5 48 120.5t121.5 49t122 -49t48.5 -120.5t-48.5 -121t-122 -49.5t-121.5 49.5t-48 121z" />
<glyph unicode="&#x3c;" horiz-adv-x="1228" d="M119 412v172l991 411v-207l-715 -290l715 -291v-207z" />
<glyph unicode="=" horiz-adv-x="1228" d="M119 172v221h991v-221h-991zM119 602v221h991v-221h-991z" />
<glyph unicode="&#x3e;" horiz-adv-x="1228" d="M119 0v207l715 291l-715 290v207l991 -411v-172z" />
<glyph unicode="?" horiz-adv-x="1024" d="M35 1094q41 162 167 263t292 101q219 0 350 -128t131 -347q0 -139 -97.5 -252t-234.5 -131v-182h-283v413q182 0 245 44.5t63 136.5q0 72 -47.5 118t-131.5 46q-59 0 -106 -45.5t-70 -106.5zM322 161.5q0 71.5 48 121t121.5 49.5t122 -49.5t48.5 -121t-48.5 -120.5 t-122 -49t-121.5 49t-48 120.5z" />
<glyph unicode="@" horiz-adv-x="1638" d="M94 715q0 313 222.5 528t537.5 215q276 0 483 -169t207 -435q0 -125 -41 -227.5t-100.5 -165t-132 -105.5t-131 -60t-99.5 -17q-45 0 -75.5 27.5t-32.5 76.5l-4 2q-94 -106 -199 -106q-129 0 -226 105t-97 247q0 188 115.5 329.5t295.5 141.5q158 0 240 -123l22 98h181 l-101 -485q-12 -61 -12 -74q0 -43 29 -43q76 0 138 87t62 237q0 233 -146.5 362t-381.5 129q-248 0 -398.5 -161.5t-150.5 -413.5q0 -260 162 -416t420 -156q227 0 393 140h184q-104 -147 -256.5 -227.5t-337.5 -80.5q-322 0 -546 211.5t-224 528.5zM631 662q0 -74 41 -122 t110 -48q94 0 155.5 73.5t61.5 167.5q0 72 -44 118t-113 46q-88 0 -149.5 -73.5t-61.5 -161.5z" />
<glyph unicode="A" horiz-adv-x="1251" d="M111 0v934q0 98 28.5 188t87 167t162 123t236.5 46t236.5 -46t161.5 -123t88 -167t30 -188v-934h-320v516h-311v279h311v192q0 193 -196 193q-195 0 -195 -193v-987h-319z" />
<glyph unicode="B" d="M106 0v946q0 262 127 387t351 125q184 0 308 -117.5t124 -300.5q0 -84 -37 -158.5t-107 -115.5q197 -98 197 -346q0 -182 -107.5 -301t-283.5 -119h-209v287h162q63 0 99 44t36 115q0 86 -43 126t-113 40h-141v250h76q78 0 123 38t45 112q0 70 -41 114.5t-111 44.5 q-168 0 -168 -196v-975h-287z" />
<glyph unicode="C" horiz-adv-x="1024" d="M61 716.5q0 313.5 203 515.5t473 202h238v-287h-221q-152 0 -262.5 -136.5t-110.5 -294t110.5 -293.5t262.5 -136h221v-287h-238q-270 0 -473 201.5t-203 515z" />
<glyph unicode="D" horiz-adv-x="1366" d="M123 0v1434h512q106 0 221 -49.5t214 -138.5t163.5 -231.5t64.5 -309.5q0 -309 -203.5 -507t-496.5 -198h-86v287h86q160 0 278.5 130t118.5 290q0 205 -127 322.5t-315 117.5h-127v-1147h-303z" />
<glyph unicode="E" horiz-adv-x="1024" d="M57 717q0 137 42 262t125 228.5t221.5 165t316.5 61.5h158v-287h-185q-160 0 -253 -89t-113 -208h551v-266h-551q20 -119 113 -208t253 -89h185v-287h-158q-178 0 -316.5 61.5t-221.5 165t-125 228.5t-42 262z" />
<glyph unicode="F" horiz-adv-x="909" d="M90 0v983q0 203 106.5 327t307.5 124h330v-287h-259q-94 0 -138 -42t-44 -130v-152h441v-286h-441v-537h-303z" />
<glyph unicode="G" horiz-adv-x="1593" d="M66 717q0 307 207.5 524t523.5 217q356 0 587 -223l-192 -221q-61 68 -161.5 112.5t-209.5 44.5q-190 0 -313 -131t-123 -315t123 -315t313 -131q133 0 247 91t136 214h-397v266h717v-195q0 -111 -47 -226.5t-134.5 -219t-230.5 -169t-315 -65.5q-315 0 -523 217.5 t-208 524.5z" />
<glyph unicode="H" horiz-adv-x="1251" d="M127 0v1434h303v-516h389v516h303v-1434h-303v631h-389v-631h-303z" />
<glyph unicode="I" horiz-adv-x="569" d="M133 0v1434h303v-1434h-303z" />
<glyph unicode="J" horiz-adv-x="681" d="M10 0v303q152 0 202 44t50 175v912h303v-906q0 -160 -32.5 -264t-105.5 -161.5t-171.5 -80t-245.5 -22.5z" />
<glyph unicode="K" d="M111 0v1434h303v-537q102 0 139 25.5t68 99.5l176 412h331l-170 -377q-25 -57 -44 -93t-58 -77t-84 -58v-4q131 -10 214 -86.5t83 -197.5v-541h-303v479q0 74 -32 106.5t-99 32.5h-221v-618h-303z" />
<glyph unicode="L" horiz-adv-x="796" d="M115 430v1004h303v-963q0 -94 38 -131t117 -37h228v-303h-301q-385 0 -385 430z" />
<glyph unicode="M" horiz-adv-x="1705" d="M41 0l141 1155q37 303 252 303q102 0 172 -55t92 -158l154 -678h4l150 678q23 102 92 157.5t172 55.5q215 0 252 -303l141 -1155h-326l-100 1110h-4l-260 -1032q-12 -53 -42 -71.5t-89.5 -18.5t-89 18.5t-41.5 71.5l-238 1032h-4l-111 -1110h-317z" />
<glyph unicode="N" horiz-adv-x="1366" d="M117 0v1249q0 92 56 150.5t153 58.5q98 0 156.5 -57.5t103.5 -151.5l352 -735h2h4v920h303v-1252q0 -207 -170 -207q-88 0 -139 50.5t-109 164.5l-405 838l-4 -4v-1024h-303z" />
<glyph unicode="O" horiz-adv-x="1593" d="M66 717q0 307 207.5 524t523 217t523.5 -217t208 -524t-208 -524.5t-523.5 -217.5t-523 217.5t-207.5 524.5zM369 716.5q0 -186.5 116.5 -316.5t311 -130t311.5 130t117 316.5t-117 316.5t-311.5 130t-311 -130t-116.5 -316.5z" />
<glyph unicode="P" d="M100 0v969q0 205 136.5 347t361.5 142q219 0 358.5 -141t139.5 -348t-136.5 -348.5t-361.5 -141.5h-111v287q72 0 121 7t94.5 26.5t68 61.5t22.5 106q0 96 -52.5 150t-142.5 54t-142.5 -54t-52.5 -150v-967h-303z" />
<glyph unicode="Q" horiz-adv-x="1593" d="M66 717q0 307 207.5 524t523 217t523.5 -217t208 -524q2 -272 -162 -474t-420 -255v-197h-262v705h262v-197q111 20 195 148t84 270q0 186 -117 316t-311.5 130t-311 -130t-116.5 -316q0 -258 223 -398v-319q-231 70 -378.5 264.5t-147.5 452.5z" />
<glyph unicode="R" d="M106 0v983q0 88 26 167t81 150.5t158.5 114.5t242.5 43q205 0 322 -129t117 -297q0 -100 -46 -178t-133 -119q123 -47 161 -118.5t38 -208.5v-408h-303v406q0 86 -37 124.5t-125 38.5h-114v267q256 0 256 168q0 80 -49.5 123.5t-121 43.5t-120.5 -44t-49 -123v-1004h-304 z" />
<glyph unicode="S" horiz-adv-x="1024" d="M68 1053q0 184 109.5 282.5t246.5 98.5h479v-267h-409q-53 0 -80 -30.5t-27 -77.5q0 -35 58.5 -85t142.5 -106.5t168 -120t142 -146.5t58 -167q0 -82 -19 -153.5t-63.5 -137t-127 -104.5t-195.5 -39h-479v287h471q41 0 67.5 28.5t26.5 73.5q0 41 -58.5 91t-142.5 105.5 t-168 120t-142 156t-58 191.5z" />
<glyph unicode="T" horiz-adv-x="909" d="M-8 1147v287h926v-287h-312v-1147h-303v1147h-311z" />
<glyph unicode="U" horiz-adv-x="1251" d="M125 422v1012h303v-926q0 -133 53.5 -185.5t145.5 -52.5q90 0 143 52.5t53 185.5v926h303l2 -1012q0 -182 -130 -314.5t-371.5 -132.5t-371.5 132.5t-130 314.5z" />
<glyph unicode="V" d="M-20 1434h323l252 -1102h4l277 1102h323l-319 -1205q-33 -125 -95.5 -189.5t-189.5 -64.5t-189.5 64.5t-95.5 189.5z" />
<glyph unicode="W" horiz-adv-x="1820" d="M123 344v1090h303v-910q0 -147 30.5 -204.5t135 -57.5t135.5 57.5t31 204.5v910h303v-910q0 -147 30.5 -204.5t135 -57.5t135.5 57.5t31 204.5v910h303v-1090q0 -156 -121 -262.5t-301 -106.5q-119 0 -202 36t-163 122q-80 -86 -162.5 -122t-201.5 -36q-180 0 -301 106.5 t-121 262.5z" />
<glyph unicode="X" horiz-adv-x="1024" d="M37 0v283q158 37 240.5 153.5t82.5 286.5t-82.5 285.5t-240.5 142.5v283q164 0 288 -88.5t185 -237.5q63 150 188 238t289 88v-283q-158 -27 -240.5 -142.5t-82.5 -285.5t82.5 -287t240.5 -153v-283q-160 0 -290 95t-183 249h-4q-53 -154 -183 -249t-290 -95z" />
<glyph unicode="Y" d="M102 909v525h304v-422q0 -106 37.5 -159.5t125.5 -53.5t126 53t38 160v422h303v-525q0 -123 -73.5 -228.5t-241.5 -156.5v-524h-303v524q-164 49 -248 166q-68 96 -68 219z" />
<glyph unicode="Z" horiz-adv-x="1024" d="M27 147q0 109 47 187l501 813h-481v287h688q70 0 120 -53.5t50 -125.5q0 -68 -69 -182l-480 -786h578v-287h-793q-68 0 -114.5 47t-46.5 100z" />
<glyph unicode="[" horiz-adv-x="681" d="M156 -442v1876h405v-140h-196v-1597h196v-139h-405z" />
<glyph unicode="\" horiz-adv-x="569" d="M-143 1458h221l637 -1483h-221z" />
<glyph unicode="]" horiz-adv-x="681" d="M121 -303h196v1597h-196v140h405v-1876h-405v139z" />
<glyph unicode="^" horiz-adv-x="1228" d="M143 666l369 768h205l368 -768h-225l-246 542l-247 -542h-224z" />
<glyph unicode="_" horiz-adv-x="1024" d="M0 -154h1024v-102h-1024v102z" />
<glyph unicode="`" horiz-adv-x="454" d="M-109 1434h316l190 -295h-202z" />
<glyph unicode="a" d="M66 487q0 236 139 384.5t348 148.5q221 0 356 -125t135 -322v-573h-262v561q0 90 -63.5 143.5t-169.5 53.5q-94 0 -157.5 -76t-63.5 -184q0 -100 65.5 -170t163.5 -70q68 0 150 31v-273q-102 -25 -166 -24q-221 0 -348 144t-127 351z" />
<glyph unicode="b" d="M94 500v934h262v-936q0 -109 65.5 -178.5t168.5 -69.5q94 0 157.5 69.5t63.5 178t-64.5 178t-164.5 69.5q-74 0 -142 -30v276q102 29 158 29q205 0 340 -155.5t135 -364.5q0 -221 -137 -373t-350 -152q-215 0 -353.5 152t-138.5 373z" />
<glyph unicode="c" horiz-adv-x="796" d="M61 497.5q0 229.5 131.5 363.5t360.5 134h182v-262h-174q-109 0 -173 -65.5t-64 -170t64.5 -170t172.5 -65.5h174v-262h-182q-229 0 -360.5 134t-131.5 363.5z" />
<glyph unicode="d" d="M66 500q0 209 135 364.5t340 155.5q55 0 157 -29v-276q-68 31 -141 30q-100 0 -164.5 -69.5t-64.5 -178t63.5 -178t157.5 -69.5q102 0 167.5 69.5t65.5 178.5v936h262v-934q0 -221 -138 -373t-353 -152q-213 0 -350 152t-137 373z" />
<glyph unicode="e" d="M49 498q0 219 139.5 370.5t364.5 151.5q186 0 307 -84t176 -211l-506 -379l-127 166l261 201q-39 45 -129 45q-96 0 -160 -76t-64 -184q0 -98 71 -179t181 -81q100 0 173 57t89 156l265 -29q-37 -203 -182.5 -325t-354.5 -122q-225 0 -364.5 152t-139.5 371z" />
<glyph unicode="f" horiz-adv-x="569" d="M84 0v999q0 90 17.5 164t57.5 137.5t112.5 98.5t174.5 35h105v-263h-102q-102 0 -103 -100v-76h205v-254h-205v-741h-262z" />
<glyph unicode="g" d="M66 510q0 223 131 366.5t354 143.5q197 0 341 -139.5t144 -325.5v-481q0 -516 -520 -516q-178 0 -317 51v268q150 -57 311 -57q264 0 264 213v487q0 113 -66.5 173.5t-156.5 60.5q-98 0 -160.5 -66.5t-62.5 -173t62.5 -169t160.5 -62.5q68 0 145 24v-272 q-78 -27 -145 -27q-223 0 -354 140.5t-131 361.5z" />
<glyph unicode="h" horiz-adv-x="1024" d="M100 0v1434h262v-514h5q72 100 225 100q133 0 232.5 -89t99.5 -243v-688h-262v598q0 78 -39 119t-111 41t-111 -41t-39 -119v-598h-262z" />
<glyph unicode="i" horiz-adv-x="454" d="M72 1292q0 78 44 122t111.5 44t111.5 -44t44 -122t-44 -122t-111.5 -44t-111.5 44t-44 122zM96 0v995h262v-995h-262z" />
<glyph unicode="j" horiz-adv-x="454" d="M-106 -213h102q96 0 96 131v1077h262v-1028q0 -236 -76.5 -335t-279.5 -99h-104v254zM72 1292q0 78 44 122t111.5 44t111.5 -44t44 -122t-44 -122t-111.5 -44t-111.5 44t-44 122z" />
<glyph unicode="k" horiz-adv-x="1024" d="M102 0v1434h263v-775h75q72 0 119 105l103 231h292l-104 -231q-47 -100 -78 -137t-88 -49v-7q143 -25 196.5 -98.5t53.5 -220.5v-252h-262v229q0 94 -40 135.5t-118 41.5h-149v-406h-263z" />
<glyph unicode="l" horiz-adv-x="454" d="M96 0v1434h262v-1434h-262z" />
<glyph unicode="m" horiz-adv-x="1593" d="M98 0v688q0 160 110.5 246t297.5 86q78 0 158.5 -43t138.5 -109q127 152 315 152q158 0 267.5 -88t109.5 -244v-688h-274v598q0 160 -144 160q-96 -4 -143 -92v-666h-275v598q0 160 -143 160t-143 -160v-598h-275z" />
<glyph unicode="n" horiz-adv-x="1024" d="M100 0v688q0 160 112 246t300 86t300 -86t112 -246v-688h-262v598q0 78 -39 119t-111 41t-111 -41t-39 -119v-598h-262z" />
<glyph unicode="o" d="M66 498q0 219 139 370.5t364.5 151.5t364.5 -151.5t139 -370.5t-139 -371t-364.5 -152t-364.5 152t-139 371zM328 498q0 -123 65.5 -191.5t176 -68.5t176 68.5t65.5 191.5t-65.5 191.5t-176 68.5t-176 -68.5t-65.5 -191.5z" />
<glyph unicode="p" d="M94 -442v938q0 221 138.5 372.5t353.5 151.5q213 0 350 -151.5t137 -372.5q0 -209 -135 -365t-340 -156q-55 0 -158 29v277q68 -31 142 -31q100 0 164.5 69.5t64.5 178t-63.5 178t-157.5 69.5q-102 0 -168 -69.5t-66 -177.5v-940h-262z" />
<glyph unicode="q" d="M66 496q0 221 137 372.5t350 151.5q215 0 353 -151.5t138 -372.5v-938h-262v940q0 109 -65.5 178t-167.5 69q-94 0 -157.5 -69.5t-63.5 -178t64.5 -178t164.5 -69.5q74 0 141 31v-277q-102 -29 -157 -29q-205 0 -340 156t-135 365z" />
<glyph unicode="r" horiz-adv-x="681" d="M94 0v995h248v-188h4q33 96 100.5 148.5t151.5 52.5h55v-279h-63q-98 0 -157.5 -64.5t-59.5 -177.5v-487h-279z" />
<glyph unicode="s" horiz-adv-x="796" d="M47 0v246h338q74 0 74 55q0 33 -41 64.5t-100.5 60.5t-119 63.5t-100.5 89t-41 123.5q0 152 91.5 222.5t232.5 70.5h315v-245h-303q-66 0 -65 -45q0 -25 43 -50.5t105.5 -55.5t125 -66.5t105.5 -96t43 -133.5q0 -143 -94.5 -223t-241.5 -80h-367z" />
<glyph unicode="t" horiz-adv-x="569" d="M78 365v897h262v-267h190v-254h-190v-368q0 -111 90 -111h100v-262h-137q-172 0 -243.5 93.5t-71.5 271.5z" />
<glyph unicode="u" horiz-adv-x="1024" d="M100 307v688h262v-598q0 -78 39 -118.5t111 -40.5t111 40.5t39 118.5v598h262v-688q0 -160 -112 -246t-300 -86t-300 86t-112 246z" />
<glyph unicode="v" horiz-adv-x="909" d="M-8 995h291l166 -659h4l168 659h294l-256 -823q-29 -90 -75.5 -143.5t-137 -53.5t-137.5 53.5t-76 143.5z" />
<glyph unicode="w" horiz-adv-x="1593" d="M106 332v663h275v-598q0 -160 143 -159q135 0 135 159v598h275v-598q0 -160 135 -159q143 0 143 159v598h275v-663q0 -172 -109.5 -264.5t-267.5 -92.5q-190 0 -322 168q-106 -168 -305 -168q-158 0 -267.5 92.5t-109.5 264.5z" />
<glyph unicode="x" horiz-adv-x="796" d="M14 0v246h56q88 0 147 68.5t59 183t-59 183.5t-147 69h-56v245h68q90 0 181 -53t140 -145q94 199 314 198h65v-245h-53q-88 0 -147.5 -69t-59.5 -183.5t59.5 -183t147.5 -68.5h55v-246h-67q-90 0 -181.5 53t-140.5 146q-94 -199 -313 -199h-68z" />
<glyph unicode="y" horiz-adv-x="1024" d="M96 360v635h262v-581q0 -176 154 -176t154 176v581h262v-635q0 -143 -71 -240t-208 -128v-414h-274v414q-137 31 -209 131q-70 94 -70 237z" />
<glyph unicode="z" horiz-adv-x="909" d="M25 158q0 76 61 141l410 442h-410v254h569q96 0 144.5 -38.5t48.5 -96.5q0 -72 -16.5 -115t-61.5 -92l-362 -399h440v-254h-639q-86 0 -135 45t-49 113z" />
<glyph unicode="{" horiz-adv-x="909" d="M20 412v184q63 0 130 34t67 109v420q0 127 87 201t171 74h195v-168h-113q-70 0 -100.5 -42t-30.5 -98v-413q0 -106 -62.5 -153.5t-134.5 -53.5v-6q197 -18 197 -221v-414q0 -55 30.5 -97t100.5 -42h113v-168h-195q-84 0 -171 73.5t-87 200.5v420q0 84 -67 122t-130 38z " />
<glyph unicode="|" horiz-adv-x="454" d="M117 0v1434h221v-1434h-221z" />
<glyph unicode="}" horiz-adv-x="909" d="M240 -274h112q70 0 100.5 42t30.5 97v414q0 106 62.5 153t134.5 53v7q-197 18 -197 221v413q0 55 -30.5 97.5t-100.5 42.5h-112v168h194q84 0 171 -74t87 -201v-420q0 -86 66.5 -122.5t130.5 -36.5v-185q-35 0 -76 -10t-81 -45t-40 -88v-422q0 -125 -88 -198.5 t-170 -73.5h-194v168z" />
<glyph unicode="~" horiz-adv-x="1228" d="M141 498q92 176 256 176q80 0 228 -66q14 -6 43.5 -19.5t47 -20.5t41 -16t42 -13t35.5 -4q39 0 74.5 24.5t55 50t50.5 72.5l73 -184q-41 -55 -67.5 -86t-77.5 -60.5t-111 -29.5q-86 0 -208 67q-127 72 -236 72q-104 0 -172 -148z" />
<glyph unicode="&#xa1;" horiz-adv-x="569" d="M115 854q0 72 48 121t121.5 49t122 -49t48.5 -121t-48.5 -121t-122 -49t-121.5 49t-48 121zM119 -442l26 1046h279l27 -1046h-332z" />
<glyph unicode="&#xa2;" d="M94 721q0 158 90 272.5t254 139.5v301h160v-301h135v-218h-192q-209 0 -209 -194q0 -193 209 -193h192v-217h-135v-295h-160v295q-164 23 -254 137.5t-90 272.5z" />
<glyph unicode="&#xa3;" d="M29 0v287q129 0 166.5 69.5t37.5 245.5h-129v287h129v158q0 412 461 411q66 0 197 -16v-287q-102 16 -154 16q-111 0 -155.5 -32.5t-44.5 -106.5v-143h198v-287h-198q0 -115 -20.5 -184.5t-94.5 -124.5l4 -6h250q109 0 162 66.5t55 224.5h287q0 -268 -127 -423t-377 -155 h-647z" />
<glyph unicode="&#xa4;" d="M39 309l119 119q-96 106 -97 289q0 195 97 289l-119 118l125 125l115 -116q109 92 290 92q184 0 283 -88l119 116l129 -131l-111 -114q88 -104 88 -291q0 -182 -92 -293l115 -115l-119 -119l-117 119q-111 -100 -295 -100q-186 0 -295 96l-114 -117zM291 717 q0 -125 80 -210t198.5 -85t198.5 85t80 210t-80 210t-198.5 85t-198.5 -85t-80 -210z" />
<glyph unicode="&#xa5;" d="M94 1151v283q164 0 288 -88.5t187 -237.5q63 150 187.5 238t287.5 88v-283q-111 -18 -183.5 -78.5t-98.5 -138.5h211v-205h-252v-147h252v-205h-252v-377h-303v377h-252v205h252v147h-252v205h211q-31 76 -102.5 137.5t-180.5 79.5z" />
<glyph unicode="&#xa6;" horiz-adv-x="454" d="M117 0v563h221v-563h-221zM117 870v564h221v-564h-221z" />
<glyph unicode="&#xa7;" horiz-adv-x="1024" d="M86 762q0 92 67.5 160.5t159.5 68.5q-100 100 -100 205q0 135 88 198.5t227 63.5q170 0 326 -166l-174 -123q-88 117 -164 117q-31 0 -52.5 -24.5t-21.5 -57.5q0 -41 78 -123t170 -164.5t170 -192.5t78 -200q0 -98 -60.5 -156.5t-158.5 -72.5q109 -109 108 -240 q0 -129 -93 -194.5t-228 -65.5q-199 0 -342 176l170 129q25 -51 66.5 -92t88.5 -41q49 0 79 26.5t30 65.5q0 37 -53 100.5t-128 135.5t-149.5 148.5t-128 162.5t-53.5 156zM315 784q0 -49 136.5 -195.5t185.5 -146.5q72 0 72 66q0 57 -137.5 202.5t-188.5 145.5 q-68 0 -68 -72z" />
<glyph unicode="&#xa8;" horiz-adv-x="454" d="M-117 1273.5q0 59.5 41 101.5t102.5 42t102.5 -42t41 -101.5t-41 -101.5t-102.5 -42t-102.5 42t-41 101.5zM285 1273.5q0 59.5 41 101.5t102 42t102 -42t41 -101.5t-41 -101.5t-102 -42t-102 42t-41 101.5z" />
<glyph unicode="&#xa9;" horiz-adv-x="1638" d="M53 717q0 336 226.5 538.5t540 202.5t539.5 -202.5t226 -538.5t-226 -539t-539.5 -203t-540 203t-226.5 539zM283 717q0 -248 154.5 -406.5t382 -158.5t382 158.5t154.5 406.5t-154.5 406.5t-382 158.5t-382 -158.5t-154.5 -406.5zM434 723q0 186 114 309t296 123 q139 0 238.5 -83t117.5 -230h-176q-8 137 -180 137q-88 0 -144.5 -74t-56.5 -182.5t56.5 -182t144.5 -73.5q172 0 180 137h176q-18 -147 -117.5 -230t-238.5 -83q-182 0 -296 123t-114 309z" />
<glyph unicode="&#xaa;" horiz-adv-x="684" d="M8 1139q0 141 93.5 230t230.5 89q147 0 239.5 -75.5t92.5 -192.5v-344h-189v330q0 123 -139 122q-63 0 -101 -42t-38 -103q0 -68 36.5 -107.5t102.5 -39.5q49 0 90 18v-168q-57 -14 -102 -14q-143 0 -229.5 87t-86.5 210z" />
<glyph unicode="&#xab;" horiz-adv-x="1024" d="M96 498l254 315h205l-256 -315l260 -316h-203zM465 498l254 315h205l-256 -315l260 -316h-203z" />
<glyph unicode="&#xac;" horiz-adv-x="1228" d="M119 602v221h991v-651h-221v430h-770z" />
<glyph unicode="&#xad;" horiz-adv-x="681" d="M104 383v229h474v-229h-474z" />
<glyph unicode="&#xae;" horiz-adv-x="1638" d="M53 717q0 336 226.5 538.5t540 202.5t539.5 -202.5t226 -538.5t-226 -539t-539.5 -203t-540 203t-226.5 539zM283 717q0 -248 154.5 -406.5t382 -158.5t382 158.5t154.5 406.5t-154.5 406.5t-382 158.5t-382 -158.5t-154.5 -406.5zM518 311v815h305q166 0 247 -56 t81 -191q0 -203 -219 -215l211 -353h-178l-189 340h-82v-340h-176zM694 791h142q74 0 106.5 20t32.5 77.5t-33 78t-106 20.5h-142v-196z" />
<glyph unicode="&#xaf;" horiz-adv-x="454" d="M-127 1202v152h711v-152h-711z" />
<glyph unicode="&#xb0;" horiz-adv-x="819" d="M117 1165q0 123 85 208t207.5 85t207.5 -85t85 -208t-85 -208t-207.5 -85t-207.5 85t-85 208zM264 1165.5q0 -73.5 41 -113.5t104.5 -40t104.5 40t41 113.5t-41 113.5t-104.5 40t-104.5 -40t-41 -113.5z" />
<glyph unicode="&#xb1;" horiz-adv-x="1228" d="M119 0v221h991v-221h-991zM119 528v222h385v245h221v-245h385v-222h-385v-247h-221v247h-385z" />
<glyph unicode="&#xb2;" horiz-adv-x="681" d="M6 686q0 43 21.5 74t109.5 110l193 177q109 100 108 155q0 31 -29.5 57.5t-74.5 26.5t-74 -26.5t-29 -61.5q0 -39 19.5 -71.5t42.5 -39.5l-143 -124q-59 33 -93 96t-34 135q0 113 90 188.5t225 75.5q131 0 220 -75.5t89 -188.5q0 -82 -33.5 -135t-111.5 -121l-215 -182 h381v-172h-518q-144 0 -144 102z" />
<glyph unicode="&#xb3;" horiz-adv-x="681" d="M29 584v176h276q133 0 133 102.5t-133 102.5h-180v110l272 201v4h-354v164h395q90 0 137.5 -37t47.5 -90q0 -51 -29 -88t-89.5 -77t-78.5 -56q106 -18 174 -85t68 -163q0 -137 -93.5 -200.5t-244.5 -63.5h-301z" />
<glyph unicode="&#xb4;" horiz-adv-x="454" d="M57 1139l191 295h315l-303 -295h-203z" />
<glyph unicode="&#xb5;" horiz-adv-x="1024" d="M100 -442v1437h262v-598q0 -78 39 -118.5t111 -40.5t111 40.5t39 118.5v598h262v-688q0 -160 -112 -246t-300 -86q-86 0 -150 19v-436h-262z" />
<glyph unicode="&#xb6;" horiz-adv-x="1269" d="M41 1065q0 205 132 287t368 82h620v-1823h-229v1651h-207v-1651h-229v1098q-217 0 -336 95t-119 261z" />
<glyph unicode="&#xb7;" horiz-adv-x="569" d="M115 497.5q0 71.5 48 121t121.5 49.5t122 -49.5t48.5 -121t-48.5 -120.5t-122 -49t-121.5 49t-48 120.5z" />
<glyph unicode="&#xb8;" horiz-adv-x="454" d="M-8 -395l37 84q127 -37 153 -37q47 0 80 22.5t33 67.5q0 29 -26.5 49.5t-55.5 20.5q-37 0 -92 -19l-43 41l121 184h108l-86 -127q37 10 84 11q59 0 112.5 -42t53.5 -116q0 -94 -79 -144.5t-179 -50t-221 55.5z" />
<glyph unicode="&#xb9;" horiz-adv-x="681" d="M119 1272v172h344v-860h-209v688h-135z" />
<glyph unicode="&#xba;" horiz-adv-x="684" d="M14 1145q0 131 90.5 222t237.5 91t237.5 -91t90.5 -222q0 -133 -90.5 -223.5t-237.5 -90.5t-237.5 90.5t-90.5 223.5zM195 1144.5q0 -61.5 43 -103.5t104 -42t104 42t43 103.5t-43 103.5t-104 42t-104 -42t-43 -103.5z" />
<glyph unicode="&#xbb;" horiz-adv-x="1024" d="M96 813h203l260 -315l-254 -316h-205l256 316zM465 813h203l260 -315l-254 -316h-205l256 316z" />
<glyph unicode="&#xbc;" horiz-adv-x="1708" d="M119 1272v172h344v-860h-209v688h-135zM305 -25l832 1483h194l-839 -1483h-187zM899 299q0 53 51 133l277 428h203l-338 -514h223v242l184 276l8 6v-524h82v-172h-82v-174h-192v174h-287q-51 0 -90 35t-39 90z" />
<glyph unicode="&#xbd;" horiz-adv-x="1708" d="M119 1272v172h344v-860h-209v688h-135zM281 -25l831 1483h195l-840 -1483h-186zM991 102q0 43 21.5 74t109.5 111l193 176q109 100 108 155q0 31 -29.5 57.5t-74.5 26.5t-73.5 -26.5t-28.5 -61.5q0 -39 19 -71.5t42 -38.5l-143 -125q-59 33 -93 96.5t-34 134.5 q0 113 90 188.5t225 75.5q131 0 220 -75.5t89 -188.5q0 -82 -33.5 -135t-111.5 -121l-215 -182h381v-172h-518q-144 0 -144 102z" />
<glyph unicode="&#xbe;" horiz-adv-x="1708" d="M29 584v176h276q133 0 133 102.5t-133 102.5h-180v110l272 201v4h-354v164h395q90 0 137.5 -37t47.5 -90q0 -51 -29 -88t-89.5 -77t-78.5 -56q106 -18 174 -85t68 -163q0 -137 -93.5 -200.5t-244.5 -63.5h-301zM358 -25l832 1483h194l-839 -1483h-187zM899 299 q0 53 51 133l277 428h203l-338 -514h223v242l184 276l8 6v-524h82v-172h-82v-174h-192v174h-287q-51 0 -90 35t-39 90z" />
<glyph unicode="&#xbf;" horiz-adv-x="1024" d="M49 33q0 139 97.5 251.5t234.5 131.5v182h283v-414q-182 0 -245 -44t-63 -136q0 -72 47.5 -118t131.5 -46q59 0 106 45t70 107l278 -70q-41 -162 -167 -263t-292 -101q-219 0 -350 128t-131 347zM362 854q0 72 48.5 121t122 49t121.5 -49t48 -121t-48 -121t-121.5 -49 t-122 49t-48.5 121z" />
<glyph unicode="&#xc0;" horiz-adv-x="1251" d="M111 0v934q0 98 28.5 188t87 167t162 123t236.5 46t236.5 -46t161.5 -123t88 -167t30 -188v-934h-320v516h-311v279h311v192q0 193 -196 193q-195 0 -195 -193v-987h-319zM291 1815h315l191 -295h-203z" />
<glyph unicode="&#xc1;" horiz-adv-x="1251" d="M111 0v934q0 98 28.5 188t87 167t162 123t236.5 46t236.5 -46t161.5 -123t88 -167t30 -188v-934h-320v516h-311v279h311v192q0 193 -196 193q-195 0 -195 -193v-987h-319zM457 1520l190 295h316l-304 -295h-202z" />
<glyph unicode="&#xc2;" horiz-adv-x="1251" d="M111 0v934q0 98 28.5 188t87 167t162 123t236.5 46t236.5 -46t161.5 -123t88 -167t30 -188v-934h-320v516h-311v279h311v192q0 193 -196 193q-195 0 -195 -193v-987h-319zM264 1520l236 295h256l233 -295h-231l-129 168l-131 -168h-234z" />
<glyph unicode="&#xc3;" horiz-adv-x="1251" d="M111 0v934q0 98 28.5 188t87 167t162 123t236.5 46t236.5 -46t161.5 -123t88 -167t30 -188v-934h-320v516h-311v279h311v192q0 193 -196 193q-195 0 -195 -193v-987h-319zM252 1532q14 106 75.5 180t159.5 74q59 0 158.5 -39t126.5 -39q37 0 63.5 24.5t32.5 61.5h133 q-18 -109 -73.5 -179.5t-153.5 -70.5q-49 0 -155.5 37t-145.5 37q-72 0 -90 -86h-131z" />
<glyph unicode="&#xc4;" horiz-adv-x="1251" d="M111 0v934q0 98 28.5 188t87 167t162 123t236.5 46t236.5 -46t161.5 -123t88 -167t30 -188v-934h-320v516h-311v279h311v192q0 193 -196 193q-195 0 -195 -193v-987h-319zM283 1654.5q0 59.5 41 101.5t102 42t102 -42t41 -101.5t-41 -101.5t-102 -42t-102 42t-41 101.5z M684 1654.5q0 59.5 41 101.5t102.5 42t102.5 -42t41 -101.5t-41 -101.5t-102.5 -42t-102.5 42t-41 101.5z" />
<glyph unicode="&#xc5;" horiz-adv-x="1251" d="M111 0v934q0 98 28.5 188t87 167t162 123t236.5 46t236.5 -46t161.5 -123t88 -167t30 -188v-934h-320v516h-311v279h311v192q0 193 -196 193q-195 0 -195 -193v-987h-319zM410 1732.5q0 90.5 63.5 154t153.5 63.5t153.5 -63.5t63.5 -154t-63.5 -153.5t-153.5 -63 t-153.5 63t-63.5 153.5zM520 1733q0 -45 32 -76t75 -31t74.5 31t31.5 76t-31.5 75.5t-74.5 30.5t-75 -30.5t-32 -75.5z" />
<glyph unicode="&#xc6;" horiz-adv-x="1820" d="M102 0v934q0 242 142.5 383t359.5 141q131 0 246 -61.5t180 -171.5q174 209 492 209h204v-287h-184q-162 0 -274.5 -92t-132.5 -205h591v-266h-591q20 -113 132.5 -205t274.5 -92h184v-287h-206q-125 0 -246 41t-189 100v-141h-274v584h-309v266h309v158 q0 68 -57.5 115.5t-130.5 47.5q-217 0 -217 -233v-938h-304z" />
<glyph unicode="&#xc7;" horiz-adv-x="1024" d="M61 716.5q0 313.5 203 515.5t473 202h238v-287h-221q-152 0 -262.5 -136.5t-110.5 -294t110.5 -293.5t262.5 -136h221v-287h-238q-270 0 -473 201.5t-203 515zM418 -395l37 84q127 -37 153 -37q47 0 80 22.5t33 67.5q0 29 -26.5 49.5t-55.5 20.5q-37 0 -92 -19l-43 41 l121 184h108l-86 -127q37 10 84 11q59 0 112.5 -42t53.5 -116q0 -94 -79 -144.5t-179 -50t-221 55.5z" />
<glyph unicode="&#xc8;" horiz-adv-x="1024" d="M57 717q0 137 42 262t125 228.5t221.5 165t316.5 61.5h158v-287h-185q-160 0 -253 -89t-113 -208h551v-266h-551q20 -119 113 -208t253 -89h185v-287h-158q-178 0 -316.5 61.5t-221.5 165t-125 228.5t-42 262zM270 1815h316l190 -295h-203z" />
<glyph unicode="&#xc9;" horiz-adv-x="1024" d="M57 717q0 137 42 262t125 228.5t221.5 165t316.5 61.5h158v-287h-185q-160 0 -253 -89t-113 -208h551v-266h-551q20 -119 113 -208t253 -89h185v-287h-158q-178 0 -316.5 61.5t-221.5 165t-125 228.5t-42 262zM436 1520l191 295h315l-303 -295h-203z" />
<glyph unicode="&#xca;" horiz-adv-x="1024" d="M57 717q0 137 42 262t125 228.5t221.5 165t316.5 61.5h158v-287h-185q-160 0 -253 -89t-113 -208h551v-266h-551q20 -119 113 -208t253 -89h185v-287h-158q-178 0 -316.5 61.5t-221.5 165t-125 228.5t-42 262zM244 1520l235 295h256l234 -295h-232l-129 168l-131 -168 h-233z" />
<glyph unicode="&#xcb;" horiz-adv-x="1024" d="M57 717q0 137 42 262t125 228.5t221.5 165t316.5 61.5h158v-287h-185q-160 0 -253 -89t-113 -208h551v-266h-551q20 -119 113 -208t253 -89h185v-287h-158q-178 0 -316.5 61.5t-221.5 165t-125 228.5t-42 262zM262 1654.5q0 59.5 41 101.5t102.5 42t102.5 -42t41 -101.5 t-41 -101.5t-102.5 -42t-102.5 42t-41 101.5zM664 1654.5q0 59.5 40.5 101.5t102 42t102.5 -42t41 -101.5t-41 -101.5t-102.5 -42t-102 42t-40.5 101.5z" />
<glyph unicode="&#xcc;" horiz-adv-x="569" d="M-51 1815h315l191 -295h-203zM133 0v1434h303v-1434h-303z" />
<glyph unicode="&#xcd;" horiz-adv-x="569" d="M115 1520l190 295h316l-304 -295h-202zM133 0v1434h303v-1434h-303z" />
<glyph unicode="&#xce;" horiz-adv-x="569" d="M-78 1520l236 295h256l233 -295h-231l-129 168l-131 -168h-234zM133 0v1434h303v-1434h-303z" />
<glyph unicode="&#xcf;" horiz-adv-x="569" d="M-59 1654.5q0 59.5 41 101.5t102 42t102 -42t41 -101.5t-41 -101.5t-102 -42t-102 42t-41 101.5zM133 0v1434h303v-1434h-303zM342 1654.5q0 59.5 41 101.5t102.5 42t102.5 -42t41 -101.5t-41 -101.5t-102.5 -42t-102.5 42t-41 101.5z" />
<glyph unicode="&#xd0;" horiz-adv-x="1366" d="M-12 631v287h135v516h512q106 0 221 -49.5t214 -138.5t163.5 -231.5t64.5 -309.5q0 -309 -203.5 -507t-496.5 -198h-86v287h86q160 0 278.5 130t118.5 290q0 205 -127 322.5t-315 117.5h-127v-229h233v-287h-233v-631h-303v631h-135z" />
<glyph unicode="&#xd1;" horiz-adv-x="1366" d="M117 0v1249q0 92 56 150.5t153 58.5q98 0 156.5 -57.5t103.5 -151.5l352 -735h2h4v920h303v-1252q0 -207 -170 -207q-88 0 -139 50.5t-109 164.5l-405 838l-4 -4v-1024h-303zM322 1532q14 106 75.5 180t159.5 74q59 0 158.5 -39t126.5 -39q37 0 63.5 24.5t32.5 61.5h133 q-18 -109 -73.5 -179.5t-153.5 -70.5q-49 0 -155.5 37t-145.5 37q-72 0 -90 -86h-131z" />
<glyph unicode="&#xd2;" horiz-adv-x="1593" d="M66 717q0 307 207.5 524t523 217t523.5 -217t208 -524t-208 -524.5t-523.5 -217.5t-523 217.5t-207.5 524.5zM369 716.5q0 -186.5 116.5 -316.5t311 -130t311.5 130t117 316.5t-117 316.5t-311.5 130t-311 -130t-116.5 -316.5zM461 1815h315l191 -295h-203z" />
<glyph unicode="&#xd3;" horiz-adv-x="1593" d="M66 717q0 307 207.5 524t523 217t523.5 -217t208 -524t-208 -524.5t-523.5 -217.5t-523 217.5t-207.5 524.5zM369 716.5q0 -186.5 116.5 -316.5t311 -130t311.5 130t117 316.5t-117 316.5t-311.5 130t-311 -130t-116.5 -316.5zM627 1520l190 295h316l-304 -295h-202z" />
<glyph unicode="&#xd4;" horiz-adv-x="1593" d="M66 717q0 307 207.5 524t523 217t523.5 -217t208 -524t-208 -524.5t-523.5 -217.5t-523 217.5t-207.5 524.5zM369 716.5q0 -186.5 116.5 -316.5t311 -130t311.5 130t117 316.5t-117 316.5t-311.5 130t-311 -130t-116.5 -316.5zM434 1520l236 295h256l233 -295h-231 l-129 168l-131 -168h-234z" />
<glyph unicode="&#xd5;" horiz-adv-x="1593" d="M66 717q0 307 207.5 524t523 217t523.5 -217t208 -524t-208 -524.5t-523.5 -217.5t-523 217.5t-207.5 524.5zM369 716.5q0 -186.5 116.5 -316.5t311 -130t311.5 130t117 316.5t-117 316.5t-311.5 130t-311 -130t-116.5 -316.5zM422 1532q14 106 75.5 180t159.5 74 q59 0 158.5 -39t126.5 -39q37 0 63.5 24.5t32.5 61.5h133q-18 -109 -73.5 -179.5t-153.5 -70.5q-49 0 -155.5 37t-145.5 37q-72 0 -90 -86h-131z" />
<glyph unicode="&#xd6;" horiz-adv-x="1593" d="M66 717q0 307 207.5 524t523 217t523.5 -217t208 -524t-208 -524.5t-523.5 -217.5t-523 217.5t-207.5 524.5zM369 716.5q0 -186.5 116.5 -316.5t311 -130t311.5 130t117 316.5t-117 316.5t-311.5 130t-311 -130t-116.5 -316.5zM453 1654.5q0 59.5 41 101.5t102 42 t102 -42t41 -101.5t-41 -101.5t-102 -42t-102 42t-41 101.5zM854 1654.5q0 59.5 41 101.5t102.5 42t102.5 -42t41 -101.5t-41 -101.5t-102.5 -42t-102.5 42t-41 101.5z" />
<glyph unicode="&#xd7;" horiz-adv-x="1228" d="M119 164l332 334l-332 333l162 164l331 -333l336 333l162 -164l-336 -333l336 -334l-162 -164l-336 338l-331 -338z" />
<glyph unicode="&#xd8;" horiz-adv-x="1593" d="M-10 -25l243 265q-168 203 -167 477q0 307 207.5 524t523.5 217q248 0 432 -137l127 137h250l-244 -264q166 -205 166 -477q0 -307 -208 -524.5t-523 -217.5q-244 0 -432 140l-127 -140h-248zM369 717q0 -143 69 -254l588 637q-98 63 -229 63q-195 0 -311.5 -130 t-116.5 -316zM567 334q98 -63 230 -64q195 0 311.5 130t116.5 317q0 143 -70 254z" />
<glyph unicode="&#xd9;" horiz-adv-x="1251" d="M125 422v1012h303v-926q0 -133 53.5 -185.5t145.5 -52.5q90 0 143 52.5t53 185.5v926h303l2 -1012q0 -182 -130 -314.5t-371.5 -132.5t-371.5 132.5t-130 314.5zM291 1815h315l191 -295h-203z" />
<glyph unicode="&#xda;" horiz-adv-x="1251" d="M125 422v1012h303v-926q0 -133 53.5 -185.5t145.5 -52.5q90 0 143 52.5t53 185.5v926h303l2 -1012q0 -182 -130 -314.5t-371.5 -132.5t-371.5 132.5t-130 314.5zM457 1520l190 295h316l-304 -295h-202z" />
<glyph unicode="&#xdb;" horiz-adv-x="1251" d="M125 422v1012h303v-926q0 -133 53.5 -185.5t145.5 -52.5q90 0 143 52.5t53 185.5v926h303l2 -1012q0 -182 -130 -314.5t-371.5 -132.5t-371.5 132.5t-130 314.5zM264 1520l236 295h256l233 -295h-231l-129 168l-131 -168h-234z" />
<glyph unicode="&#xdc;" horiz-adv-x="1251" d="M125 422v1012h303v-926q0 -133 53.5 -185.5t145.5 -52.5q90 0 143 52.5t53 185.5v926h303l2 -1012q0 -182 -130 -314.5t-371.5 -132.5t-371.5 132.5t-130 314.5zM283 1654.5q0 59.5 41 101.5t102 42t102 -42t41 -101.5t-41 -101.5t-102 -42t-102 42t-41 101.5z M684 1654.5q0 59.5 41 101.5t102.5 42t102.5 -42t41 -101.5t-41 -101.5t-102.5 -42t-102.5 42t-41 101.5z" />
<glyph unicode="&#xdd;" d="M102 909v525h304v-422q0 -106 37.5 -159.5t125.5 -53.5t126 53t38 160v422h303v-525q0 -123 -73.5 -228.5t-241.5 -156.5v-524h-303v524q-164 49 -248 166q-68 96 -68 219zM412 1520l190 295h316l-304 -295h-202z" />
<glyph unicode="&#xde;" d="M100 0v1434h303v-217q88 37 195 36q217 0 357.5 -143t140.5 -346t-140.5 -346.5t-357.5 -143.5h-111v287q72 0 121 7t94.5 26.5t68 61.5t22.5 106q0 96 -52.5 150.5t-142.5 54.5t-142.5 -54.5t-52.5 -150.5v-762h-303z" />
<glyph unicode="&#xdf;" horiz-adv-x="1251" d="M14 741v254h129v90q0 158 121 253.5t297 95.5q147 0 263 -87t116 -231q0 -170 -123 -229q158 -88 260.5 -213t102.5 -281q0 -199 -136.5 -296t-341.5 -97h-194v254h192q205 0 205 156q0 72 -58.5 144.5t-128 118.5t-128 92t-58.5 73q0 29 37 60.5t75 71.5t38 91 q0 70 -40 108.5t-99 38.5q-55 0 -90 -31.5t-35 -99.5v-1077h-275v741h-129z" />
<glyph unicode="&#xe0;" d="M66 487q0 236 139 384.5t348 148.5q221 0 356 -125t135 -322v-573h-262v561q0 90 -63.5 143.5t-169.5 53.5q-94 0 -157.5 -76t-63.5 -184q0 -100 65.5 -170t163.5 -70q68 0 150 31v-273q-102 -25 -166 -24q-221 0 -348 144t-127 351zM246 1434h315l191 -295h-203z" />
<glyph unicode="&#xe1;" d="M66 487q0 236 139 384.5t348 148.5q221 0 356 -125t135 -322v-573h-262v561q0 90 -63.5 143.5t-169.5 53.5q-94 0 -157.5 -76t-63.5 -184q0 -100 65.5 -170t163.5 -70q68 0 150 31v-273q-102 -25 -166 -24q-221 0 -348 144t-127 351zM412 1139l190 295h316l-304 -295 h-202z" />
<glyph unicode="&#xe2;" d="M66 487q0 236 139 384.5t348 148.5q221 0 356 -125t135 -322v-573h-262v561q0 90 -63.5 143.5t-169.5 53.5q-94 0 -157.5 -76t-63.5 -184q0 -100 65.5 -170t163.5 -70q68 0 150 31v-273q-102 -25 -166 -24q-221 0 -348 144t-127 351zM219 1139l236 295h256l233 -295h-231 l-129 168l-131 -168h-234z" />
<glyph unicode="&#xe3;" d="M66 487q0 236 139 384.5t348 148.5q221 0 356 -125t135 -322v-573h-262v561q0 90 -63.5 143.5t-169.5 53.5q-94 0 -157.5 -76t-63.5 -184q0 -100 65.5 -170t163.5 -70q68 0 150 31v-273q-102 -25 -166 -24q-221 0 -348 144t-127 351zM207 1151q14 106 75.5 180t159.5 74 q59 0 158.5 -39t126.5 -39q37 0 63.5 24.5t32.5 61.5h133q-18 -109 -73.5 -179.5t-153.5 -70.5q-49 0 -155.5 37t-145.5 37q-72 0 -90 -86h-131z" />
<glyph unicode="&#xe4;" d="M66 487q0 236 139 384.5t348 148.5q221 0 356 -125t135 -322v-573h-262v561q0 90 -63.5 143.5t-169.5 53.5q-94 0 -157.5 -76t-63.5 -184q0 -100 65.5 -170t163.5 -70q68 0 150 31v-273q-102 -25 -166 -24q-221 0 -348 144t-127 351zM238 1273.5q0 59.5 40.5 101.5 t102 42t102.5 -42t41 -101.5t-41 -101.5t-102.5 -42t-102 42t-40.5 101.5zM639 1273.5q0 59.5 41 101.5t102.5 42t102.5 -42t41 -101.5t-41 -101.5t-102.5 -42t-102.5 42t-41 101.5z" />
<glyph unicode="&#xe5;" d="M66 487q0 236 139 384.5t348 148.5q221 0 356 -125t135 -322v-573h-262v561q0 90 -63.5 143.5t-169.5 53.5q-94 0 -157.5 -76t-63.5 -184q0 -100 65.5 -170t163.5 -70q68 0 150 31v-273q-102 -25 -166 -24q-221 0 -348 144t-127 351zM365 1352q0 90 63.5 153.5 t153.5 63.5t153.5 -63.5t63.5 -153.5t-63.5 -153.5t-153.5 -63.5t-153.5 63.5t-63.5 153.5zM475 1352q0 -45 32 -76t75 -31t74.5 31t31.5 76t-31.5 75.5t-74.5 30.5t-75 -30.5t-32 -75.5z" />
<glyph unicode="&#xe6;" horiz-adv-x="1820" d="M76 272q0 299 583 433q-109 70 -192 69q-117 0 -246 -67l-106 217q162 96 370 96q213 0 375 -146q162 145 365 146q78 0 145.5 -20.5t112.5 -48t91 -77t70.5 -84t63.5 -94.5l-520 -336l-103 168l283 181q-61 49 -154 49q-100 0 -165.5 -76t-65.5 -184q0 -98 70.5 -179 t181.5 -81q100 0 173 57t89 156l277 -29q-47 -203 -193.5 -325t-355.5 -122q-135 0 -230.5 48.5t-179.5 148.5q-70 -92 -176.5 -144.5t-222.5 -52.5q-147 0 -243.5 76t-96.5 221zM354 287q0 -43 37 -66.5t82 -23.5q123 0 185.5 100t62.5 233q-367 -87 -367 -243z" />
<glyph unicode="&#xe7;" horiz-adv-x="796" d="M61 497.5q0 229.5 131.5 363.5t360.5 134h182v-262h-174q-109 0 -173 -65.5t-64 -170t64.5 -170t172.5 -65.5h174v-262h-182q-229 0 -360.5 134t-131.5 363.5zM223 -395l37 84q127 -37 154 -37q47 0 79.5 22.5t32.5 67.5q0 29 -26.5 49.5t-55.5 20.5q-37 0 -92 -19 l-43 41l121 184h109l-86 -127q37 10 84 11q59 0 112 -42t53 -116q0 -94 -78.5 -144.5t-179 -50t-221.5 55.5z" />
<glyph unicode="&#xe8;" d="M49 498q0 219 139.5 370.5t364.5 151.5q186 0 307 -84t176 -211l-506 -379l-127 166l261 201q-39 45 -129 45q-96 0 -160 -76t-64 -184q0 -98 71 -179t181 -81q100 0 173 57t89 156l265 -29q-37 -203 -182.5 -325t-354.5 -122q-225 0 -364.5 152t-139.5 371zM221 1434 h316l190 -295h-203z" />
<glyph unicode="&#xe9;" d="M49 498q0 219 139.5 370.5t364.5 151.5q186 0 307 -84t176 -211l-506 -379l-127 166l261 201q-39 45 -129 45q-96 0 -160 -76t-64 -184q0 -98 71 -179t181 -81q100 0 173 57t89 156l265 -29q-37 -203 -182.5 -325t-354.5 -122q-225 0 -364.5 152t-139.5 371zM387 1139 l191 295h315l-303 -295h-203z" />
<glyph unicode="&#xea;" d="M49 498q0 219 139.5 370.5t364.5 151.5q186 0 307 -84t176 -211l-506 -379l-127 166l261 201q-39 45 -129 45q-96 0 -160 -76t-64 -184q0 -98 71 -179t181 -81q100 0 173 57t89 156l265 -29q-37 -203 -182.5 -325t-354.5 -122q-225 0 -364.5 152t-139.5 371zM195 1139 l235 295h256l234 -295h-232l-129 168l-131 -168h-233z" />
<glyph unicode="&#xeb;" d="M49 498q0 219 139.5 370.5t364.5 151.5q186 0 307 -84t176 -211l-506 -379l-127 166l261 201q-39 45 -129 45q-96 0 -160 -76t-64 -184q0 -98 71 -179t181 -81q100 0 173 57t89 156l265 -29q-37 -203 -182.5 -325t-354.5 -122q-225 0 -364.5 152t-139.5 371zM213 1273.5 q0 59.5 41 101.5t102.5 42t102.5 -42t41 -101.5t-41 -101.5t-102.5 -42t-102.5 42t-41 101.5zM614 1273.5q0 59.5 41 101.5t102.5 42t102.5 -42t41 -101.5t-41 -101.5t-102.5 -42t-102.5 42t-41 101.5z" />
<glyph unicode="&#xec;" horiz-adv-x="454" d="M-109 1434h316l190 -295h-202zM96 0v995h262v-995h-262z" />
<glyph unicode="&#xed;" horiz-adv-x="454" d="M57 1139l191 295h315l-303 -295h-203zM96 0v995h262v-995h-262z" />
<glyph unicode="&#xee;" horiz-adv-x="454" d="M-135 1139l235 295h256l234 -295h-232l-129 168l-131 -168h-233zM96 0v995h262v-995h-262z" />
<glyph unicode="&#xef;" horiz-adv-x="454" d="M-117 1273.5q0 59.5 41 101.5t102.5 42t102.5 -42t41 -101.5t-41 -101.5t-102.5 -42t-102.5 42t-41 101.5zM96 0v995h262v-995h-262zM285 1273.5q0 59.5 41 101.5t102 42t102 -42t41 -101.5t-41 -101.5t-102 -42t-102 42t-41 101.5z" />
<glyph unicode="&#xf0;" d="M66 498q0 100 29.5 188t90 162t171 116t257.5 40q78 -141 115 -299q-63 53 -160 53q-111 0 -176 -68.5t-65 -191.5t65.5 -191.5t175.5 -68.5q113 0 178.5 82.5t65.5 240.5q0 307 -197 557l-165 -82l-70 131l133 66q-47 43 -84 70l213 131q43 -33 98 -88l181 88l69 -131 l-151 -74q233 -303 233 -668q0 -272 -140 -429t-364 -157q-225 0 -364 152t-139 371z" />
<glyph unicode="&#xf1;" horiz-adv-x="1024" d="M100 0v688q0 160 112 246t300 86t300 -86t112 -246v-688h-262v598q0 78 -39 119t-111 41t-111 -41t-39 -119v-598h-262zM137 1151q14 106 75.5 180t160.5 74q59 0 158.5 -39t125.5 -39q37 0 64 24.5t33 61.5h133q-18 -109 -73.5 -179.5t-154.5 -70.5q-49 0 -155.5 37 t-145.5 37q-72 0 -90 -86h-131z" />
<glyph unicode="&#xf2;" d="M66 498q0 219 139 370.5t364.5 151.5t364.5 -151.5t139 -370.5t-139 -371t-364.5 -152t-364.5 152t-139 371zM233 1434h316l190 -295h-202zM328 498q0 -123 65.5 -191.5t176 -68.5t176 68.5t65.5 191.5t-65.5 191.5t-176 68.5t-176 -68.5t-65.5 -191.5z" />
<glyph unicode="&#xf3;" d="M66 498q0 219 139 370.5t364.5 151.5t364.5 -151.5t139 -370.5t-139 -371t-364.5 -152t-364.5 152t-139 371zM328 498q0 -123 65.5 -191.5t176 -68.5t176 68.5t65.5 191.5t-65.5 191.5t-176 68.5t-176 -68.5t-65.5 -191.5zM399 1139l191 295h315l-303 -295h-203z" />
<glyph unicode="&#xf4;" d="M66 498q0 219 139 370.5t364.5 151.5t364.5 -151.5t139 -370.5t-139 -371t-364.5 -152t-364.5 152t-139 371zM207 1139l235 295h256l234 -295h-232l-129 168l-131 -168h-233zM328 498q0 -123 65.5 -191.5t176 -68.5t176 68.5t65.5 191.5t-65.5 191.5t-176 68.5 t-176 -68.5t-65.5 -191.5z" />
<glyph unicode="&#xf5;" d="M66 498q0 219 139 370.5t364.5 151.5t364.5 -151.5t139 -370.5t-139 -371t-364.5 -152t-364.5 152t-139 371zM195 1151q14 106 75.5 180t159.5 74q59 0 158.5 -39t126.5 -39q37 0 63.5 24.5t32.5 61.5h133q-18 -109 -73.5 -179.5t-153.5 -70.5q-49 0 -155.5 37t-145.5 37 q-72 0 -90 -86h-131zM328 498q0 -123 65.5 -191.5t176 -68.5t176 68.5t65.5 191.5t-65.5 191.5t-176 68.5t-176 -68.5t-65.5 -191.5z" />
<glyph unicode="&#xf6;" d="M66 498q0 219 139 370.5t364.5 151.5t364.5 -151.5t139 -370.5t-139 -371t-364.5 -152t-364.5 152t-139 371zM225 1273.5q0 59.5 41 101.5t102.5 42t102.5 -42t41 -101.5t-41 -101.5t-102.5 -42t-102.5 42t-41 101.5zM328 498q0 -123 65.5 -191.5t176 -68.5t176 68.5 t65.5 191.5t-65.5 191.5t-176 68.5t-176 -68.5t-65.5 -191.5zM627 1273.5q0 59.5 41 101.5t102 42t102 -42t41 -101.5t-41 -101.5t-102 -42t-102 42t-41 101.5z" />
<glyph unicode="&#xf7;" horiz-adv-x="1228" d="M119 387v221h991v-221h-991zM442 90q0 70 51.5 122t123 52t123 -52t51.5 -122t-51.5 -122t-123 -52t-123 52t-51.5 122zM442 905.5q0 69.5 51.5 121.5t123 52t123 -52t51.5 -121.5t-51.5 -122t-123 -52.5t-123 52.5t-51.5 122z" />
<glyph unicode="&#xf8;" d="M-2 -45l178 207q-111 139 -110 336q0 219 139 370.5t364 151.5q152 0 262 -70l89 107h223v-4v-4l-185 -211q115 -137 115 -340q0 -219 -139 -371t-365 -152q-156 0 -270 74l-86 -102h-215v8zM328 498q0 -76 24 -125l305 368q-35 16 -88 17q-111 0 -176 -68.5t-65 -191.5z M473 256q39 -18 96 -18q111 0 176.5 68.5t65.5 191.5q0 78 -27 131z" />
<glyph unicode="&#xf9;" horiz-adv-x="1024" d="M100 307v688h262v-598q0 -78 39 -118.5t111 -40.5t111 40.5t39 118.5v598h262v-688q0 -160 -112 -246t-300 -86t-300 86t-112 246zM176 1434h316l190 -295h-203z" />
<glyph unicode="&#xfa;" horiz-adv-x="1024" d="M100 307v688h262v-598q0 -78 39 -118.5t111 -40.5t111 40.5t39 118.5v598h262v-688q0 -160 -112 -246t-300 -86t-300 86t-112 246zM342 1139l190 295h316l-303 -295h-203z" />
<glyph unicode="&#xfb;" horiz-adv-x="1024" d="M100 307v688h262v-598q0 -78 39 -118.5t111 -40.5t111 40.5t39 118.5v598h262v-688q0 -160 -112 -246t-300 -86t-300 86t-112 246zM150 1139l235 295h256l233 -295h-231l-129 168l-131 -168h-233z" />
<glyph unicode="&#xfc;" horiz-adv-x="1024" d="M100 307v688h262v-598q0 -78 39 -118.5t111 -40.5t111 40.5t39 118.5v598h262v-688q0 -160 -112 -246t-300 -86t-300 86t-112 246zM168 1273.5q0 59.5 41 101.5t102.5 42t102.5 -42t41 -101.5t-41 -101.5t-102.5 -42t-102.5 42t-41 101.5zM569 1273.5q0 59.5 41 101.5 t102.5 42t102.5 -42t41 -101.5t-41 -101.5t-102.5 -42t-102.5 42t-41 101.5z" />
<glyph unicode="&#xfd;" horiz-adv-x="1024" d="M96 360v635h262v-581q0 -176 154 -176t154 176v581h262v-635q0 -143 -71 -240t-208 -128v-414h-274v414q-137 31 -209 131q-70 94 -70 237zM342 1139l190 295h316l-303 -295h-203z" />
<glyph unicode="&#xfe;" d="M94 -442v1876h262v-471q102 57 230 57q213 0 350 -151.5t137 -372.5q0 -209 -135 -365t-340 -156q-55 0 -158 29v277q68 -31 142 -31q100 0 164.5 69.5t64.5 178t-63.5 178t-157.5 69.5q-102 0 -168 -69.5t-66 -177.5v-940h-262z" />
<glyph unicode="&#xff;" horiz-adv-x="1024" d="M96 360v635h262v-581q0 -176 154 -176t154 176v581h262v-635q0 -143 -71 -240t-208 -128v-414h-274v414q-137 31 -209 131q-70 94 -70 237zM168 1273.5q0 59.5 41 101.5t102.5 42t102.5 -42t41 -101.5t-41 -101.5t-102.5 -42t-102.5 42t-41 101.5zM569 1273.5 q0 59.5 41 101.5t102.5 42t102.5 -42t41 -101.5t-41 -101.5t-102.5 -42t-102.5 42t-41 101.5z" />
<glyph unicode="&#x152;" horiz-adv-x="2048" d="M37 717q0 309 210 525t490 216q322 0 549 -278q119 143 257 198.5t321 55.5h123v-287h-185q-160 0 -253 -89t-115 -208h553v-266h-553q23 -119 115.5 -208t252.5 -89h185v-287h-123q-182 0 -320.5 55.5t-257.5 198.5q-227 -279 -549 -279q-281 0 -490.5 216.5 t-209.5 525.5zM340 716.5q0 -190.5 117.5 -318.5t285.5 -128t286 128t118 318.5t-118 318.5t-286 128t-285.5 -128t-117.5 -318.5z" />
<glyph unicode="&#x153;" horiz-adv-x="1933" d="M59 498q0 219 139.5 370.5t364.5 151.5q233 0 379 -156q96 88 181 122t208 34q90 0 168 -27.5t137.5 -78t100.5 -101.5t80 -117l-512 -327l-119 163l287 185q-53 53 -160 53q-94 0 -162 -81t-68 -189q0 -98 74 -180t184 -82q100 0 173 57t90 154l270 -25 q-41 -203 -187.5 -326t-355.5 -123q-127 0 -216 35t-167 125q-178 -160 -385 -160q-225 0 -364.5 152t-139.5 371zM322 498q0 -123 65.5 -191.5t176 -68.5t176 68.5t65.5 191.5t-65.5 191.5t-176 68.5t-176 -68.5t-65.5 -191.5z" />
<glyph unicode="&#x178;" d="M102 909v525h304v-422q0 -106 37.5 -159.5t125.5 -53.5t126 53t38 160v422h303v-525q0 -123 -73.5 -228.5t-241.5 -156.5v-524h-303v524q-164 49 -248 166q-68 96 -68 219zM238 1654.5q0 59.5 40.5 101.5t102 42t102.5 -42t41 -101.5t-41 -101.5t-102.5 -42t-102 42 t-40.5 101.5zM639 1654.5q0 59.5 41 101.5t102.5 42t102.5 -42t41 -101.5t-41 -101.5t-102.5 -42t-102.5 42t-41 101.5z" />
<glyph unicode="&#x2c6;" horiz-adv-x="454" d="M-135 1139l235 295h256l234 -295h-232l-129 168l-131 -168h-233z" />
<glyph unicode="&#x2dc;" horiz-adv-x="454" d="M-147 1151q14 106 75.5 180t159.5 74q59 0 158.5 -39t126.5 -39q37 0 63.5 24.5t32.5 61.5h133q-18 -109 -73.5 -179.5t-153.5 -70.5q-49 0 -155.5 37t-145.5 37q-72 0 -90 -86h-131z" />
<glyph unicode="&#x2000;" horiz-adv-x="974" />
<glyph unicode="&#x2001;" horiz-adv-x="1949" />
<glyph unicode="&#x2002;" horiz-adv-x="974" />
<glyph unicode="&#x2003;" horiz-adv-x="1949" />
<glyph unicode="&#x2004;" horiz-adv-x="649" />
<glyph unicode="&#x2005;" horiz-adv-x="487" />
<glyph unicode="&#x2006;" horiz-adv-x="323" />
<glyph unicode="&#x2007;" horiz-adv-x="323" />
<glyph unicode="&#x2008;" horiz-adv-x="243" />
<glyph unicode="&#x2009;" horiz-adv-x="389" />
<glyph unicode="&#x200a;" horiz-adv-x="106" />
<glyph unicode="&#x2010;" horiz-adv-x="681" d="M104 383v229h474v-229h-474z" />
<glyph unicode="&#x2011;" horiz-adv-x="681" d="M104 383v229h474v-229h-474z" />
<glyph unicode="&#x2012;" horiz-adv-x="681" d="M104 383v229h474v-229h-474z" />
<glyph unicode="&#x2013;" horiz-adv-x="1024" d="M0 410v176h1024v-176h-1024z" />
<glyph unicode="&#x2014;" horiz-adv-x="2048" d="M0 410v176h2048v-176h-2048z" />
<glyph unicode="&#x2018;" horiz-adv-x="454" d="M76 1434h264l55 -467h-202z" />
<glyph unicode="&#x2019;" horiz-adv-x="454" d="M59 967l56 467h264l-117 -467h-203z" />
<glyph unicode="&#x201a;" horiz-adv-x="454" d="M59 -205l56 467h264l-117 -467h-203z" />
<glyph unicode="&#x201c;" horiz-adv-x="796" d="M70 1434h264l55 -467h-203zM449 1434h264l55 -467h-203z" />
<glyph unicode="&#x201d;" horiz-adv-x="796" d="M29 967l55 467h264l-117 -467h-202zM408 967l55 467h264l-117 -467h-202z" />
<glyph unicode="&#x201e;" horiz-adv-x="796" d="M29 -205l55 467h264l-117 -467h-202zM408 -205l55 467h264l-117 -467h-202z" />
<glyph unicode="&#x2022;" horiz-adv-x="1024" d="M154 718.5q0 149.5 104 253t256 103.5q150 0 253 -103.5t103 -252.5q0 -152 -103 -256.5t-252.5 -104.5t-255 105.5t-105.5 255z" />
<glyph unicode="&#x2026;" horiz-adv-x="2048" d="M172 161.5q0 71.5 48 121t122 49.5t122 -49.5t48 -121t-48 -120.5t-122 -49t-122 49t-48 120.5zM854 161.5q0 71.5 48 121t122 49.5t122 -49.5t48 -121t-48 -120.5t-122 -49t-122 49t-48 120.5zM1536 161.5q0 71.5 48 121t122 49.5t122 -49.5t48 -121t-48 -120.5 t-122 -49t-122 49t-48 120.5z" />
<glyph unicode="&#x202f;" horiz-adv-x="389" />
<glyph unicode="&#x2039;" horiz-adv-x="681" d="M119 498l254 315h205l-256 -315l260 -316h-203z" />
<glyph unicode="&#x203a;" horiz-adv-x="681" d="M119 813h203l260 -315l-254 -316h-205l256 316z" />
<glyph unicode="&#x205f;" horiz-adv-x="487" />
<glyph unicode="&#x2122;" horiz-adv-x="2048" d="M57 1257v177h699v-177h-236v-684h-229v684h-234zM915 573v861h314l192 -512l191 512h313v-861h-217v594h-4l-201 -594h-166l-200 594h-4v-594h-218z" />
<glyph unicode="&#xe000;" horiz-adv-x="995" d="M0 995h995v-995h-995v995z" />
<glyph unicode="&#xfb01;" horiz-adv-x="1024" d="M94 0v999q0 90 17.5 164t57.5 137.5t112.5 98.5t175.5 35h104v-263h-102q-102 0 -103 -100v-76h205v-254h-205v-741h-262zM635 1292q0 78 44 122t111.5 44t111.5 -44t44 -122t-44 -122t-111.5 -44t-111.5 44t-44 122zM659 0v995h263v-995h-263z" />
<glyph unicode="&#xfb02;" horiz-adv-x="1024" d="M94 0v999q0 90 17.5 164t57.5 137.5t112.5 98.5t175.5 35h104v-263h-102q-102 0 -103 -100v-76h205v-254h-205v-741h-262zM659 0v1434h263v-1434h-263z" />
<glyph unicode="&#xfb03;" horiz-adv-x="1593" d="M1211 1292q0 78 44 122t111.5 44t111.5 -44t44 -122t-44 -122t-111.5 -44t-111.5 44t-44 122zM1235 0v995h262v-995h-262zM653 0v999q0 90 17.5 164t57.5 137.5t112.5 98.5t174.5 35h105v-263h-102q-102 0 -103 -100v-76h205v-254h-205v-741h-262zM84 0v999 q0 90 17.5 164t57.5 137.5t112.5 98.5t174.5 35h105v-263h-102q-102 0 -103 -100v-76h205v-254h-205v-741h-262z" />
<glyph unicode="&#xfb04;" horiz-adv-x="1593" d="M1235 0v1434h262v-1434h-262zM653 0v999q0 90 17.5 164t57.5 137.5t112.5 98.5t174.5 35h105v-263h-102q-102 0 -103 -100v-76h205v-254h-205v-741h-262zM84 0v999q0 90 17.5 164t57.5 137.5t112.5 98.5t174.5 35h105v-263h-102q-102 0 -103 -100v-76h205v-254h-205v-741 h-262z" />
</font>
</defs>
</svg>
