<?xml version="1.0" standalone="no"?>
<!DOCTYPE svg PUBLIC "-//W3C//DTD SVG 1.1//EN" "http://www.w3.org/Graphics/SVG/1.1/DTD/svg11.dtd" >
<svg xmlns="http://www.w3.org/2000/svg">
<metadata>
This is a custom SVG webfont generated by Font Squirrel.
Copyright   : Copyright c 1989 Adobe Systems Incorporated  All Rights ReservedBauhaus is a registered trademark of International Typeface Corporation
</metadata>
<defs>
<font id="BauhausRegular" horiz-adv-x="1138" >
<font-face units-per-em="2048" ascent="1638" descent="-410" />
<missing-glyph horiz-adv-x="569" />
<glyph unicode=" "  horiz-adv-x="569" />
<glyph unicode="&#x09;" horiz-adv-x="569" />
<glyph unicode="&#xa0;" horiz-adv-x="569" />
<glyph unicode="!" horiz-adv-x="681" d="M131 184q0 86 60.5 147.5t148.5 61.5t148.5 -61.5t60.5 -147.5t-60.5 -147.5t-148.5 -61.5t-148.5 61.5t-60.5 147.5zM147 1434h385l-28 -981h-328z" />
<glyph unicode="&#x22;" horiz-adv-x="681" d="M33 881v553h246v-553h-246zM408 881v553h245v-553h-245z" />
<glyph unicode="#" d="M53 403l8 193h195l35 242h-176l8 192h192l56 404h204l-55 -404h187l55 404h205l-54 -404h156l-8 -192h-176l-33 -242h156l-9 -193h-176l-55 -403h-205l55 403h-186l-55 -403h-205l57 403h-176zM461 596h186l33 242h-186z" />
<glyph unicode="$" d="M164 1063q0 152 83 239t214 103v203h205v-199h219v-274h-344q-18 0 -33.5 -14.5t-15.5 -35.5q0 -33 75.5 -89t165.5 -114.5t166 -151.5t76 -191q0 -150 -88 -239t-221 -112v-258h-205v254h-277v283h338q47 0 78 19.5t31 52t-73 95t-161 125t-160.5 146.5t-72.5 158z" />
<glyph unicode="%" horiz-adv-x="1820" d="M74 1071.5q0 151.5 105.5 257t257 105.5t257 -105.5t105.5 -257t-105.5 -257t-257 -105.5t-257 105.5t-105.5 257zM291 1071q0 -59 44 -102t101.5 -43t101.5 43t44 102t-44 102.5t-101.5 43.5t-101.5 -43.5t-44 -102.5zM340 0l903 1434h219l-905 -1434h-217zM1006 362.5 q0 151.5 105.5 257t257 105.5t257 -105.5t105.5 -257t-105.5 -257t-257 -105.5t-257 105.5t-105.5 257zM1223 362.5q0 -59.5 44 -102.5t101 -43t101 43t44 102.5t-44 102.5t-101 43t-101 -43t-44 -102.5z" />
<glyph unicode="&#x26;" horiz-adv-x="1593" d="M102 553q0 143 69 265t177 190q-96 100 -96 196q0 121 83 175.5t208 54.5h567v-304h-430l410 -522q29 154 -99 299l244 232q213 -227 213 -461q0 -195 -125 -346l252 -316h-442l-58 76q-164 -117 -387 -117q-252 0 -419 173.5t-167 404.5zM459 563q0 -109 69.5 -182.5 t165.5 -73.5q106 0 176 51l-315 396q-96 -66 -96 -191z" />
<glyph unicode="'" horiz-adv-x="454" d="M104 881v553h246v-553h-246z" />
<glyph unicode="(" horiz-adv-x="681" d="M63 500q0 575 463 962l156 -176q-356 -307 -356 -786q0 -240 90 -428.5t276 -366.5l-172 -168q-233 195 -345 449t-112 514z" />
<glyph unicode=")" horiz-adv-x="681" d="M-10 -295q186 178 276 366.5t90 428.5q0 479 -356 786l156 176q463 -387 462 -962q0 -260 -111.5 -514t-344.5 -449z" />
<glyph unicode="*" horiz-adv-x="909" d="M84 993l238 78v4l-238 74l115 211l192 -176l4 4l-51 246h221l-51 -246l4 -4l193 176l114 -211l-237 -74v-4l237 -78l-112 -205l-187 177l-4 -4l47 -252h-229l47 252l-4 4l-186 -177z" />
<glyph unicode="+" horiz-adv-x="1228" d="M117 379v237h379v379h237v-379h379v-237h-379v-379h-237v379h-379z" />
<glyph unicode="," horiz-adv-x="569" d="M18 -303l111 606h348l-209 -606h-250z" />
<glyph unicode="-" horiz-adv-x="681" d="M84 360v275h512v-275h-512z" />
<glyph unicode="." horiz-adv-x="569" d="M76 184q0 86 60.5 147.5t148.5 61.5t148.5 -61.5t60.5 -147.5t-60.5 -147.5t-148.5 -61.5t-148.5 61.5t-60.5 147.5z" />
<glyph unicode="/" horiz-adv-x="569" d="M-72 -25l475 1483h240l-475 -1483h-240z" />
<glyph unicode="0" d="M68 479v475q0 221 139 362.5t362.5 141.5t362.5 -141t139 -363v-475q0 -221 -139 -362.5t-362.5 -141.5t-362.5 141.5t-139 362.5zM412 504q0 -113 41 -155t116.5 -42t116.5 42t41 155v434q0 113 -41 155t-116.5 42t-116.5 -42t-41 -155v-434z" />
<glyph unicode="1" d="M190 1102v332h564v-1434h-336v1102h-228z" />
<glyph unicode="2" d="M80 221q0 70 93 186.5t203.5 222t204 213t93.5 161.5q0 131 -125 131q-51 0 -87 -34t-36 -93q0 -82 66 -136l-232 -229q-162 125 -162 332q0 211 125 347t330 136q209 0 337 -128t128 -347q0 -39 -6 -72.5t-14.5 -61.5t-34 -66t-43 -63.5t-64.5 -75.5t-77.5 -83 t-102.5 -105.5t-121 -123.5h487v-332h-723q-239 0 -239 221z" />
<glyph unicode="3" d="M76 0v332h438q96 0 134 32.5t38 108.5q0 55 -31.5 94t-87.5 39h-307v209l328 295h-473v324h544q147 0 224.5 -54.5t77.5 -179.5q0 -45 -32 -100.5t-62.5 -89t-87 -89t-66.5 -65.5q143 -29 230 -136.5t87 -254.5q0 -236 -141 -350.5t-385 -114.5h-428z" />
<glyph unicode="4" d="M18 508q0 88 62 192l407 721h336l-458 -807h249v308l287 495l27 41q2 0 2 -49v-795h160v-331h-160v-283h-316v283h-376q-90 0 -155 62.5t-65 162.5z" />
<glyph unicode="5" d="M109 0v344h428q84 0 127 36t43 97q0 70 -47.5 111t-135.5 41h-387v805h793v-324h-449v-149h76q223 0 358.5 -123t135.5 -359q0 -223 -148.5 -351t-333.5 -128h-460z" />
<glyph unicode="6" d="M57 477q0 135 113 344l328 613h389l-422 -793q-63 -117 -64 -170q0 -63 43 -107.5t109 -44.5q82 0 126 48.5t44 126.5q0 74 -47 117.5t-119 47.5l182 320q152 -59 240 -184t88 -289q0 -240 -139.5 -385.5t-378.5 -145.5q-221 0 -356.5 140.5t-135.5 361.5z" />
<glyph unicode="7" d="M125 1102v332h565q164 0 244 -55.5t80 -178.5q0 -57 -45 -201l-310 -999h-385l388 1102h-537z" />
<glyph unicode="8" d="M61 442q0 227 195 336q-145 96 -145 287q0 170 123.5 281.5t334.5 111.5t335 -111.5t124 -281.5q0 -190 -145 -287q195 -109 194 -336q0 -219 -148.5 -343t-359.5 -124t-359.5 124t-148.5 343zM406 467q0 -68 47 -118t116.5 -50t116.5 50t47 118t-47 118t-116.5 50 t-116.5 -50t-47 -118zM426 1032.5q0 -59.5 41 -101.5t102.5 -42t102.5 42t41 101.5t-41 101.5t-102.5 42t-102.5 -42t-41 -101.5z" />
<glyph unicode="9" d="M63 928q0 240 139.5 385t379.5 145q221 0 356 -140t135 -362q0 -135 -112 -344l-328 -612h-389l422 793q63 117 63 170q0 63 -43 107t-108 44q-82 0 -126 -48t-44 -126q0 -74 47 -118t118 -48l-182 -319q-152 59 -240 184t-88 289z" />
<glyph unicode=":" horiz-adv-x="569" d="M76 184q0 86 60.5 147.5t148.5 61.5t148.5 -61.5t60.5 -147.5t-60.5 -147.5t-148.5 -61.5t-148.5 61.5t-60.5 147.5zM76 786q0 86 60.5 147.5t148.5 61.5t148.5 -61.5t60.5 -147.5t-60.5 -147t-148.5 -61t-148.5 61t-60.5 147z" />
<glyph unicode=";" horiz-adv-x="569" d="M18 -303l111 606h348l-209 -606h-250zM76 786q0 86 60.5 147.5t148.5 61.5t148.5 -61.5t60.5 -147.5t-60.5 -147t-148.5 -61t-148.5 61t-60.5 147z" />
<glyph unicode="&#x3c;" horiz-adv-x="1228" d="M115 406v184l999 422v-228l-692 -286l692 -287v-227z" />
<glyph unicode="=" horiz-adv-x="1228" d="M117 141v238h995v-238h-995zM117 616v238h995v-238h-995z" />
<glyph unicode="&#x3e;" horiz-adv-x="1228" d="M115 -16v227l692 287l-692 286v228l999 -422v-184z" />
<glyph unicode="?" d="M80 1106q39 162 170 257t301 95q207 0 344 -134t137 -341q0 -143 -92 -256t-231 -147v-123h-328v401h98q76 0 134.5 40t58.5 114q0 45 -36 84t-79 39q-63 0 -97 -31t-54 -94zM342 184q0 86 60.5 147.5t148.5 61.5t148.5 -61.5t60.5 -147.5t-60.5 -147.5t-148.5 -61.5 t-148.5 61.5t-60.5 147.5z" />
<glyph unicode="@" horiz-adv-x="1638" d="M90 715q0 315 222.5 529t539.5 214q178 0 334.5 -71.5t258 -212t101.5 -318.5q0 -129 -43 -233.5t-104.5 -166t-136 -102.5t-132 -56t-96.5 -15q-43 0 -72.5 25.5t-31.5 70.5l-4 4q-86 -100 -191 -100q-131 0 -230 106.5t-99 249.5q0 182 112.5 318.5t288.5 136.5 q160 0 244 -117l18 96h188l-88 -473q-27 -111 15 -111q72 0 128 78t56 226q0 233 -143.5 357t-378.5 124q-246 0 -392.5 -155.5t-146.5 -403.5q0 -258 158 -406.5t416 -148.5q221 0 376 116h195q-219 -301 -588 -301q-324 0 -549 210.5t-225 529.5zM641 672q0 -72 40 -118 t110 -46q90 0 146 61.5t56 147.5q0 72 -43 116t-114 44q-82 0 -138.5 -62.5t-56.5 -142.5z" />
<glyph unicode="A" horiz-adv-x="1251" d="M123 0v942q0 231 139 373.5t362.5 142.5t362.5 -142t139 -374v-942h-356v500h-223v323h223v135q0 80 -40 128.5t-105.5 48.5t-105.5 -48.5t-40 -128.5v-958h-356z" />
<glyph unicode="B" horiz-adv-x="1251" d="M121 0v928q0 252 138 391t372 139q240 0 354.5 -126t114.5 -306q0 -68 -42 -145.5t-95 -112.5q209 -98 208 -358q0 -190 -123.5 -300t-318.5 -110h-178v332q129 0 182 27.5t53 99.5q0 74 -59 102.5t-176 28.5v299q82 0 129 29.5t47 78.5q0 129 -117 129 q-68 0 -100.5 -39.5t-32.5 -103.5v-983h-356z" />
<glyph unicode="C" horiz-adv-x="1024" d="M68 717q0 299 189 508t474 209h215v-344h-149q-158 0 -257.5 -95.5t-99.5 -277.5t99.5 -277.5t257.5 -95.5h149v-344h-215q-285 0 -474 209t-189 508z" />
<glyph unicode="D" horiz-adv-x="1366" d="M117 0v1434h362q375 0 587 -208t212 -521q0 -307 -205 -506t-514 -199v344q150 0 252 105.5t102 250.5q0 195 -123.5 292.5t-316.5 97.5v-1090h-356z" />
<glyph unicode="E" horiz-adv-x="1024" d="M68 717q0 303 185 510t470 207h203v-332q-170 0 -254 -18.5t-130 -63.5t-93 -148h477v-311h-477q70 -154 150.5 -191.5t326.5 -37.5v-332h-203q-285 0 -470 207t-185 510z" />
<glyph unicode="F" horiz-adv-x="909" d="M100 0v995q0 190 116 314.5t308 124.5h336v-344h-278q-70 0 -97.5 -27t-27.5 -84v-135h403v-332h-403v-512h-357z" />
<glyph unicode="G" horiz-adv-x="1593" d="M68 717q0 303 213 522t516 219q340 0 596 -229l-250 -248q-86 74 -157 103.5t-171 29.5q-174 0 -274.5 -112.5t-100.5 -280.5q0 -172 108.5 -287t274.5 -115q92 0 186.5 72t129.5 174h-359v324h748v-152q0 -199 -87 -370.5t-257 -281.5t-387 -110q-303 0 -516 219.5 t-213 522.5z" />
<glyph unicode="H" horiz-adv-x="1251" d="M127 0v1434h356v-502h283v502h356v-1434h-356v588h-283v-588h-356z" />
<glyph unicode="I" horiz-adv-x="569" d="M106 0v1434h357v-1434h-357z" />
<glyph unicode="J" horiz-adv-x="796" d="M0 0v344h143q106 0 144.5 32t38.5 120v938h356v-881q0 -113 -13.5 -196t-36 -143t-68.5 -99t-92 -62.5t-127 -35t-153.5 -14.5t-191.5 -3z" />
<glyph unicode="K" horiz-adv-x="1251" d="M129 0v1434h356v-494q53 2 80 14.5t45 51.5l205 428h408l-203 -420q-59 -123 -135 -172q260 -70 260 -310v-532h-373v455q0 102 -53 127.5t-234 25.5v-608h-356z" />
<glyph unicode="L" horiz-adv-x="909" d="M104 463v971h357v-938q0 -88 38 -120t144 -32h244v-344h-273q-264 0 -387 108.5t-123 354.5z" />
<glyph unicode="M" horiz-adv-x="1593" d="M35 0l115 1147q16 168 72.5 239.5t207.5 71.5q217 0 256 -262l105 -690h10l104 690q39 262 256 262q152 0 208 -71.5t73 -239.5l114 -1147h-339l-64 1167h-4v-32l-176 -975q-16 -84 -64.5 -134.5t-114 -50.5t-113.5 50.5t-65 134.5l-176 975h-4l-61 -1135h-340z" />
<glyph unicode="N" horiz-adv-x="1366" d="M115 0v1262q0 86 60.5 141t150.5 55t147 -36t98 -115l318 -631h4v758h356v-1250q0 -94 -57 -151.5t-131 -57.5t-130.5 47.5t-123.5 178.5l-332 639h-4v-840h-356z" />
<glyph unicode="O" horiz-adv-x="1593" d="M68 717q0 303 213 522t516 219t516 -219t213 -522t-213 -522.5t-516 -219.5t-516 219.5t-213 522.5zM428 716.5q0 -155.5 106.5 -266t262 -110.5t262 110.5t106.5 266t-106.5 266.5t-262 111t-262 -111t-106.5 -266.5z" />
<glyph unicode="P" d="M100 0v928q0 252 138.5 391t371.5 139q203 0 344.5 -136t141.5 -347q0 -227 -131 -365.5t-359 -138.5h-90v332q117 0 170 33.5t53 138.5q0 63 -41 107t-108 44q-61 0 -97 -38.5t-36 -104.5v-983h-357z" />
<glyph unicode="Q" horiz-adv-x="1593" d="M68 717q0 303 213 522t516 219t516 -219t213 -522q0 -258 -158 -461t-401 -262v-178h-328v737h328v-170q90 45 144 135t54 199q0 156 -106.5 266.5t-262 110.5t-262 -111t-106.5 -266q0 -90 36 -170t101 -127v-408q-221 74 -359 269.5t-138 435.5z" />
<glyph unicode="R" horiz-adv-x="1251" d="M109 0v928q0 252 138 391t371 139q215 0 347.5 -113.5t132.5 -312.5q0 -270 -244 -295v-4q66 -14 98.5 -24.5t79.5 -36t67.5 -69.5t20.5 -107v-496h-360v434q0 63 -48 88t-167 25v323q100 2 146 33t46 111q0 55 -39 83.5t-88 28.5q-66 0 -97.5 -46t-31.5 -150v-930h-372z " />
<glyph unicode="S" horiz-adv-x="1024" d="M61 1028q0 209 124 307.5t311 98.5h372v-332h-360q-82 0 -82 -60q0 -33 55.5 -76.5t133 -95t156.5 -113t134.5 -147.5t55.5 -180q0 -66 -8.5 -117t-39 -112.5t-82 -103.5t-148.5 -69.5t-228 -27.5h-383v332h370q133 0 133 78q0 41 -53 88t-128 97t-150.5 108.5 t-129 143.5t-53.5 181z" />
<glyph unicode="T" horiz-adv-x="909" d="M14 1090v344h881v-344h-262v-1090h-357v1090h-262z" />
<glyph unicode="U" horiz-adv-x="1251" d="M102 518v916h357v-945q0 -170 166 -170t166 170v945h356v-916q0 -248 -139.5 -395.5t-383 -147.5t-383 147.5t-139.5 395.5z" />
<glyph unicode="V" d="M-16 1434h374l199 -1000h4l221 1000h373l-276 -1094q-53 -207 -120 -286t-206 -79q-133 0 -200.5 80t-114.5 281z" />
<glyph unicode="W" horiz-adv-x="1820" d="M129 424v1010h356v-951q0 -164 123 -164t123 164v951h356v-951q0 -164 123 -164t123 164v951h357v-1010q0 -195 -121 -322t-346 -127q-217 0 -314 140q-96 -139 -313 -140q-225 0 -346 127t-121 322z" />
<glyph unicode="X" d="M33 0v332q164 0 261 111.5t97 273.5t-97 273.5t-261 111.5v332q205 0 329.5 -62.5t206.5 -218.5q82 156 207 218.5t330 62.5v-332q-164 0 -261 -111.5t-97 -273.5t97 -273.5t261 -111.5v-332q-205 0 -330 62.5t-207 218.5q-82 -156 -206.5 -218.5t-329.5 -62.5z" />
<glyph unicode="Y" d="M102 926v508h357v-476q0 -139 110.5 -139t110.5 139v476h356v-508q0 -147 -70.5 -257t-209.5 -157v-512h-357v512q-154 43 -225.5 160t-71.5 254z" />
<glyph unicode="Z" d="M78 217q0 18 3 36.5t12 41t15.5 38t24 43t24.5 39t29.5 46.5t28.5 45l375 584h-432v344h626q139 0 199.5 -54.5t60.5 -162.5q0 -39 -13 -78t-26.5 -64.5t-43.5 -75.5l-410 -655h508v-344h-750q-104 0 -167.5 58.5t-63.5 158.5z" />
<glyph unicode="[" horiz-adv-x="681" d="M156 -446v1880h446v-131h-184v-1618h184v-131h-446z" />
<glyph unicode="\" horiz-adv-x="569" d="M-139 1458h237l611 -1483h-238z" />
<glyph unicode="]" horiz-adv-x="681" d="M80 -315h184v1618h-184v131h446v-1880h-446v131z" />
<glyph unicode="^" horiz-adv-x="1228" d="M150 686l356 748h217l356 -748h-239l-226 508l-227 -508h-237z" />
<glyph unicode="_" horiz-adv-x="1024" d="M0 -154h1024v-102h-1024v102z" />
<glyph unicode="`" horiz-adv-x="569" d="M-135 1448h426l205 -303h-281z" />
<glyph unicode="a" horiz-adv-x="1251" d="M55 496q0 225 155 374.5t392 149.5q244 0 404.5 -128t160.5 -355v-537h-327v459q0 262 -232 262q-90 0 -157.5 -62.5t-67.5 -154.5q0 -106 65.5 -168t151.5 -62q84 0 158 29v-270q-82 -57 -223 -58q-176 0 -328 141.5t-152 379.5z" />
<glyph unicode="b" horiz-adv-x="1251" d="M84 459v975h328v-895q0 -119 59 -192t172 -73q96 0 160.5 62.5t64.5 161t-64.5 161t-160.5 62.5q-88 0 -137 -29v303q61 25 160 25q211 0 370.5 -139.5t159.5 -380.5q0 -225 -154.5 -375t-392.5 -150q-233 0 -399 128.5t-166 355.5z" />
<glyph unicode="c" horiz-adv-x="796" d="M43 498q0 223 143.5 360t333.5 137h197v-297h-139q-100 0 -153.5 -53t-53.5 -147.5t53 -148.5t154 -54h139v-295h-197q-190 0 -333.5 136.5t-143.5 361.5z" />
<glyph unicode="d" horiz-adv-x="1251" d="M55 500q0 242 160 381t371 139q98 0 159 -25v-303q-49 29 -137 29q-96 0 -160.5 -62.5t-64.5 -161t64.5 -161t160.5 -62.5q113 0 172.5 73t59.5 192v895h327v-975q0 -227 -165.5 -355.5t-399.5 -128.5q-238 0 -392.5 150t-154.5 375z" />
<glyph unicode="e" d="M49 498q0 213 153.5 367.5t360.5 154.5q313 0 488 -318l-494 -340l-125 197l268 176q-55 35 -127 35q-94 0 -151 -79t-57 -177t62 -175t159 -77q88 0 171 66.5t122 156.5l235 -120q-72 -174 -220.5 -282t-330.5 -108q-207 0 -360.5 155t-153.5 368z" />
<glyph unicode="f" horiz-adv-x="681" d="M86 0v1073q0 158 109.5 259.5t291.5 101.5h181v-299h-152q-59 0 -80.5 -32t-21.5 -99h254v-299h-254v-705h-328z" />
<glyph unicode="g" d="M49 502q0 207 136.5 362.5t359.5 155.5q233 0 372.5 -150.5t139.5 -410.5v-355q0 -279 -138.5 -414.5t-420.5 -135.5q-166 0 -308 47v307q150 -55 297 -55q254 0 254 188v463q0 98 -49 157.5t-145 59.5q-82 0 -138.5 -59.5t-56.5 -145.5q0 -92 53.5 -154.5t143.5 -62.5 q66 0 129 29v-310q-76 -18 -182 -18q-186 0 -316.5 148.5t-130.5 353.5z" />
<glyph unicode="h" horiz-adv-x="1024" d="M72 0v1434h327v-467q100 53 191 53q176 0 269 -114.5t93 -270.5v-635h-327v580q0 61 -31 93t-82 32t-82 -32t-31 -93v-580h-327z" />
<glyph unicode="i" horiz-adv-x="569" d="M98 1272q0 80 54.5 133t132 53t132 -53t54.5 -133t-54.5 -133.5t-132 -53.5t-132 53.5t-54.5 133.5zM121 0v995h328v-995h-328z" />
<glyph unicode="j" horiz-adv-x="569" d="M-74 -143q123 0 156 21.5t33 88.5v1028h327v-1024q0 -238 -117.5 -327.5t-398.5 -89.5v303zM92 1272q0 80 54.5 133t132 53t132 -53t54.5 -133t-54.5 -133.5t-132 -53.5t-132 53.5t-54.5 133.5z" />
<glyph unicode="k" horiz-adv-x="1024" d="M82 0v1434h328v-744q78 0 114.5 49t106.5 256h336l-93 -262q-47 -137 -126 -155v-5q127 -41 168.5 -111.5t41.5 -195.5v-266h-315v256q0 68 -35 101.5t-92 33.5h-106v-391h-328z" />
<glyph unicode="l" horiz-adv-x="569" d="M121 0v1434h328v-1434h-328z" />
<glyph unicode="m" horiz-adv-x="1593" d="M96 0v643q0 168 123 272.5t295 104.5q158 0 283 -139q125 139 282 139q172 0 295 -104.5t123 -272.5v-643h-328v590q0 115 -104 115t-104 -115v-590h-328v590q0 115 -104.5 115t-104.5 -115v-590h-328z" />
<glyph unicode="n" horiz-adv-x="1024" d="M84 0v569q0 201 112.5 326t315.5 125t315.5 -125t112.5 -326v-569h-315v569q0 66 -31 103t-82 37t-82 -37t-31 -103v-569h-315z" />
<glyph unicode="o" d="M55 498q0 213 153.5 367.5t360.5 154.5t360.5 -154.5t153.5 -367.5t-153.5 -368t-360.5 -155t-360.5 155t-153.5 368zM371 498q0 -88 57 -149.5t141 -61.5t141.5 61.5t57.5 149.5t-57.5 149.5t-141.5 61.5t-141 -61.5t-57 -149.5z" />
<glyph unicode="p" horiz-adv-x="1251" d="M84 -430v967q0 227 166 355t399 128q238 0 392.5 -149.5t154.5 -374.5q0 -242 -159.5 -381.5t-370.5 -139.5q-98 0 -160 25v303q49 -29 137 -29q96 0 160.5 62.5t64.5 161t-64.5 161t-160.5 62.5q-113 0 -172 -73t-59 -191v-887h-328z" />
<glyph unicode="q" horiz-adv-x="1251" d="M55 496q0 225 155 374.5t392 149.5q233 0 399 -128t166 -355v-967h-327v887q0 119 -59.5 191.5t-172.5 72.5q-96 0 -160.5 -62.5t-64.5 -161t64.5 -161t160.5 -62.5q88 0 137 29v-303q-61 -25 -159 -25q-211 0 -371 139.5t-160 381.5z" />
<glyph unicode="r" horiz-adv-x="681" d="M76 0v995h284v-166h5q35 98 101 132t185 34v-299q-164 -6 -206 -50t-42 -179v-467h-327z" />
<glyph unicode="s" horiz-adv-x="796" d="M43 0v279h315q57 0 58 45q0 25 -37 44t-91.5 39.5t-107.5 52.5t-90 96.5t-37 156.5q0 133 96.5 207.5t223.5 74.5h319v-266h-256q-29 0 -48 -13.5t-19 -33.5t40 -42t96 -46.5t111.5 -57t95.5 -91t40 -132.5q0 -152 -90.5 -232.5t-251.5 -80.5h-367z" />
<glyph unicode="t" horiz-adv-x="681" d="M78 356v885h317v-237h232v-299h-234v-267q0 -84 35 -109.5t133 -29.5q25 0 70 4v-303h-185q-178 0 -273 102t-95 254z" />
<glyph unicode="u" horiz-adv-x="1024" d="M84 426v569h315v-569q0 -66 31 -102.5t82 -36.5t82 36.5t31 102.5v569h315v-569q0 -201 -112.5 -326t-315.5 -125t-315.5 125t-112.5 326z" />
<glyph unicode="v" horiz-adv-x="909" d="M-12 995h329l138 -655h4l131 655h334l-222 -749q-18 -61 -32.5 -97t-42 -82.5t-71.5 -69t-101 -22.5q-121 0 -175.5 68t-89.5 203z" />
<glyph unicode="w" horiz-adv-x="1593" d="M96 352v643h328v-589q0 -115 104.5 -115t104.5 115v589h328v-589q0 -115 104 -115t104 115v589h328v-643q0 -168 -123 -272.5t-295 -104.5q-76 0 -151.5 38t-130.5 102q-55 -63 -131 -101.5t-152 -38.5q-172 0 -295 104.5t-123 272.5z" />
<glyph unicode="x" horiz-adv-x="909" d="M45 0v287q125 0 188.5 47t63.5 163.5t-63.5 164t-188.5 47.5v286q68 0 103.5 -1t88 -10t85 -25.5t68.5 -49t65 -80.5q29 47 64.5 80t68.5 49.5t85 25.5t88 10t103 1v-286q-125 0 -188.5 -47.5t-63.5 -164t63.5 -163.5t188.5 -47v-287q-68 0 -103.5 1t-87.5 10t-85 25.5 t-69 49.5t-64 80q-29 -47 -65 -80t-68.5 -49.5t-85 -25.5t-88 -10t-103.5 -1z" />
<glyph unicode="y" horiz-adv-x="1024" d="M82 356v639h315v-577q0 -139 119 -139q66 0 88.5 38.5t22.5 114.5v563h315v-639q0 -141 -70.5 -233t-191.5 -131v-422h-328v422q-270 81 -270 364z" />
<glyph unicode="z" horiz-adv-x="909" d="M27 188q0 78 51 136l350 385h-344v286h518q143 0 198.5 -49t55.5 -145q0 -63 -74 -152l-301 -350h373v-299h-641q-92 0 -139 50t-47 138z" />
<glyph unicode="{" horiz-adv-x="681" d="M-23 403v199q37 0 75 6t81 36t43 81v420q0 135 86 212t201 77h207v-129h-113q-66 0 -92.5 -28t-26.5 -103v-476q0 -53 -23.5 -93t-59.5 -59.5t-64.5 -28.5t-52.5 -11v-6q33 -4 55 -10.5t62 -26t61.5 -63.5t21.5 -109v-484q0 -123 119 -122h113v-131h-191 q-137 0 -220 81.5t-83 208.5v420q0 45 -22.5 75t-59.5 43t-63.5 17t-53.5 4z" />
<glyph unicode="|" horiz-adv-x="454" d="M109 0v1434h237v-1434h-237z" />
<glyph unicode="}" horiz-adv-x="681" d="M12 -315h113q119 0 119 122v484q0 66 21.5 109.5t61.5 63t62.5 26t54.5 10.5v6q-25 2 -53.5 11t-64 28.5t-59 59.5t-23.5 93v476q0 76 -27 103.5t-92 27.5h-113v129h207q115 0 201 -77t86 -212v-420q0 -51 43 -81t81 -36t75 -6v-199q-27 0 -53.5 -4t-63.5 -17t-59.5 -43 t-22.5 -75v-420q0 -127 -83 -208.5t-220 -81.5h-191v131z" />
<glyph unicode="~" horiz-adv-x="1228" d="M141 504q92 176 256 176q84 0 236 -70q156 -70 201 -69q39 0 74.5 24.5t55 50t50.5 72.5l73 -196q-41 -55 -67.5 -86t-77.5 -61t-111 -30q-78 0 -213 70t-231 70q-104 0 -172 -148z" />
<glyph unicode="&#xa1;" horiz-adv-x="681" d="M133 827q0 86 60.5 147.5t148.5 61.5t148.5 -61.5t60.5 -147.5t-60.5 -147.5t-148.5 -61.5t-148.5 61.5t-60.5 147.5zM150 -422l28 981h328l29 -981h-385z" />
<glyph unicode="&#xa2;" d="M139 794.5q0 155.5 96.5 278.5t249.5 144v286h205v-282h139v-258h-239q-74 -2 -123 -46.5t-49 -122t49 -121.5t123 -46h239v-258h-139v-283h-205v287q-154 20 -250 143t-96 278.5z" />
<glyph unicode="&#xa3;" d="M0 0v344q129 0 163 51t34 234h-121v303h121q0 289 121.5 407.5t357.5 118.5h182v-323h-153q-88 0 -126 -47.5t-38 -159.5h170v-299h-170q2 -121 -14.5 -181.5t-61.5 -109.5q14 0 39.5 2t47 3t40.5 1q141 0 182 64.5t47 220.5h328v-113q0 -246 -142.5 -381t-347.5 -135 h-659z" />
<glyph unicode="&#xa4;" d="M33 315l114 115q-86 92 -86 286.5t86 287.5l-114 114l139 139l119 -118q94 86 278.5 86t278.5 -86l119 118l139 -139l-115 -114q86 -92 86 -287t-86 -287l115 -115l-139 -139l-119 119q-94 -86 -278.5 -86t-278.5 86l-119 -119zM307 717q0 -119 75 -201t187.5 -82t187 82 t74.5 201t-74.5 200.5t-187 81.5t-187.5 -81.5t-75 -200.5z" />
<glyph unicode="&#xa5;" d="M49 1102v332q193 0 310.5 -62.5t195.5 -218.5q78 156 195.5 218.5t310.5 62.5v-332q-207 0 -295 -189h182v-196h-225v-123h225v-197h-225v-397h-336v397h-225v197h225v123h-225v196h182q-88 189 -295 189z" />
<glyph unicode="&#xa6;" horiz-adv-x="454" d="M109 0v537h237v-537h-237zM109 897v537h237v-537h-237z" />
<glyph unicode="&#xa7;" d="M98 715q0 104 66.5 170.5t169.5 68.5v4q-102 72 -103 222q0 135 109 206.5t250 71.5q117 0 219 -57.5t160 -155.5l-207 -133q-8 10 -25.5 32.5t-24.5 31t-22.5 23.5t-29 21.5t-33 11.5t-43.5 5q-37 0 -55.5 -25.5t-18.5 -62.5t83 -101.5t181 -129t181 -166t83 -203.5 q0 -90 -59 -158.5t-158 -87.5q39 -31 69 -94.5t30 -112.5q0 -156 -107.5 -232.5t-269.5 -76.5q-115 0 -219.5 58.5t-163.5 156.5l219 162q18 -63 63 -109.5t105 -46.5q35 0 58.5 26.5t23.5 61.5q0 33 -39 76t-98.5 84t-128 94t-128 105.5t-98.5 121t-39 138.5zM365 733 q0 -55 143 -167.5t192 -112.5q27 0 49.5 19.5t22.5 51.5q0 43 -139 161t-197 118q-71 0 -71 -70z" />
<glyph unicode="&#xa8;" horiz-adv-x="569" d="M-123 1286q0 72 50 122t122 50t122 -50t50 -122t-50 -122t-122 -50t-122 50t-50 122zM346 1286q0 72 50 122t122 50t122 -50t50 -122t-50 -122t-122 -50t-122 50t-50 122z" />
<glyph unicode="&#xa9;" horiz-adv-x="1638" d="M49 717q0 338 227.5 539.5t542.5 201.5q203 0 376 -85t283.5 -257t110.5 -399.5t-110.5 -399.5t-283.5 -257t-376 -85q-315 0 -542.5 202t-227.5 540zM295 717q0 -246 151.5 -401.5t372.5 -155.5q219 0 371.5 156.5t152.5 400.5t-152.5 400.5t-371.5 156.5 q-221 0 -372.5 -155.5t-151.5 -401.5zM440 723q0 188 109.5 308t296.5 120q137 0 232.5 -79t117.5 -226h-180q-23 121 -170 121q-88 0 -136 -63.5t-48 -176.5q0 -106 52 -176t136 -70q158 0 166 127h188q-20 -147 -119.5 -229t-234.5 -82q-182 0 -296 122t-114 304z" />
<glyph unicode="&#xaa;" horiz-adv-x="751" d="M8 1143q0 135 100.5 225t253.5 90q160 0 263.5 -76.5t103.5 -214.5v-321h-213v274q0 158 -149 158q-57 0 -101.5 -38t-44.5 -91q0 -66 42 -102.5t99 -36.5q47 0 103 18v-162q-53 -35 -146 -35q-115 0 -213 84.5t-98 227.5z" />
<glyph unicode="&#xab;" d="M109 498l245 315h250l-246 -315l242 -316h-246zM535 498l245 315h250l-246 -315l242 -316h-246z" />
<glyph unicode="&#xac;" horiz-adv-x="1228" d="M117 616v238h995v-623h-238v385h-757z" />
<glyph unicode="&#xad;" horiz-adv-x="681" d="M84 360v275h512v-275h-512z" />
<glyph unicode="&#xae;" horiz-adv-x="1638" d="M49 717q0 338 227.5 539.5t542.5 201.5q203 0 376 -85t283.5 -257t110.5 -399.5t-110.5 -399.5t-283.5 -257t-376 -85q-315 0 -542.5 202t-227.5 540zM295 717q0 -246 151.5 -401.5t372.5 -155.5q219 0 371.5 156.5t152.5 400.5t-152.5 400.5t-371.5 156.5 q-221 0 -372.5 -155.5t-151.5 -401.5zM516 315v805h301q168 0 253 -55t85 -191q0 -201 -225 -210l205 -349h-185l-182 336h-68v-336h-184zM700 795h154q55 0 82 21.5t27 78.5q0 82 -127 82h-136v-182z" />
<glyph unicode="&#xaf;" horiz-adv-x="569" d="M-100 1204v185h772v-185h-772z" />
<glyph unicode="&#xb0;" horiz-adv-x="819" d="M117 1165q0 123 85 208t207.5 85t207.5 -85t85 -208t-85 -208t-207.5 -85t-207.5 85t-85 208zM244 1165.5q0 -73.5 46 -124t119.5 -50.5t119.5 50.5t46 124t-46 123.5t-119.5 50t-119.5 -50t-46 -123.5z" />
<glyph unicode="&#xb1;" horiz-adv-x="1228" d="M117 0v238h995v-238h-995zM117 526v238h379v231h237v-231h379v-238h-379v-231h-237v231h-379z" />
<glyph unicode="&#xb2;" horiz-adv-x="681" d="M27 717q0 41 60 111.5t133 133t133.5 127t60.5 97.5q0 78 -82 78q-35 0 -57.5 -20.5t-22.5 -55.5q0 -49 43 -80l-150 -139q-106 76 -106 200q0 127 82 208t215 81q135 0 218 -76.5t83 -207.5q0 -23 -4 -44.5t-9.5 -38t-21.5 -39t-27.5 -37t-43.5 -45.5l-50 -50 q-18 -18 -66 -63.5t-79 -74.5h317v-198h-471q-155 0 -155 133z" />
<glyph unicode="&#xb3;" horiz-adv-x="681" d="M31 584v198h284q63 0 88 19.5t25 66.5q0 33 -21.5 56.5t-56.5 23.5h-198v125l213 172v4h-310v195h355q197 0 196 -139q0 -27 -20.5 -61t-40 -53.5t-58 -54t-43.5 -38.5q94 -18 150.5 -83t56.5 -153q0 -141 -91 -209.5t-251 -68.5h-278z" />
<glyph unicode="&#xb4;" horiz-adv-x="569" d="M76 1145l205 303h426l-351 -303h-280z" />
<glyph unicode="&#xb5;" horiz-adv-x="1024" d="M84 -430v1425h315v-569q0 -66 31 -102.5t82 -36.5t82 36.5t31 102.5v569h315v-569q0 -201 -112.5 -326t-315.5 -125q-74 0 -113 13v-418h-315z" />
<glyph unicode="&#xb6;" horiz-adv-x="1269" d="M-35 1069q0 205 132 285t372 80h643v-1825h-246v1640h-198v-1640h-246v1110q-221 0 -339 92t-118 258z" />
<glyph unicode="&#xb7;" horiz-adv-x="569" d="M76 498q0 86 60.5 147.5t148.5 61.5t148.5 -61.5t60.5 -147.5t-60.5 -147.5t-148.5 -61.5t-148.5 61.5t-60.5 147.5z" />
<glyph unicode="&#xb8;" horiz-adv-x="569" d="M14 -387l43 94q125 -43 176 -43q47 0 77 23.5t30 58.5q0 27 -32 47.5t-66 20.5q-10 0 -72 -21l-51 49l112 189h119l-80 -131q33 8 76 8q76 0 137.5 -42t61.5 -114q0 -96 -87 -147t-190 -51q-109 0 -254 59z" />
<glyph unicode="&#xb9;" horiz-adv-x="681" d="M98 1245v199h367v-860h-217v661h-150z" />
<glyph unicode="&#xba;" horiz-adv-x="684" d="M16 1145q0 129 99.5 221t234.5 92t234.5 -92t99.5 -221t-99.5 -221.5t-234.5 -92.5t-234.5 92.5t-99.5 221.5zM221 1145q0 -53 37 -91t92.5 -38t92 38t36.5 91q0 51 -38 90t-91 39q-55 0 -92 -39t-37 -90z" />
<glyph unicode="&#xbb;" d="M109 813h249l246 -315l-246 -316h-245l241 316zM535 813h249l246 -315l-246 -316h-245l241 316z" />
<glyph unicode="&#xbc;" horiz-adv-x="1708" d="M57 1245v199h367v-860h-217v661h-150zM301 -25l811 1483h219l-811 -1483h-219zM946 305q0 55 39 115l266 432h217l-297 -483h162v184l187 297l16 24q2 0 2 -28v-477h104v-199h-104v-170h-205v170h-246q-57 0 -99 37t-42 98z" />
<glyph unicode="&#xbd;" horiz-adv-x="1708" d="M57 1245v199h367v-860h-217v661h-150zM254 -25l811 1483h219l-811 -1483h-219zM1012 133q0 41 61.5 111.5t134 133t134 127t61.5 97.5q0 78 -86 78q-35 0 -56.5 -23.5t-21.5 -52.5q0 -51 41 -80l-150 -139q-109 78 -108 201q0 127 83 209t216 82t216 -78t83 -209 q0 -23 -4 -43.5t-9 -37.5t-21.5 -40t-28 -38t-42 -46t-50 -49.5t-66.5 -63.5t-78 -75h317v-197h-471q-155 0 -155 133z" />
<glyph unicode="&#xbe;" horiz-adv-x="1708" d="M31 584v198h284q63 0 88 19.5t25 66.5q0 33 -21.5 56.5t-56.5 23.5h-198v125l213 172v4h-310v195h355q197 0 196 -139q0 -27 -20.5 -61t-40 -53.5t-58 -54t-43.5 -38.5q94 -18 150.5 -83t56.5 -153q0 -141 -91 -209.5t-251 -68.5h-278zM365 -25l811 1483h219l-811 -1483 h-219zM946 305q0 55 39 115l266 432h217l-297 -483h162v184l187 297l16 24q2 0 2 -28v-477h104v-199h-104v-170h-205v170h-246q-57 0 -99 37t-42 98z" />
<glyph unicode="&#xbf;" d="M106 29q0 143 92.5 255.5t231.5 147.5v123h328v-401h-99q-76 0 -134 -40t-58 -114q0 -45 36 -84t79 -39q63 0 97 31t54 94l326 -96q-39 -162 -170 -257t-301 -95q-207 0 -344.5 134t-137.5 341zM379 827q0 86 60.5 147.5t148.5 61.5t148.5 -61.5t60.5 -147.5 t-60.5 -147.5t-148.5 -61.5t-148.5 61.5t-60.5 147.5z" />
<glyph unicode="&#xc0;" horiz-adv-x="1251" d="M123 0v942q0 231 139 373.5t362.5 142.5t362.5 -142t139 -374v-942h-356v500h-223v323h223v135q0 80 -40 128.5t-105.5 48.5t-105.5 -48.5t-40 -128.5v-958h-356zM207 1829h426l205 -303h-281z" />
<glyph unicode="&#xc1;" horiz-adv-x="1251" d="M123 0v942q0 231 139 373.5t362.5 142.5t362.5 -142t139 -374v-942h-356v500h-223v323h223v135q0 80 -40 128.5t-105.5 48.5t-105.5 -48.5t-40 -128.5v-958h-356zM418 1526l205 303h426l-351 -303h-280z" />
<glyph unicode="&#xc2;" horiz-adv-x="1251" d="M123 0v942q0 231 139 373.5t362.5 142.5t362.5 -142t139 -374v-942h-356v500h-223v323h223v135q0 80 -40 128.5t-105.5 48.5t-105.5 -48.5t-40 -128.5v-958h-356zM211 1526l248 303h336l249 -303h-305l-112 153l-115 -153h-301z" />
<glyph unicode="&#xc3;" horiz-adv-x="1251" d="M123 0v942q0 231 139 373.5t362.5 142.5t362.5 -142t139 -374v-942h-356v500h-223v323h223v135q0 80 -40 128.5t-105.5 48.5t-105.5 -48.5t-40 -128.5v-958h-356zM225 1528q10 109 79 198t173 89q70 0 168 -40t127 -40q68 0 92 75h162q-31 -272 -268 -272 q-61 0 -157.5 38t-129.5 38q-31 0 -54.5 -29t-29.5 -57h-162z" />
<glyph unicode="&#xc4;" horiz-adv-x="1251" d="M123 0v942q0 231 139 373.5t362.5 142.5t362.5 -142t139 -374v-942h-356v500h-223v323h223v135q0 80 -40 128.5t-105.5 48.5t-105.5 -48.5t-40 -128.5v-958h-356zM219 1667q0 72 50 122t122 50t122 -50t50 -122t-50 -122t-122 -50t-122 50t-50 122zM688 1667q0 72 50 122 t122 50t122 -50t50 -122t-50 -122t-122 -50t-122 50t-50 122z" />
<glyph unicode="&#xc5;" horiz-adv-x="1251" d="M123 0v942q0 231 139 373.5t362.5 142.5t362.5 -142t139 -374v-942h-356v500h-223v323h223v135q0 80 -40 128.5t-105.5 48.5t-105.5 -48.5t-40 -128.5v-958h-356zM395 1749q0 94 68.5 161.5t163 67.5t163 -67.5t68.5 -161.5t-68.5 -161.5t-163 -67.5t-163 67.5 t-68.5 161.5zM526 1749q0 -39 31 -68.5t70 -29.5t69.5 29.5t30.5 68.5t-30.5 68.5t-69.5 29.5t-70 -29.5t-31 -68.5z" />
<glyph unicode="&#xc6;" horiz-adv-x="1820" d="M104 0v942q0 231 139.5 373.5t362.5 142.5q256 0 430 -180q158 156 459 156h227v-320h-180q-133 0 -236.5 -60.5t-144.5 -172.5h561v-324h-561q41 -113 144.5 -173t236.5 -60h180v-324h-227q-135 0 -209 26.5t-170 114.5v-141h-356v557h-234v324h234v129q0 53 -43 89 t-111 36q-66 0 -105.5 -48.5t-39.5 -128.5v-958h-357z" />
<glyph unicode="&#xc7;" horiz-adv-x="1024" d="M68 717q0 299 189 508t474 209h215v-344h-149q-158 0 -257.5 -95.5t-99.5 -277.5t99.5 -277.5t257.5 -95.5h149v-344h-215q-285 0 -474 209t-189 508zM360 -387l43 94q125 -43 177 -43q47 0 76.5 23.5t29.5 58.5q0 27 -31.5 47.5t-66.5 20.5q-10 0 -72 -21l-51 49 l113 189h118l-80 -131q33 8 76 8q76 0 137.5 -42t61.5 -114q0 -96 -87 -147t-190 -51q-109 0 -254 59z" />
<glyph unicode="&#xc8;" horiz-adv-x="1024" d="M68 717q0 303 185 510t470 207h203v-332q-170 0 -254 -18.5t-130 -63.5t-93 -148h477v-311h-477q70 -154 150.5 -191.5t326.5 -37.5v-332h-203q-285 0 -470 207t-185 510zM199 1829h426l204 -303h-280z" />
<glyph unicode="&#xc9;" horiz-adv-x="1024" d="M68 717q0 303 185 510t470 207h203v-332q-170 0 -254 -18.5t-130 -63.5t-93 -148h477v-311h-477q70 -154 150.5 -191.5t326.5 -37.5v-332h-203q-285 0 -470 207t-185 510zM410 1526l204 303h426l-350 -303h-280z" />
<glyph unicode="&#xca;" horiz-adv-x="1024" d="M68 717q0 303 185 510t470 207h203v-332q-170 0 -254 -18.5t-130 -63.5t-93 -148h477v-311h-477q70 -154 150.5 -191.5t326.5 -37.5v-332h-203q-285 0 -470 207t-185 510zM203 1526l248 303h335l250 -303h-305l-113 153l-114 -153h-301z" />
<glyph unicode="&#xcb;" horiz-adv-x="1024" d="M68 717q0 303 185 510t470 207h203v-332q-170 0 -254 -18.5t-130 -63.5t-93 -148h477v-311h-477q70 -154 150.5 -191.5t326.5 -37.5v-332h-203q-285 0 -470 207t-185 510zM211 1667q0 72 50 122t122 50t122 -50t50 -122t-50 -122t-122 -50t-122 50t-50 122zM680 1667 q0 72 50 122t122 50t122 -50t50 -122t-50 -122t-122 -50t-122 50t-50 122z" />
<glyph unicode="&#xcc;" horiz-adv-x="569" d="M-135 1829h426l205 -303h-281zM106 0v1434h357v-1434h-357z" />
<glyph unicode="&#xcd;" horiz-adv-x="569" d="M76 1526l205 303h426l-351 -303h-280zM106 0v1434h357v-1434h-357z" />
<glyph unicode="&#xce;" horiz-adv-x="569" d="M-131 1526l248 303h336l249 -303h-305l-112 153l-115 -153h-301zM106 0v1434h357v-1434h-357z" />
<glyph unicode="&#xcf;" horiz-adv-x="569" d="M-123 1667q0 72 50 122t122 50t122 -50t50 -122t-50 -122t-122 -50t-122 50t-50 122zM106 0v1434h357v-1434h-357zM346 1667q0 72 50 122t122 50t122 -50t50 -122t-50 -122t-122 -50t-122 50t-50 122z" />
<glyph unicode="&#xd0;" horiz-adv-x="1366" d="M31 588v344h86v502h362q375 0 587 -208t212 -521q0 -307 -205 -506t-514 -199v344q150 0 252 105.5t102 250.5q0 195 -123.5 292.5t-316.5 97.5v-158h186v-344h-186v-588h-356v588h-86z" />
<glyph unicode="&#xd1;" horiz-adv-x="1366" d="M115 0v1262q0 86 60.5 141t150.5 55t147 -36t98 -115l318 -631h4v758h356v-1250q0 -94 -57 -151.5t-131 -57.5t-130.5 47.5t-123.5 178.5l-332 639h-4v-840h-356zM307 1528q10 109 79 198t173 89q70 0 168 -40t127 -40q68 0 92 75h162q-31 -272 -268 -272 q-61 0 -157.5 38t-129.5 38q-31 0 -54.5 -29t-29.5 -57h-162z" />
<glyph unicode="&#xd2;" horiz-adv-x="1593" d="M68 717q0 303 213 522t516 219t516 -219t213 -522t-213 -522.5t-516 -219.5t-516 219.5t-213 522.5zM377 1829h426l205 -303h-281zM428 716.5q0 -155.5 106.5 -266t262 -110.5t262 110.5t106.5 266t-106.5 266.5t-262 111t-262 -111t-106.5 -266.5z" />
<glyph unicode="&#xd3;" horiz-adv-x="1593" d="M68 717q0 303 213 522t516 219t516 -219t213 -522t-213 -522.5t-516 -219.5t-516 219.5t-213 522.5zM428 716.5q0 -155.5 106.5 -266t262 -110.5t262 110.5t106.5 266t-106.5 266.5t-262 111t-262 -111t-106.5 -266.5zM588 1526l205 303h426l-351 -303h-280z" />
<glyph unicode="&#xd4;" horiz-adv-x="1593" d="M68 717q0 303 213 522t516 219t516 -219t213 -522t-213 -522.5t-516 -219.5t-516 219.5t-213 522.5zM381 1526l248 303h336l249 -303h-305l-112 153l-115 -153h-301zM428 716.5q0 -155.5 106.5 -266t262 -110.5t262 110.5t106.5 266t-106.5 266.5t-262 111t-262 -111 t-106.5 -266.5z" />
<glyph unicode="&#xd5;" horiz-adv-x="1593" d="M68 717q0 303 213 522t516 219t516 -219t213 -522t-213 -522.5t-516 -219.5t-516 219.5t-213 522.5zM395 1528q10 109 79 198t173 89q70 0 168 -40t127 -40q68 0 92 75h162q-31 -272 -268 -272q-61 0 -157.5 38t-129.5 38q-31 0 -54.5 -29t-29.5 -57h-162zM428 716.5 q0 -155.5 106.5 -266t262 -110.5t262 110.5t106.5 266t-106.5 266.5t-262 111t-262 -111t-106.5 -266.5z" />
<glyph unicode="&#xd6;" horiz-adv-x="1593" d="M68 717q0 303 213 522t516 219t516 -219t213 -522t-213 -522.5t-516 -219.5t-516 219.5t-213 522.5zM389 1667q0 72 50 122t122 50t122 -50t50 -122t-50 -122t-122 -50t-122 50t-50 122zM428 716.5q0 -155.5 106.5 -266t262 -110.5t262 110.5t106.5 266t-106.5 266.5 t-262 111t-262 -111t-106.5 -266.5zM858 1667q0 72 50 122t122 50t122 -50t50 -122t-50 -122t-122 -50t-122 50t-50 122z" />
<glyph unicode="&#xd7;" horiz-adv-x="1228" d="M117 168l329 330l-329 329l172 168l325 -329l330 329l168 -168l-330 -329l330 -330l-168 -168l-330 330l-325 -330z" />
<glyph unicode="&#xd8;" horiz-adv-x="1593" d="M8 -25l234 263q-174 207 -174 479q0 303 213 522t516 219q225 0 411 -131l117 131h277l-242 -272q166 -203 166 -469q0 -303 -213 -522.5t-516 -219.5q-217 0 -404 123l-110 -123h-275zM428 717q0 -113 59 -203l478 539q-76 41 -168 41q-156 0 -262.5 -110.5 t-106.5 -266.5zM639 377q70 -37 158 -37q156 0 262 110.5t106 266.5q0 109 -53 192z" />
<glyph unicode="&#xd9;" horiz-adv-x="1251" d="M102 518v916h357v-945q0 -170 166 -170t166 170v945h356v-916q0 -248 -139.5 -395.5t-383 -147.5t-383 147.5t-139.5 395.5zM207 1829h426l205 -303h-281z" />
<glyph unicode="&#xda;" horiz-adv-x="1251" d="M102 518v916h357v-945q0 -170 166 -170t166 170v945h356v-916q0 -248 -139.5 -395.5t-383 -147.5t-383 147.5t-139.5 395.5zM418 1526l205 303h426l-351 -303h-280z" />
<glyph unicode="&#xdb;" horiz-adv-x="1251" d="M102 518v916h357v-945q0 -170 166 -170t166 170v945h356v-916q0 -248 -139.5 -395.5t-383 -147.5t-383 147.5t-139.5 395.5zM211 1526l248 303h336l249 -303h-305l-112 153l-115 -153h-301z" />
<glyph unicode="&#xdc;" horiz-adv-x="1251" d="M102 518v916h357v-945q0 -170 166 -170t166 170v945h356v-916q0 -248 -139.5 -395.5t-383 -147.5t-383 147.5t-139.5 395.5zM219 1667q0 72 50 122t122 50t122 -50t50 -122t-50 -122t-122 -50t-122 50t-50 122zM688 1667q0 72 50 122t122 50t122 -50t50 -122t-50 -122 t-122 -50t-122 50t-50 122z" />
<glyph unicode="&#xdd;" d="M102 926v508h357v-476q0 -139 110.5 -139t110.5 139v476h356v-508q0 -147 -70.5 -257t-209.5 -157v-512h-357v512q-154 43 -225.5 160t-71.5 254zM348 1526l205 303h426l-350 -303h-281z" />
<glyph unicode="&#xde;" d="M100 0v1434h357v-230q63 20 153 21q203 0 344.5 -136.5t141.5 -347.5q0 -227 -131 -365t-359 -138h-90v331q117 0 170 34t53 138q0 63 -41 107.5t-108 44.5q-61 0 -97 -39t-36 -100v-754h-357z" />
<glyph unicode="&#xdf;" horiz-adv-x="1251" d="M4 705v299h121q0 217 111.5 329.5t320.5 112.5q180 0 295 -84t115 -248q0 -133 -111 -227q84 -51 139.5 -93t103.5 -98.5t71.5 -126t23.5 -155.5q0 -195 -130 -304.5t-347 -109.5h-195v299h170q76 0 125 35t49 96q0 53 -52 114.5t-114.5 105.5t-115 94.5t-52.5 82.5 q0 29 66 98.5t66 135.5q0 43 -31 74.5t-80 31.5q-43 0 -78 -31.5t-35 -86.5v-1049h-315v705h-121z" />
<glyph unicode="&#xe0;" horiz-adv-x="1251" d="M55 496q0 225 155 374.5t392 149.5q244 0 404.5 -128t160.5 -355v-537h-327v459q0 262 -232 262q-90 0 -157.5 -62.5t-67.5 -154.5q0 -106 65.5 -168t151.5 -62q84 0 158 29v-270q-82 -57 -223 -58q-176 0 -328 141.5t-152 379.5zM207 1448h426l205 -303h-281z" />
<glyph unicode="&#xe1;" horiz-adv-x="1251" d="M55 496q0 225 155 374.5t392 149.5q244 0 404.5 -128t160.5 -355v-537h-327v459q0 262 -232 262q-90 0 -157.5 -62.5t-67.5 -154.5q0 -106 65.5 -168t151.5 -62q84 0 158 29v-270q-82 -57 -223 -58q-176 0 -328 141.5t-152 379.5zM418 1145l205 303h426l-351 -303h-280z " />
<glyph unicode="&#xe2;" horiz-adv-x="1251" d="M55 496q0 225 155 374.5t392 149.5q244 0 404.5 -128t160.5 -355v-537h-327v459q0 262 -232 262q-90 0 -157.5 -62.5t-67.5 -154.5q0 -106 65.5 -168t151.5 -62q84 0 158 29v-270q-82 -57 -223 -58q-176 0 -328 141.5t-152 379.5zM211 1145l248 303h336l249 -303h-305 l-112 153l-115 -153h-301z" />
<glyph unicode="&#xe3;" horiz-adv-x="1251" d="M55 496q0 225 155 374.5t392 149.5q244 0 404.5 -128t160.5 -355v-537h-327v459q0 262 -232 262q-90 0 -157.5 -62.5t-67.5 -154.5q0 -106 65.5 -168t151.5 -62q84 0 158 29v-270q-82 -57 -223 -58q-176 0 -328 141.5t-152 379.5zM225 1147q10 109 79 198t173 89 q70 0 168 -40t127 -40q68 0 92 76h162q-31 -272 -268 -273q-61 0 -157.5 38t-129.5 38q-31 0 -54.5 -28.5t-29.5 -57.5h-162z" />
<glyph unicode="&#xe4;" horiz-adv-x="1251" d="M55 496q0 225 155 374.5t392 149.5q244 0 404.5 -128t160.5 -355v-537h-327v459q0 262 -232 262q-90 0 -157.5 -62.5t-67.5 -154.5q0 -106 65.5 -168t151.5 -62q84 0 158 29v-270q-82 -57 -223 -58q-176 0 -328 141.5t-152 379.5zM219 1286q0 72 50 122t122 50t122 -50 t50 -122t-50 -122t-122 -50t-122 50t-50 122zM688 1286q0 72 50 122t122 50t122 -50t50 -122t-50 -122t-122 -50t-122 50t-50 122z" />
<glyph unicode="&#xe5;" horiz-adv-x="1251" d="M55 496q0 225 155 374.5t392 149.5q244 0 404.5 -128t160.5 -355v-537h-327v459q0 262 -232 262q-90 0 -157.5 -62.5t-67.5 -154.5q0 -106 65.5 -168t151.5 -62q84 0 158 29v-270q-82 -57 -223 -58q-176 0 -328 141.5t-152 379.5zM395 1368q0 94 68.5 161.5t163 67.5 t163 -67.5t68.5 -161.5t-68.5 -161.5t-163 -67.5t-163 67.5t-68.5 161.5zM526 1368q0 -39 31 -68.5t70 -29.5t69.5 29.5t30.5 68.5t-30.5 68.5t-69.5 29.5t-70 -29.5t-31 -68.5z" />
<glyph unicode="&#xe6;" horiz-adv-x="1820" d="M61 264q0 61 22.5 113.5t55.5 89.5t87.5 68.5t101.5 51t115.5 37t110.5 26.5t105 20q-10 53 -65 76.5t-117 23.5q-104 0 -262 -70l-94 232q176 88 371 88q246 0 378 -150q170 150 383 150q176 0 300 -110.5t186 -286.5l-520 -230l-91 195l238 119q-33 63 -147 63 q-109 0 -161 -71.5t-52 -184.5q0 -123 68.5 -197.5t180.5 -74.5q57 0 119 29.5t85.5 50t92.5 81.5l207 -161q-113 -131 -230.5 -199t-285.5 -68q-262 0 -414 164q-156 -164 -389 -164q-184 0 -281.5 86t-97.5 203zM377 309q0 -37 32.5 -60.5t73.5 -23.5q80 0 137.5 48.5 t65.5 117.5l8 96q-317 -31 -317 -178z" />
<glyph unicode="&#xe7;" horiz-adv-x="796" d="M43 498q0 223 143.5 360t333.5 137h197v-297h-139q-100 0 -153.5 -53t-53.5 -147.5t53 -148.5t154 -54h139v-295h-197q-190 0 -333.5 136.5t-143.5 361.5zM176 -387l43 94q125 -43 176 -43q47 0 77 23.5t30 58.5q0 27 -32 47.5t-67 20.5q-10 0 -71 -21l-51 49l112 189 h119l-80 -131q33 8 76 8q76 0 137.5 -42t61.5 -114q0 -96 -87.5 -147t-189.5 -51q-109 0 -254 59z" />
<glyph unicode="&#xe8;" d="M49 498q0 213 153.5 367.5t360.5 154.5q313 0 488 -318l-494 -340l-125 197l268 176q-55 35 -127 35q-94 0 -151 -79t-57 -177t62 -175t159 -77q88 0 171 66.5t122 156.5l235 -120q-72 -174 -220.5 -282t-330.5 -108q-207 0 -360.5 155t-153.5 368zM150 1448h425 l205 -303h-280z" />
<glyph unicode="&#xe9;" d="M49 498q0 213 153.5 367.5t360.5 154.5q313 0 488 -318l-494 -340l-125 197l268 176q-55 35 -127 35q-94 0 -151 -79t-57 -177t62 -175t159 -77q88 0 171 66.5t122 156.5l235 -120q-72 -174 -220.5 -282t-330.5 -108q-207 0 -360.5 155t-153.5 368zM360 1145l205 303h426 l-350 -303h-281z" />
<glyph unicode="&#xea;" d="M49 498q0 213 153.5 367.5t360.5 154.5q313 0 488 -318l-494 -340l-125 197l268 176q-55 35 -127 35q-94 0 -151 -79t-57 -177t62 -175t159 -77q88 0 171 66.5t122 156.5l235 -120q-72 -174 -220.5 -282t-330.5 -108q-207 0 -360.5 155t-153.5 368zM154 1145l247 303h336 l250 -303h-305l-113 153l-114 -153h-301z" />
<glyph unicode="&#xeb;" d="M49 498q0 213 153.5 367.5t360.5 154.5q313 0 488 -318l-494 -340l-125 197l268 176q-55 35 -127 35q-94 0 -151 -79t-57 -177t62 -175t159 -77q88 0 171 66.5t122 156.5l235 -120q-72 -174 -220.5 -282t-330.5 -108q-207 0 -360.5 155t-153.5 368zM162 1286q0 72 50 122 t122 50t122 -50t50 -122t-50 -122t-122 -50t-122 50t-50 122zM631 1286q0 72 50 122t121.5 50t122 -50t50.5 -122t-50.5 -122t-122 -50t-121.5 50t-50 122z" />
<glyph unicode="&#xec;" horiz-adv-x="569" d="M-135 1448h426l205 -303h-281zM121 0v995h328v-995h-328z" />
<glyph unicode="&#xed;" horiz-adv-x="569" d="M76 1145l205 303h426l-351 -303h-280zM121 0v995h328v-995h-328z" />
<glyph unicode="&#xee;" horiz-adv-x="569" d="M-131 1145l248 303h336l249 -303h-305l-112 153l-115 -153h-301zM121 0v995h328v-995h-328z" />
<glyph unicode="&#xef;" horiz-adv-x="569" d="M-123 1286q0 72 50 122t122 50t122 -50t50 -122t-50 -122t-122 -50t-122 50t-50 122zM121 0v995h328v-995h-328zM346 1286q0 72 50 122t122 50t122 -50t50 -122t-50 -122t-122 -50t-122 50t-50 122z" />
<glyph unicode="&#xf0;" d="M55 498q0 203 135.5 348t350.5 145q82 -127 137 -313q-70 31 -109 31q-84 0 -141 -61.5t-57 -149.5t57 -149.5t141 -61.5q88 0 143.5 69.5t55.5 192.5q0 313 -221 561l-189 -90l-69 110l160 76q-66 55 -121 84l245 144q66 -43 136 -103l202 99l70 -111l-174 -84 q276 -303 276 -676q0 -254 -151.5 -419t-362.5 -165q-207 0 -360.5 155t-153.5 368z" />
<glyph unicode="&#xf1;" horiz-adv-x="1024" d="M84 0v569q0 201 112.5 326t315.5 125t315.5 -125t112.5 -326v-569h-315v569q0 66 -31 103t-82 37t-82 -37t-31 -103v-569h-315zM111 1147q10 109 78.5 198t172.5 89q70 0 168.5 -40t126.5 -40q68 0 93 76h161q-31 -272 -268 -273q-61 0 -157.5 38t-129.5 38 q-31 0 -54 -28.5t-30 -57.5h-161z" />
<glyph unicode="&#xf2;" d="M55 498q0 213 153.5 367.5t360.5 154.5t360.5 -154.5t153.5 -367.5t-153.5 -368t-360.5 -155t-360.5 155t-153.5 368zM150 1448h425l205 -303h-280zM371 498q0 -88 57 -149.5t141 -61.5t141.5 61.5t57.5 149.5t-57.5 149.5t-141.5 61.5t-141 -61.5t-57 -149.5z" />
<glyph unicode="&#xf3;" d="M55 498q0 213 153.5 367.5t360.5 154.5t360.5 -154.5t153.5 -367.5t-153.5 -368t-360.5 -155t-360.5 155t-153.5 368zM360 1145l205 303h426l-350 -303h-281zM371 498q0 -88 57 -149.5t141 -61.5t141.5 61.5t57.5 149.5t-57.5 149.5t-141.5 61.5t-141 -61.5t-57 -149.5z " />
<glyph unicode="&#xf4;" d="M55 498q0 213 153.5 367.5t360.5 154.5t360.5 -154.5t153.5 -367.5t-153.5 -368t-360.5 -155t-360.5 155t-153.5 368zM154 1145l247 303h336l250 -303h-305l-113 153l-114 -153h-301zM371 498q0 -88 57 -149.5t141 -61.5t141.5 61.5t57.5 149.5t-57.5 149.5t-141.5 61.5 t-141 -61.5t-57 -149.5z" />
<glyph unicode="&#xf5;" d="M55 498q0 213 153.5 367.5t360.5 154.5t360.5 -154.5t153.5 -367.5t-153.5 -368t-360.5 -155t-360.5 155t-153.5 368zM168 1147q10 109 78.5 198t173.5 89q70 0 168 -40t127 -40q68 0 92 76h162q-31 -272 -269 -273q-61 0 -157.5 38t-128.5 38q-31 0 -54.5 -28.5 t-29.5 -57.5h-162zM371 498q0 -88 57 -149.5t141 -61.5t141.5 61.5t57.5 149.5t-57.5 149.5t-141.5 61.5t-141 -61.5t-57 -149.5z" />
<glyph unicode="&#xf6;" d="M55 498q0 213 153.5 367.5t360.5 154.5t360.5 -154.5t153.5 -367.5t-153.5 -368t-360.5 -155t-360.5 155t-153.5 368zM162 1286q0 72 50 122t122 50t122 -50t50 -122t-50 -122t-122 -50t-122 50t-50 122zM371 498q0 -88 57 -149.5t141 -61.5t141.5 61.5t57.5 149.5 t-57.5 149.5t-141.5 61.5t-141 -61.5t-57 -149.5zM631 1286q0 72 50 122t121.5 50t122 -50t50.5 -122t-50.5 -122t-122 -50t-121.5 50t-50 122z" />
<glyph unicode="&#xf7;" horiz-adv-x="1228" d="M117 379v237h995v-237h-995zM432 90q0 76 54.5 129t128 53t128 -53t54.5 -129t-54.5 -129t-128 -53t-128 53t-54.5 129zM432 905q0 76 54.5 129t128 53t128 -53t54.5 -129t-54.5 -129t-128 -53t-128 53t-54.5 129z" />
<glyph unicode="&#xf8;" d="M4 -61l178 225q-127 139 -127 334q0 213 153.5 367.5t360.5 154.5q127 0 240 -66l86 107h252l-186 -234q123 -135 122 -329q0 -213 -153.5 -368t-360.5 -155q-131 0 -243 66l-82 -102h-240zM371 498q0 -51 22 -97l244 295q-31 12 -68 13q-84 0 -141 -61.5t-57 -149.5z M528 293q18 -6 41 -6q84 0 141.5 61.5t57.5 149.5q0 41 -14 75z" />
<glyph unicode="&#xf9;" horiz-adv-x="1024" d="M84 426v569h315v-569q0 -66 31 -102.5t82 -36.5t82 36.5t31 102.5v569h315v-569q0 -201 -112.5 -326t-315.5 -125t-315.5 125t-112.5 326zM92 1448h426l205 -303h-281z" />
<glyph unicode="&#xfa;" horiz-adv-x="1024" d="M84 426v569h315v-569q0 -66 31 -102.5t82 -36.5t82 36.5t31 102.5v569h315v-569q0 -201 -112.5 -326t-315.5 -125t-315.5 125t-112.5 326zM303 1145l205 303h426l-350 -303h-281z" />
<glyph unicode="&#xfb;" horiz-adv-x="1024" d="M84 426v569h315v-569q0 -66 31 -102.5t82 -36.5t82 36.5t31 102.5v569h315v-569q0 -201 -112.5 -326t-315.5 -125t-315.5 125t-112.5 326zM96 1145l248 303h336l250 -303h-305l-113 153l-115 -153h-301z" />
<glyph unicode="&#xfc;" horiz-adv-x="1024" d="M84 426v569h315v-569q0 -66 31 -102.5t82 -36.5t82 36.5t31 102.5v569h315v-569q0 -201 -112.5 -326t-315.5 -125t-315.5 125t-112.5 326zM104 1286q0 72 50.5 122t122 50t122 -50t50.5 -122t-50.5 -122t-122 -50t-122 50t-50.5 122zM573 1286q0 72 50.5 122t122 50 t122 -50t50.5 -122t-50.5 -122t-122 -50t-122 50t-50.5 122z" />
<glyph unicode="&#xfd;" horiz-adv-x="1024" d="M82 356v639h315v-577q0 -139 119 -139q66 0 88.5 38.5t22.5 114.5v563h315v-639q0 -141 -70.5 -233t-191.5 -131v-422h-328v422q-270 81 -270 364zM303 1145l205 303h426l-350 -303h-281z" />
<glyph unicode="&#xfe;" horiz-adv-x="1251" d="M84 -430v1864h328v-455q104 41 237 41q238 0 392.5 -149.5t154.5 -374.5q0 -242 -159.5 -381.5t-370.5 -139.5q-98 0 -160 25v303q49 -29 137 -29q96 0 160.5 62.5t64.5 161t-64.5 161t-160.5 62.5q-113 0 -172 -73t-59 -191v-887h-328z" />
<glyph unicode="&#xff;" horiz-adv-x="1024" d="M82 356v639h315v-577q0 -139 119 -139q66 0 88.5 38.5t22.5 114.5v563h315v-639q0 -141 -70.5 -233t-191.5 -131v-422h-328v422q-270 81 -270 364zM104 1286q0 72 50.5 122t122 50t122 -50t50.5 -122t-50.5 -122t-122 -50t-122 50t-50.5 122zM573 1286q0 72 50.5 122 t122 50t122 -50t50.5 -122t-50.5 -122t-122 -50t-122 50t-50.5 122z" />
<glyph unicode="&#x152;" horiz-adv-x="2048" d="M68 717q0 309 187 525t490 216q299 0 515 -235q123 117 235.5 164t284.5 47h170v-324h-129q-254 0 -361 -229h490v-324h-490q106 -229 334 -229h156v-324h-148q-178 0 -301 47t-241 164q-229 -240 -515 -240q-303 0 -490 216.5t-187 525.5zM424 717q0 -164 88 -270.5 t250 -106.5q145 0 241.5 113.5t96.5 263t-96.5 263.5t-241.5 114q-162 0 -250 -106.5t-88 -270.5z" />
<glyph unicode="&#x153;" horiz-adv-x="1820" d="M35 498q0 209 152.5 365.5t334.5 156.5q236 0 385 -156q147 156 373 156q176 0 300 -110.5t185 -286.5l-520 -230l-90 195l238 119q-33 63 -148 63q-82 0 -136 -76t-54 -180q0 -121 67.5 -196.5t159.5 -75.5q57 0 118.5 29.5t85 50t93.5 81.5l207 -161 q-113 -131 -230.5 -199t-285.5 -68q-244 0 -365 138q-154 -137 -383 -138q-182 0 -334.5 157t-152.5 366zM350 498q0 -86 56.5 -148.5t138.5 -62.5t138 62.5t56 148.5t-56 148.5t-138 62.5t-138.5 -62.5t-56.5 -148.5z" />
<glyph unicode="&#x178;" d="M102 926v508h357v-476q0 -139 110.5 -139t110.5 139v476h356v-508q0 -147 -70.5 -257t-209.5 -157v-512h-357v512q-154 43 -225.5 160t-71.5 254zM150 1667q0 72 50 122t121.5 50t122 -50t50.5 -122t-50.5 -122t-122 -50t-121.5 50t-50 122zM618 1667q0 72 50.5 122 t122 50t122 -50t50.5 -122t-50.5 -122t-122 -50t-122 50t-50.5 122z" />
<glyph unicode="&#x2c6;" horiz-adv-x="569" d="M-131 1145l248 303h336l249 -303h-305l-112 153l-115 -153h-301z" />
<glyph unicode="&#x2dc;" horiz-adv-x="569" d="M-117 1147q10 109 79 198t173 89q70 0 168 -40t127 -40q68 0 92 76h162q-31 -272 -268 -273q-61 0 -157.5 38t-129.5 38q-31 0 -54.5 -28.5t-29.5 -57.5h-162z" />
<glyph unicode="&#x2000;" horiz-adv-x="989" />
<glyph unicode="&#x2001;" horiz-adv-x="1978" />
<glyph unicode="&#x2002;" horiz-adv-x="989" />
<glyph unicode="&#x2003;" horiz-adv-x="1978" />
<glyph unicode="&#x2004;" horiz-adv-x="659" />
<glyph unicode="&#x2005;" horiz-adv-x="493" />
<glyph unicode="&#x2006;" horiz-adv-x="329" />
<glyph unicode="&#x2007;" horiz-adv-x="329" />
<glyph unicode="&#x2008;" horiz-adv-x="245" />
<glyph unicode="&#x2009;" horiz-adv-x="395" />
<glyph unicode="&#x200a;" horiz-adv-x="108" />
<glyph unicode="&#x2010;" horiz-adv-x="681" d="M84 360v275h512v-275h-512z" />
<glyph unicode="&#x2011;" horiz-adv-x="681" d="M84 360v275h512v-275h-512z" />
<glyph unicode="&#x2012;" horiz-adv-x="681" d="M84 360v275h512v-275h-512z" />
<glyph unicode="&#x2013;" horiz-adv-x="1024" d="M0 387v221h1024v-221h-1024z" />
<glyph unicode="&#x2014;" horiz-adv-x="2048" d="M0 387v221h2048v-221h-2048z" />
<glyph unicode="&#x2018;" horiz-adv-x="454" d="M61 1434h269l39 -467h-207z" />
<glyph unicode="&#x2019;" horiz-adv-x="454" d="M86 967l39 467h268l-100 -467h-207z" />
<glyph unicode="&#x201a;" horiz-adv-x="454" d="M86 -270l39 467h268l-100 -467h-207z" />
<glyph unicode="&#x201c;" horiz-adv-x="909" d="M92 1434h268l39 -467h-206zM510 1434h268l39 -467h-207z" />
<glyph unicode="&#x201d;" horiz-adv-x="909" d="M92 967l39 467h268l-100 -467h-207zM510 967l39 467h268l-100 -467h-207z" />
<glyph unicode="&#x201e;" horiz-adv-x="909" d="M92 -270l39 467h268l-100 -467h-207zM510 -270l39 467h268l-100 -467h-207z" />
<glyph unicode="&#x2022;" horiz-adv-x="1024" d="M154 717q-2 150 102 254t256 104t256 -104.5t102 -253.5q2 -150 -102 -254.5t-256 -104.5t-256 104.5t-102 254.5z" />
<glyph unicode="&#x2026;" horiz-adv-x="2048" d="M133 184q0 86 60.5 147.5t148.5 61.5t148.5 -61.5t60.5 -147.5t-60.5 -147.5t-148.5 -61.5t-148.5 61.5t-60.5 147.5zM815 184q0 86 60.5 147.5t148.5 61.5t148.5 -61.5t60.5 -147.5t-60.5 -147.5t-148.5 -61.5t-148.5 61.5t-60.5 147.5zM1497 184q0 86 60.5 147.5 t148.5 61.5t148.5 -61.5t60.5 -147.5t-60.5 -147.5t-148.5 -61.5t-148.5 61.5t-60.5 147.5z" />
<glyph unicode="&#x202f;" horiz-adv-x="395" />
<glyph unicode="&#x2039;" horiz-adv-x="681" d="M78 498l246 315h249l-245 -315l241 -316h-245z" />
<glyph unicode="&#x203a;" horiz-adv-x="681" d="M109 813h249l246 -315l-246 -316h-245l241 316z" />
<glyph unicode="&#x205f;" horiz-adv-x="493" />
<glyph unicode="&#x2122;" horiz-adv-x="2048" d="M74 1249v185h704v-185h-229v-659h-246v659h-229zM971 590v844h319l183 -492l182 492h319v-844h-221v553h-4l-186 -553h-181l-186 553h-4v-553h-221z" />
<glyph unicode="&#xe000;" horiz-adv-x="995" d="M0 995h995v-995h-995v995z" />
<glyph unicode="&#xfb01;" d="M72 0v1073q0 158 109.5 259.5t291.5 101.5h133v-299h-104q-59 0 -81 -32t-22 -99h207v-299h-207v-705h-327zM676 1272q0 80 54 133t132 53t132.5 -53t54.5 -133t-54.5 -133.5t-132.5 -53.5t-132 53.5t-54 133.5zM698 0v995h328v-995h-328z" />
<glyph unicode="&#xfb02;" d="M72 0v1073q0 158 109.5 259.5t291.5 101.5h133v-299h-104q-59 0 -81 -32t-22 -99h207v-299h-207v-705h-327zM698 0v1434h328v-1434h-328z" />
<glyph unicode="&#xfb03;" horiz-adv-x="1933" d="M1462 1272q0 80 54.5 133t132 53t132 -53t54.5 -133t-54.5 -133.5t-132 -53.5t-132 53.5t-54.5 133.5zM1485 0v995h328v-995h-328zM768 0v1073q0 158 109.5 259.5t291.5 101.5h181v-299h-152q-59 0 -80.5 -32t-21.5 -99h254v-299h-254v-705h-328zM86 0v1073 q0 158 109.5 259.5t291.5 101.5h181v-299h-152q-59 0 -80.5 -32t-21.5 -99h254v-299h-254v-705h-328z" />
<glyph unicode="&#xfb04;" horiz-adv-x="1933" d="M1485 0v1434h328v-1434h-328zM768 0v1073q0 158 109.5 259.5t291.5 101.5h181v-299h-152q-59 0 -80.5 -32t-21.5 -99h254v-299h-254v-705h-328zM86 0v1073q0 158 109.5 259.5t291.5 101.5h181v-299h-152q-59 0 -80.5 -32t-21.5 -99h254v-299h-254v-705h-328z" />
</font>
</defs>
</svg>
