<?xml version="1.0" standalone="no"?>
<!DOCTYPE svg PUBLIC "-//W3C//DTD SVG 1.1//EN" "http://www.w3.org/Graphics/SVG/1.1/DTD/svg11.dtd" >
<svg xmlns="http://www.w3.org/2000/svg">
<metadata>
This is a custom SVG webfont generated by Font Squirrel.
Copyright   : Copyright c 1989 Adobe Systems Incorporated  All Rights ReservedBauhaus is a registered trademark of International Typeface Corporation
</metadata>
<defs>
<font id="BauhausRegular" horiz-adv-x="1138" >
<font-face units-per-em="2048" ascent="1638" descent="-410" />
<missing-glyph horiz-adv-x="569" />
<glyph unicode=" "  horiz-adv-x="569" />
<glyph unicode="&#x09;" horiz-adv-x="569" />
<glyph unicode="&#xa0;" horiz-adv-x="569" />
<glyph unicode="!" horiz-adv-x="454" d="M94 102.5q0 51.5 37 89t90 37.5q55 0 91 -37.5t36 -89t-36 -89.5t-91 -38q-53 0 -90 38t-37 89.5zM135 328v1106h172v-1106h-172z" />
<glyph unicode="&#x22;" horiz-adv-x="681" d="M113 881v553h168v-553h-168zM403 881v553h168v-553h-168z" />
<glyph unicode="#" d="M66 438l6 131h217l41 295h-205l6 131h217l60 439h149l-61 -439h243l60 439h149l-61 -439h186l-6 -131h-199l-41 -295h187l-6 -131h-199l-61 -438h-148l62 438h-244l-62 -438h-147l61 438h-204zM436 569h244l41 295h-244z" />
<glyph unicode="$" d="M176 1143q0 139 95.5 215t240.5 76v168h156v-168h276v-172h-276v-363q29 -20 93 -61t95 -65.5t71 -66.5t56 -94.5t16 -119.5q0 -150 -92 -222.5t-239 -72.5v-222h-156v222h-328v172h328v393l-90 54t-97.5 63.5t-70.5 63.5t-60.5 90.5t-17.5 109.5zM356 1133q0 -39 30 -76 t54.5 -52.5t71.5 -41.5v299q-156 0 -156 -129zM668 369q63 0 107 32.5t44 98.5q0 25 -7 46t-16.5 35.5t-27.5 33t-29.5 26.5t-37 25.5t-33.5 23.5v-321z" />
<glyph unicode="%" horiz-adv-x="1820" d="M94 1122.5q0 145.5 101.5 240.5t234.5 95t234.5 -95t101.5 -240.5t-101.5 -241t-234.5 -95.5t-234.5 95.5t-101.5 241zM254 1122.5q0 -75.5 52 -126t124 -50.5t124 50.5t52 126t-52 125.5t-124 50t-124 -50t-52 -125.5zM344 -25l952 1483h127l-952 -1483h-127z M1004 311.5q0 145.5 101 240.5t234.5 95t234.5 -95t101 -240.5t-101 -241t-234.5 -95.5t-234.5 95.5t-101 241zM1163 311.5q0 -75.5 52.5 -126t124 -50.5t124 50.5t52.5 126t-52.5 125.5t-124 50t-124 -50t-52.5 -125.5z" />
<glyph unicode="&#x26;" horiz-adv-x="1366" d="M68 559q0 143 63.5 270t179.5 207q-98 117 -98 201q0 92 58.5 144.5t148.5 52.5h594v-181h-568q-41 0 -40 -26q0 -25 45 -84l596 -762q45 61 45 180q0 143 -136 307l131 136q100 -104 148.5 -206t48.5 -235q0 -188 -110 -346l172 -217h-234l-74 80q-143 -104 -366 -105 q-256 0 -430 165t-174 419zM268 563q0 -172 115 -289.5t287 -117.5q160 0 262 82l-504 653q-160 -121 -160 -328z" />
<glyph unicode="'" horiz-adv-x="454" d="M143 881v553h168v-553h-168z" />
<glyph unicode="(" horiz-adv-x="796" d="M147 543q0 270 116 519t327 396l82 -110q-365 -291 -365 -795q0 -535 365 -815l-74 -123q-215 154 -333 404t-118 524z" />
<glyph unicode=")" horiz-adv-x="796" d="M125 -274q365 291 364 794q0 535 -364 815l74 123q215 -154 332.5 -403.5t117.5 -524.5q0 -270 -115.5 -519t-326.5 -396z" />
<glyph unicode="*" horiz-adv-x="1024" d="M127 893l270 145l-270 142l78 127l254 -172l-25 299h156l-25 -299l254 172l78 -127l-270 -142l270 -145l-78 -127l-254 164l25 -287h-156l25 287l-254 -164z" />
<glyph unicode="+" horiz-adv-x="1228" d="M123 412v159h412v412h159v-412h412v-159h-412v-412h-159v412h-412z" />
<glyph unicode="," horiz-adv-x="569" d="M127 -205l86 402h193l-119 -402h-160z" />
<glyph unicode="-" horiz-adv-x="569" d="M55 410v163h459v-163h-459z" />
<glyph unicode="." horiz-adv-x="569" d="M164 108.5q0 51.5 36 86t85 34.5t85 -34.5t36 -86t-36 -86t-85 -34.5t-85 34.5t-36 86z" />
<glyph unicode="/" horiz-adv-x="569" d="M-12 -25l434 1483h160l-435 -1483h-159z" />
<glyph unicode="0" d="M68 504v426q0 238 146 383t355 145t355.5 -145.5t146.5 -382.5v-426q0 -238 -146.5 -383.5t-355.5 -145.5t-355 145.5t-146 383.5zM276 504q0 -160 76 -248t217.5 -88t217 88t75.5 248v426q0 160 -75.5 248t-217 88t-217.5 -88t-76 -248v-426z" />
<glyph unicode="1" d="M227 1253l54 181h401v-1434h-197v1253h-258z" />
<glyph unicode="2" d="M66 152q0 37 16 65.5t34.5 45t78.5 63.5l503 395q156 123 156 283q0 121 -81 197.5t-202 76.5q-137 0 -213.5 -83t-76.5 -220q0 -106 80.5 -183t189.5 -87l-168 -134q-299 111 -299 430q0 205 149.5 331t358.5 126q190 0 324.5 -131t134.5 -321q0 -164 -81 -276 t-247 -234l-399 -312v-4h720v-180h-786q-92 0 -142 40t-50 112z" />
<glyph unicode="3" d="M92 0v180h473q135 0 210 77t75 194q0 109 -89 177t-247 68h-223v144l448 413h-614v181h620q203 0 203 -156q0 -25 -7 -48.5t-15 -38.5t-31 -40t-32 -34t-43 -38.5t-44 -38.5l-192 -163q205 -4 334 -117t129 -303q0 -203 -122 -330t-307 -127h-526z" />
<glyph unicode="4" d="M20 451q0 12 2.5 23t5.5 20.5t10 25t12 23.5t15.5 27.5t16.5 29.5l461 834h213l-516 -922h430v618l180 308q12 20 14 20t2 -28v-918h215v-180h-215v-332h-196v332h-512q-63 0 -100.5 32t-37.5 87z" />
<glyph unicode="5" d="M115 0v180h469q129 0 198.5 69.5t69.5 184.5q0 266 -317 266h-359v734h750v-181h-553v-372h174q238 0 376 -116t138 -335q0 -170 -119 -300t-305 -130h-522z" />
<glyph unicode="6" d="M49 485q0 90 30 175t59.5 133.5t97.5 144.5l350 496h237l-446 -627q-70 -100 -100.5 -172t-30.5 -166q0 -127 95 -220t224 -93q133 0 230.5 96t97.5 231q0 176 -111.5 268.5t-289.5 88.5l112 164q231 -6 358.5 -149.5t127.5 -367.5q0 -205 -153 -358.5t-376 -153.5 q-213 0 -362.5 147.5t-149.5 362.5z" />
<glyph unicode="7" d="M90 1253v181h719q221 0 221 -148q0 -25 -6 -50.5t-19.5 -60t-24.5 -60t-34.5 -76t-38.5 -81.5l-424 -958h-225l561 1253h-729z" />
<glyph unicode="8" d="M59 430q0 236 230 381q-70 66 -102.5 130.5t-32.5 160.5q0 139 115.5 247.5t299.5 108.5q178 0 293 -97t115 -259q0 -164 -127 -291q229 -121 229 -381q0 -188 -136 -321.5t-373.5 -133.5t-374 133.5t-136.5 321.5zM268 432q0 -125 84 -200.5t217 -75.5t217 75.5 t84 200.5t-84 201t-217 76t-217 -76t-84 -201zM362 1083q0 -84 56.5 -139t146.5 -55t146.5 55t56.5 139t-56.5 139.5t-146.5 55.5t-146.5 -55.5t-56.5 -139.5z" />
<glyph unicode="9" d="M49 946q0 205 152.5 358.5t376.5 153.5q213 0 362.5 -147.5t149.5 -362.5q0 -90 -30 -175t-59.5 -133t-97.5 -144l-350 -496h-238l447 627q70 100 100.5 171.5t30.5 166.5q0 127 -95.5 220t-224.5 93q-133 0 -230 -96.5t-97 -231.5q0 -176 111.5 -268t289.5 -88 l-112 -164q-231 6 -358.5 149.5t-127.5 366.5z" />
<glyph unicode=":" horiz-adv-x="569" d="M164 108.5q0 51.5 36 86t85 34.5t85 -34.5t36 -86t-36 -86t-85 -34.5t-85 34.5t-36 86zM164 698.5q0 51.5 36 86t85 34.5t85 -34.5t36 -86t-36 -86t-85 -34.5t-85 34.5t-36 86z" />
<glyph unicode=";" horiz-adv-x="569" d="M127 -205l86 402h193l-119 -402h-160zM164 698.5q0 51.5 36 86t85 34.5t85 -34.5t36 -86t-36 -86t-85 -34.5t-85 34.5t-36 86z" />
<glyph unicode="&#x3c;" horiz-adv-x="1228" d="M123 422v139l983 438v-159l-784 -348l784 -349v-159z" />
<glyph unicode="=" horiz-adv-x="1228" d="M123 209v160h983v-160h-983zM123 614v160h983v-160h-983z" />
<glyph unicode="&#x3e;" horiz-adv-x="1228" d="M123 -16v159l782 349l-782 348v159l983 -438v-139z" />
<glyph unicode="?" horiz-adv-x="909" d="M53 1004q0 197 121 325.5t313 128.5q166 0 288 -124t122 -298q0 -172 -100.5 -287.5t-259.5 -144.5v-276h-181v450h54q147 0 221 67.5t74 182.5q0 106 -63.5 178t-168.5 72q-113 0 -169 -78t-58 -196h-193zM319 102.5q0 51.5 37 89t90 37.5q55 0 91 -37.5t36 -89 t-35.5 -89.5t-91.5 -38q-53 0 -90 38t-37 89.5z" />
<glyph unicode="@" horiz-adv-x="1638" d="M104 719q0 309 219.5 524t526.5 215q281 0 482.5 -172t201.5 -438q0 -131 -51 -245t-128 -181.5t-157 -105t-145 -37.5q-51 0 -85 29.5t-36 86.5h-4q-104 -117 -230 -116q-127 0 -212 94t-85 227q0 205 127 367.5t320 162.5q158 0 229 -147l37 115h143l-147 -537 q-18 -70 -18 -92q0 -51 38 -51q96 0 180.5 125t84.5 280q0 231 -157 367.5t-388 136.5q-258 0 -424 -177t-166 -439t174 -433.5t434 -171.5q133 0 255 54.5t206 150.5h144q-98 -158 -261 -247t-352 -89q-317 0 -536.5 215.5t-219.5 528.5zM573 618q0 -82 46.5 -133 t117.5 -51q115 0 198 120t83 243q0 72 -48 125t-114 53q-117 0 -200 -116t-83 -241z" />
<glyph unicode="A" d="M80 0v909q0 250 138 399.5t351 149.5t351.5 -149.5t138.5 -399.5v-909h-193v651h-516v180h516v91q0 166 -80.5 261t-216 95t-216.5 -95.5t-81 -260.5v-922h-192z" />
<glyph unicode="B" d="M121 0v1016q0 178 130 310t324 132q209 0 337 -107.5t128 -293.5q0 -199 -143 -289q111 -63 160 -148t49 -214q0 -184 -121 -295t-309 -111h-289v180h240q287 0 286 236q0 115 -74.5 175t-211.5 60h-240v180h201q125 0 192.5 62.5t67.5 155.5q0 109 -74 169t-182 60 q-131 0 -205 -76t-74 -203v-999h-192z" />
<glyph unicode="C" horiz-adv-x="1024" d="M72 717q0 178 88 340t263 269.5t398 107.5h152v-181h-131q-246 0 -408 -152.5t-162 -383.5q0 -133 47.5 -239.5t122 -169t159.5 -95.5t167 -33h205v-180h-205q-299 0 -497.5 205t-198.5 512z" />
<glyph unicode="D" horiz-adv-x="1251" d="M121 0v1434h362q299 0 501 -212t202 -505t-202 -505t-501 -212h-88v180h105q203 0 344 156t141 381q0 236 -155.5 386t-399.5 150h-117v-1253h-192z" />
<glyph unicode="E" horiz-adv-x="1024" d="M47 717q0 305 210 511t531 206h152v-181h-129q-133 0 -243.5 -45t-176 -112.5t-102.5 -137t-41 -127.5h692v-180h-692q12 -199 162.5 -335t343.5 -136h186v-180h-152q-322 0 -531.5 206t-209.5 511z" />
<glyph unicode="F" horiz-adv-x="796" d="M57 0v952q0 227 118 354.5t327 127.5h237v-181h-209q-281 0 -280 -280v-170h489v-180h-489v-623h-193z" />
<glyph unicode="G" horiz-adv-x="1593" d="M47 717q0 307 221 524t529 217q180 0 315 -58.5t277 -199.5l-129 -139q-98 82 -149.5 119t-134.5 67.5t-179 30.5q-236 0 -392.5 -165t-156.5 -396.5t156.5 -396t392.5 -164.5q211 0 363.5 129t162.5 342h-500v180h701v-123q0 -168 -65.5 -306t-171 -224t-232.5 -132.5 t-258 -46.5q-307 0 -528.5 217.5t-221.5 524.5z" />
<glyph unicode="H" horiz-adv-x="1251" d="M121 0v1434h192v-603h623v603h192v-1434h-192v651h-623v-651h-192z" />
<glyph unicode="I" horiz-adv-x="454" d="M131 0v1434h193v-1434h-193z" />
<glyph unicode="J" horiz-adv-x="681" d="M-4 0v180h96q307 0 307 271v983h193v-971q0 -221 -122 -342t-374 -121h-100z" />
<glyph unicode="K" d="M131 0v1434h193v-603h147q162 0 250 197l182 406h215l-139 -304q-4 -8 -28.5 -62t-32 -68.5t-30 -56.5t-37.5 -61.5t-39 -45t-50 -41.5q287 -76 287 -398v-397h-193v397q0 117 -63.5 185.5t-200.5 68.5h-268v-651h-193z" />
<glyph unicode="L" horiz-adv-x="796" d="M131 463v971h193v-924q0 -168 70.5 -249t219.5 -81h187v-180h-215q-205 0 -330 129t-125 334z" />
<glyph unicode="M" horiz-adv-x="1593" d="M0 0l166 1307q8 72 54 111.5t106 39.5q68 0 108.5 -34.5t69.5 -133.5l291 -964h4l291 964q29 98 69.5 133t108.5 35q59 0 105 -40t54 -111l166 -1307h-200l-138 1163h-4l-307 -999q-31 -102 -60.5 -133t-84.5 -31h-4q-55 0 -85 30.5t-61 133.5l-307 999h-4l-137 -1163 h-201z" />
<glyph unicode="N" horiz-adv-x="1251" d="M102 0v1270q0 90 46.5 133t121.5 43q78 0 118 -44t101 -167l461 -952h4v1151h193v-1309q0 -61 -38 -99t-110 -38q-70 0 -109.5 28.5t-80.5 110.5l-510 1049h-4v-1176h-193z" />
<glyph unicode="O" horiz-adv-x="1593" d="M47 717q0 307 221 524t528.5 217t528.5 -217t221 -524t-221 -524.5t-528.5 -217.5t-528.5 217.5t-221 524.5zM248 716.5q0 -231.5 156.5 -396t392 -164.5t392.5 164.5t157 396t-157 396.5t-392.5 165t-392 -165t-156.5 -396.5z" />
<glyph unicode="P" horiz-adv-x="1024" d="M82 0v958q0 225 134 362.5t325 137.5q211 0 342 -135t131 -325.5t-117 -323.5t-287 -133h-260v180h205q117 0 191.5 74.5t74.5 201.5t-78.5 204t-199.5 77q-117 0 -193 -80t-76 -215v-983h-192z" />
<glyph unicode="Q" horiz-adv-x="1593" d="M47 717q0 307 221 524t528.5 217t528.5 -217t221 -524q2 -270 -182 -480t-430 -245v-287h-193v762h193v-295q188 45 300 196.5t112 348.5q0 231 -157 396t-392.5 165t-392 -165t-156.5 -396q0 -199 119.5 -353.5t279.5 -187.5v-184q-252 47 -426 249t-174 476z" />
<glyph unicode="R" d="M102 0v946q0 238 130 375t346 137q195 0 318.5 -118.5t123.5 -288.5q0 -219 -166 -320q98 -39 144 -110.5t46 -221.5v-399h-192v393q0 109 -65.5 171.5t-194.5 62.5h-213v180h151q133 0 215 61.5t82 175.5q0 102 -73.5 168t-175.5 66q-125 0 -204 -77t-79 -200v-1001 h-193z" />
<glyph unicode="S" horiz-adv-x="1024" d="M49 0v180h492q125 0 182 46t57 141q0 80 -74.5 143t-180 111.5t-211 101.5t-180.5 142t-75 208q0 170 110 265.5t284 95.5h456v-181h-483q-82 0 -128 -44t-46 -126q0 -72 74.5 -130t180 -106t211 -103.5t180.5 -147.5t75 -213q0 -174 -104.5 -278.5t-293.5 -104.5h-526z " />
<glyph unicode="T" horiz-adv-x="909" d="M4 1253v181h901v-181h-354v-1253h-193v1253h-354z" />
<glyph unicode="U" d="M94 471v963h193v-942q0 -152 72.5 -244t207.5 -92t209 93t74 243v942h192v-963q0 -209 -137 -352.5t-337.5 -143.5t-337 143.5t-136.5 352.5z" />
<glyph unicode="V" d="M-29 1434h201l403 -1184h5l389 1184h198l-415 -1291q-31 -94 -72 -131t-100.5 -37t-99.5 37t-72 131z" />
<glyph unicode="W" horiz-adv-x="1820" d="M100 430v1004h193v-1004q0 -125 66.5 -199.5t193.5 -74.5t193.5 74.5t66.5 199.5v1004h193v-1004q0 -125 66.5 -199.5t193.5 -74.5t193.5 74.5t66.5 199.5v1004h192v-1004q0 -207 -126 -331t-298 -124q-131 0 -223 42t-162 145q-70 -102 -162 -144.5t-223 -42.5 q-172 0 -298 124t-126 331z" />
<glyph unicode="X" d="M8 0v180h5q199 0 325 158q127 160 127 379t-127 379q-125 158 -325 157h-5v181q199 -6 358.5 -116t200.5 -294h4q41 184 201 293.5t358 116.5v-181h-5q-199 0 -324 -157q-127 -160 -127 -379t127 -379q125 -158 324 -158h5v-180q-199 6 -358.5 115.5t-200.5 294.5h-4 q-41 -184 -200.5 -294t-358.5 -116z" />
<glyph unicode="Y" horiz-adv-x="1024" d="M47 999v435h193v-437q0 -121 73.5 -188.5t198.5 -67.5q123 0 196.5 68t73.5 188v437h193v-435q0 -154 -93.5 -274.5t-277.5 -163.5v-561h-192v561q-180 43 -272.5 164.5t-92.5 273.5z" />
<glyph unicode="Z" horiz-adv-x="1024" d="M25 139q0 94 88 217l645 897h-658v181h691q86 0 126.5 -36t40.5 -87q0 -104 -84 -221l-641 -910h748v-180h-801q-72 0 -113.5 43t-41.5 96z" />
<glyph unicode="[" horiz-adv-x="796" d="M229 -360v1794h357v-95h-176v-1605h176v-94h-357z" />
<glyph unicode="\" horiz-adv-x="569" d="M-127 1458h160l663 -1483h-159z" />
<glyph unicode="]" horiz-adv-x="796" d="M211 -266h176v1605h-176v95h356v-1794h-356v94z" />
<glyph unicode="^" horiz-adv-x="1228" d="M115 586l422 848h155l422 -848h-172l-328 671l-327 -671h-172z" />
<glyph unicode="_" horiz-adv-x="1024" d="M0 -154h1024v-102h-1024v102z" />
<glyph unicode="`" horiz-adv-x="569" d="M14 1393h222l184 -291h-139z" />
<glyph unicode="a" d="M53 502q0 215 138.5 358.5t369.5 143.5q227 0 361.5 -127t134.5 -340v-537h-180v553q0 131 -94.5 204.5t-225.5 73.5q-145 0 -234.5 -100t-89.5 -244q0 -139 91.5 -237t230.5 -98q141 0 248 135v-213q-127 -94 -266 -94q-209 0 -346.5 151.5t-137.5 370.5z" />
<glyph unicode="b" d="M82 520v914h180v-881q0 -195 89 -298t227 -103q143 0 235 95t92 246.5t-89 244.5t-234 93q-123 0 -248 -86v189q121 70 278 70q190 0 331.5 -142.5t141.5 -345.5q0 -227 -138 -381.5t-369 -154.5q-217 0 -356.5 149t-139.5 391z" />
<glyph unicode="c" horiz-adv-x="796" d="M88 491.5q0 149.5 77 265t187.5 171t229.5 55.5h172v-172h-140q-137 0 -237.5 -85t-100.5 -234.5t100.5 -234.5t237.5 -85h140v-172h-172q-119 0 -229.5 55.5t-187.5 171t-77 265z" />
<glyph unicode="d" d="M53 516q0 203 141.5 345.5t331.5 142.5q158 0 279 -70v-189q-125 86 -248 86q-145 0 -234.5 -93t-89.5 -244.5t92.5 -246.5t235.5 -95q137 0 226.5 103t89.5 298v881h180v-914q0 -242 -139.5 -391t-356.5 -149q-231 0 -369.5 154.5t-138.5 381.5z" />
<glyph unicode="e" d="M61 491.5q0 223.5 150.5 368t359.5 144.5q324 0 476 -312l-664 -368l-74 143l486 270q-51 51 -98.5 72.5t-125.5 21.5q-141 0 -231 -95t-90 -244.5t90 -244.5t231 -95q150 0 224.5 78.5t105.5 228.5l182 -23q-16 -197 -158.5 -326.5t-353.5 -129.5q-209 0 -359.5 144 t-150.5 367.5z" />
<glyph unicode="f" horiz-adv-x="569" d="M106 0v1075q0 166 96.5 262.5t252.5 96.5h151v-172h-127q-193 0 -192 -183v-96h295v-172h-295v-811h-181z" />
<glyph unicode="g" d="M66 479q0 225 140 375t367 150q215 0 349.5 -146.5t134.5 -341.5v-438q0 -266 -143.5 -405.5t-370.5 -139.5q-152 0 -324 57l43 164q180 -49 273 -49q141 0 241.5 74t100.5 237v459q0 162 -90.5 259t-221.5 97q-154 0 -236.5 -104t-82.5 -258q0 -141 94 -229t235 -88 q94 0 230 79v-186q-121 -66 -232 -65q-215 0 -361 142t-146 357z" />
<glyph unicode="h" horiz-adv-x="1024" d="M92 0v1434h180v-537q96 106 252 107q408 0 408 -431v-573h-180v573q0 258 -240 258q-100 0 -170 -72.5t-70 -185.5v-573h-180z" />
<glyph unicode="i" horiz-adv-x="569" d="M176 1202q0 45 30 77t79 32t78.5 -32t29.5 -77t-29.5 -76.5t-78.5 -31.5t-79 31.5t-30 76.5zM195 0v983h180v-983h-180z" />
<glyph unicode="j" horiz-adv-x="454" d="M-133 -270h47q133 0 179 45t46 180v1028h180v-1067q0 -184 -107.5 -271t-291.5 -87h-53v172zM121 1202q0 45 29.5 77t79 32t79 -32t29.5 -77t-29.5 -76.5t-79 -31.5t-79 31.5t-29.5 76.5z" />
<glyph unicode="k" horiz-adv-x="909" d="M106 0v1434h181v-816h75q109 0 152 74l170 291h205l-129 -221q-94 -166 -154 -180v-4q225 -45 225 -289v-289h-180v268q0 88 -43 133t-116 45h-205v-446h-181z" />
<glyph unicode="l" horiz-adv-x="454" d="M137 0v1434h180v-1434h-180z" />
<glyph unicode="m" horiz-adv-x="1478" d="M100 0v668q0 139 101.5 237.5t251.5 98.5q190 0 286 -140q96 139 287 140q150 0 251 -98.5t101 -237.5v-668h-180v627q0 94 -48 149t-128 55q-193 0 -193 -233v-598h-180v598q0 233 -192 233q-80 0 -128 -55t-48 -149v-627h-181z" />
<glyph unicode="n" horiz-adv-x="1024" d="M92 0v573q0 190 119 310.5t301 120.5t301 -120t119 -311v-573h-180v573q0 111 -71 184.5t-169 73.5t-169 -73.5t-71 -184.5v-573h-180z" />
<glyph unicode="o" d="M59 491.5q0 223.5 150.5 368t359.5 144.5t359.5 -144.5t150.5 -368t-150.5 -367.5t-359.5 -144t-359.5 144t-150.5 367.5zM248 491.5q0 -149.5 90 -244.5t231.5 -95t231.5 95t90 244.5t-90 244.5t-231.5 95t-231.5 -95t-90 -244.5z" />
<glyph unicode="p" d="M82 -442v905q0 242 139 391.5t357 149.5q231 0 369 -155t138 -382q0 -203 -141 -345t-332 -142q-158 0 -278 69v189q125 -86 248 -86q145 0 234 93t89 244.5t-92 246.5t-235 95q-137 0 -226.5 -103t-89.5 -298v-872h-180z" />
<glyph unicode="q" d="M53 467q0 227 138.5 382t369.5 155q217 0 356.5 -149.5t139.5 -391.5v-905h-180v872q0 195 -89.5 298t-226.5 103q-143 0 -235.5 -95t-92.5 -246.5t89.5 -244.5t234.5 -93q123 0 248 86v-189q-121 -70 -279 -69q-190 0 -331.5 142t-141.5 345z" />
<glyph unicode="r" horiz-adv-x="569" d="M90 0v983h172v-113h4q84 133 266 134h41v-173h-26q-276 0 -277 -372v-459h-180z" />
<glyph unicode="s" horiz-adv-x="909" d="M57 0v172h504q117 0 117 94q0 49 -63.5 82t-154.5 57.5t-183.5 56.5t-156 96.5t-63.5 158.5q0 129 87 197.5t249 68.5h424v-172h-455q-63 0 -87.5 -19.5t-28.5 -66.5q0 -45 63.5 -77t155.5 -55.5t183 -55t154.5 -98t63.5 -165.5q0 -135 -84 -204.5t-221 -69.5h-504z" />
<glyph unicode="t" horiz-adv-x="681" d="M121 317v912h180v-246h352v-172h-352v-516q0 -68 32 -95.5t103 -27.5h217v-172h-241q-137 0 -214 85t-77 232z" />
<glyph unicode="u" horiz-adv-x="1024" d="M92 410v573h180v-573q0 -111 71 -184.5t169 -73.5t169 73.5t71 184.5v573h180v-573q0 -190 -119 -310t-301 -120t-301 120t-119 310z" />
<glyph unicode="v" horiz-adv-x="909" d="M-27 983h197l287 -762l284 762h197l-344 -903q-23 -61 -54.5 -80.5t-85 -19.5t-85 19t-54.5 81z" />
<glyph unicode="w" horiz-adv-x="1478" d="M100 315v668h181v-627q0 -94 48 -149t128 -55q193 0 192 233v598h180v-598q0 -233 193 -233q80 0 128 55t48 149v627h180v-668q0 -139 -101 -237t-251 -98q-190 0 -287 139q-96 -139 -286 -139q-150 0 -251.5 98t-101.5 237z" />
<glyph unicode="x" horiz-adv-x="796" d="M14 0v172q127 6 211 98t84 221.5t-84 221.5t-211 98v172q276 -16 383 -246q41 113 150.5 179.5t234.5 66.5v-172q-125 -6 -209 -98t-84 -221.5t84 -221.5t209 -98v-172q-254 0 -385 229q-125 -229 -383 -229z" />
<glyph unicode="y" horiz-adv-x="1024" d="M102 391v592h181v-590q0 -106 59 -173.5t170 -67.5t170 67.5t59 173.5v590h181v-592q0 -328 -320 -411v-422h-180v422q-320 83 -320 411z" />
<glyph unicode="z" horiz-adv-x="796" d="M37 129q0 43 21.5 82t76.5 108l402 492h-465v172h477q90 0 139 -35t49 -96q0 -70 -30 -107l-469 -573h507v-172h-561q-70 0 -108.5 34t-38.5 95z" />
<glyph unicode="{" horiz-adv-x="796" d="M68 479v119q63 0 112 62.5t49 160.5v363q0 109 59.5 179.5t145.5 70.5h162v-95h-94q-92 0 -92 -163v-381q0 -117 -56.5 -180.5t-105.5 -73.5v-4q31 -8 61.5 -28t65.5 -82t35 -151v-378q0 -164 92 -164h94v-94h-162q-86 0 -145.5 70.5t-59.5 178.5v361q0 100 -49 164.5 t-112 64.5z" />
<glyph unicode="|" horiz-adv-x="454" d="M147 0v1434h160v-1434h-160z" />
<glyph unicode="}" horiz-adv-x="796" d="M201 -266h94q92 0 92 164v381q0 117 56.5 180t105.5 73v5q-31 8 -61.5 27.5t-65.5 82t-35 150.5v379q0 164 -92 163h-94v95h161q86 0 145.5 -71t59.5 -179v-361q0 -100 49.5 -164.5t112.5 -64.5v-119q-63 0 -112.5 -62.5t-49.5 -160.5v-363q0 -109 -59 -179t-146 -70 h-161v94z" />
<glyph unicode="~" horiz-adv-x="1228" d="M141 463q92 176 256 176q84 0 236 -70q156 -70 201 -69q39 0 74.5 24.5t55 50t50.5 72.5l73 -127q-41 -55 -67.5 -86t-77.5 -60.5t-111 -29.5q-78 0 -213 69.5t-231 69.5q-104 0 -172 -147z" />
<glyph unicode="&#xa1;" horiz-adv-x="454" d="M106 889q0 51 36 89t91 38q53 0 90 -38t37 -89t-36.5 -89t-90.5 -38q-55 0 -91 38t-36 89zM147 -442v1106h172v-1106h-172z" />
<glyph unicode="&#xa2;" d="M143 778q0 158 107.5 277t265.5 125v254h156v-254h133v-181h-219q-119 0 -182.5 -56t-63.5 -164.5t63.5 -165t182.5 -56.5h219v-180h-133v-264h-156v264q-158 2 -265.5 121.5t-107.5 279.5z" />
<glyph unicode="&#xa3;" d="M0 0v180h41q119 0 166 45t47 152q0 51 -4 147.5t-4 134.5h-137v181h131v164q0 199 119.5 326.5t312.5 127.5q100 0 248 -49l-64 -174q-94 43 -178 43q-111 0 -176.5 -68.5t-65.5 -193.5q0 -29 4 -89.5t4 -86.5h234v-181h-227v-260q0 -156 -74 -215l4 -4h272 q121 0 190.5 65.5t69.5 198.5v213h197v-198q0 -459 -465 -459h-645z" />
<glyph unicode="&#xa4;" d="M51 297l113 119q-102 125 -102.5 301t102.5 301l-113 119l99 98l112 -119q121 109 307.5 109t307.5 -109l112 119l98 -98l-112 -119q102 -125 102 -301t-102 -301l112 -119l-98 -98l-112 118q-121 -109 -307.5 -108.5t-307.5 108.5l-112 -118zM229 716.5 q0 -145.5 99.5 -248.5t241 -103t240.5 103t99 248.5t-99 249t-240.5 103.5t-241 -103.5t-99.5 -249z" />
<glyph unicode="&#xa5;" d="M25 1253v181q193 -6 348 -116t194 -294h4q39 184 195 293.5t348 116.5v-181q-135 2 -238.5 -76.5t-156.5 -209.5h334v-181h-377q-6 -33 -6 -69v-53h383v-181h-383v-483h-201v483h-383v181h383v53q0 37 -6 69h-377v181h334q-53 131 -156.5 209.5t-238.5 76.5z" />
<glyph unicode="&#xa6;" horiz-adv-x="454" d="M147 0v537h160v-537h-160zM147 897v537h160v-537h-160z" />
<glyph unicode="&#xa7;" horiz-adv-x="1024" d="M109 739q0 111 61 167.5t174 60.5q-121 141 -121 241q0 113 86 181.5t201 68.5q102 0 173 -40t144 -126l-120 -98q-35 43 -54.5 63.5t-57.5 41t-81 20.5q-49 0 -84 -32t-35 -81q0 -47 53.5 -113.5t130 -136t153.5 -144.5t130 -160t53 -160q0 -182 -225 -232 q59 -68 85 -122t26 -134q0 -117 -93.5 -181.5t-213.5 -64.5q-102 0 -171 41t-155 131l129 101q82 -133 203 -133q51 0 90 33.5t39 84.5q0 53 -53.5 125t-130 145.5t-153.5 149.5t-130 156.5t-53 146.5zM281 758q0 -78 146 -228.5t216 -150.5q37 0 68.5 23.5t31.5 60.5 q0 70 -148.5 227.5t-221.5 157.5q-41 0 -66.5 -24.5t-25.5 -65.5z" />
<glyph unicode="&#xa8;" horiz-adv-x="569" d="M6 1229q0 49 32 81.5t83 32.5t83 -32.5t32 -81.5q0 -51 -32 -83t-83 -32t-83 32t-32 83zM334 1229q0 49 31.5 81.5t83 32.5t83 -32.5t31.5 -81.5q0 -51 -31.5 -83t-83 -32t-83 32t-31.5 83z" />
<glyph unicode="&#xa9;" horiz-adv-x="1638" d="M66 716.5q0 319.5 222 530.5t531 211t531.5 -211t222.5 -530.5t-222.5 -530.5t-531.5 -211t-531 211t-222 530.5zM238 717q0 -262 166.5 -436.5t414.5 -174.5t415 174.5t167 436.5q0 260 -167 435t-415 175t-414.5 -175t-166.5 -435zM414 721q0 197 115.5 323.5 t312.5 126.5q143 0 244.5 -80.5t121.5 -228.5h-143q-14 78 -74.5 124t-148.5 46q-125 0 -194.5 -86t-69.5 -223q0 -131 73.5 -222t194.5 -91q90 0 150.5 47t68.5 127h143q-27 -143 -126 -228.5t-236 -85.5q-193 0 -312.5 128t-119.5 323z" />
<glyph unicode="&#xaa;" horiz-adv-x="684" d="M12 1157q0 129 92.5 215t241.5 86q147 0 236.5 -76.5t89.5 -203.5v-322h-127v332q0 80 -57.5 122t-143.5 42q-94 0 -149.5 -58.5t-55.5 -144.5q0 -84 56.5 -141.5t146.5 -57.5q94 0 162 78v-127q-82 -57 -174 -57q-135 0 -226.5 91t-91.5 222z" />
<glyph unicode="&#xab;" horiz-adv-x="1024" d="M131 492l254 315h156l-254 -315l266 -316h-156zM479 492l254 315h156l-254 -315l266 -316h-156z" />
<glyph unicode="&#xac;" horiz-adv-x="1228" d="M123 614v160h983v-565h-160v405h-823z" />
<glyph unicode="&#xad;" horiz-adv-x="569" d="M55 410v163h459v-163h-459z" />
<glyph unicode="&#xae;" horiz-adv-x="1638" d="M66 716.5q0 319.5 222 530.5t531 211t531.5 -211t222.5 -530.5t-222.5 -530.5t-531.5 -211t-531 211t-222 530.5zM238 717q0 -262 166.5 -436.5t414.5 -174.5t415 174.5t167 436.5q0 260 -167 435t-415 175t-414.5 -175t-166.5 -435zM530 293v848h322q156 0 231.5 -57.5 t75.5 -186.5q0 -207 -221 -231l238 -373h-152l-219 366h-135v-366h-140zM670 774h176q92 0 133 31t41 102q0 119 -182 119h-168v-252z" />
<glyph unicode="&#xaf;" horiz-adv-x="569" d="M-33 1171v119h635v-119h-635z" />
<glyph unicode="&#xb0;" horiz-adv-x="819" d="M117 1165q0 123 85 208t207.5 85t207.5 -85t85 -208t-85 -208t-207.5 -85t-207.5 85t-85 208zM215 1165q0 -86 54.5 -144t140.5 -58t140 58t54 144t-54 144.5t-140 58.5t-140.5 -58.5t-54.5 -144.5z" />
<glyph unicode="&#xb1;" horiz-adv-x="1228" d="M123 0v160h983v-160h-983zM123 526v160h412v297h159v-297h412v-160h-412v-297h-159v297h-412z" />
<glyph unicode="&#xb2;" horiz-adv-x="681" d="M14 674q0 23 11.5 40t22.5 26.5t50 37.5l328 238q100 76 100 170q0 72 -47 117t-121 45q-88 0 -138 -48.5t-50 -130.5q0 -63 51 -109t117 -54l-125 -80q-186 68 -186 258q0 123 97 198.5t232 75.5q129 0 221.5 -79t92.5 -191q0 -96 -51.5 -161.5t-161.5 -145.5l-258 -183 v-4h460v-110h-520q-125 0 -125 90z" />
<glyph unicode="&#xb3;" horiz-adv-x="681" d="M31 584v110h299q88 0 137 45t49 115q0 63 -58.5 103t-160.5 40h-147v90l294 242v4h-391v111h412q131 0 131 -94q0 -14 -5 -28.5t-9 -24t-19.5 -23.5t-21.5 -19.5t-29 -24t-29 -22.5l-125 -96v-4q133 0 217 -68.5t84 -181.5q0 -123 -78.5 -198.5t-199.5 -75.5h-350z" />
<glyph unicode="&#xb4;" horiz-adv-x="569" d="M150 1102l184 291h221l-266 -291h-139z" />
<glyph unicode="&#xb5;" horiz-adv-x="1024" d="M92 -442v1425h180v-573q0 -111 71 -184.5t169 -73.5t169 73.5t71 184.5v573h180v-573q0 -190 -119 -310t-301 -120q-141 0 -240 73v-495h-180z" />
<glyph unicode="&#xb6;" horiz-adv-x="1228" d="M57 1049q0 199 126 292t352 93h534v-1708h-172v1577h-229v-1577h-172v950q-197 0 -318 104.5t-121 268.5z" />
<glyph unicode="&#xb7;" horiz-adv-x="569" d="M164 491.5q0 51.5 36 86t85 34.5t85 -34.5t36 -86t-36 -86t-85 -34.5t-85 34.5t-36 86z" />
<glyph unicode="&#xb8;" horiz-adv-x="569" d="M63 -397l37 80q72 -31 133 -31q117 0 117 86q0 33 -24.5 57.5t-73.5 24.5q-35 0 -78 -17l-37 41l131 176h99l-95 -129q68 6 70 7q72 0 118 -41t46 -111q0 -80 -61.5 -134t-178.5 -54q-101 0 -203 45z" />
<glyph unicode="&#xb9;" horiz-adv-x="681" d="M127 1333l35 111h268v-860h-143v749h-160z" />
<glyph unicode="&#xba;" horiz-adv-x="684" d="M2 1151q0 133 101.5 220t238.5 87t238.5 -87t101.5 -220t-101.5 -220t-238.5 -87t-238.5 87t-101.5 220zM137 1151q0 -90 57.5 -145.5t147.5 -55.5t147.5 55.5t57.5 145.5t-57.5 145.5t-147.5 55.5t-147.5 -55.5t-57.5 -145.5z" />
<glyph unicode="&#xbb;" horiz-adv-x="1024" d="M123 176l266 316l-254 315h156l254 -315l-266 -316h-156zM471 176l266 316l-254 315h156l254 -315l-266 -316h-156z" />
<glyph unicode="&#xbc;" horiz-adv-x="1708" d="M127 1333l35 111h268v-860h-143v749h-160zM336 -25l885 1483h141l-885 -1483h-141zM944 270q0 23 39 90l301 500h150l-336 -553h272v371l137 192l6 4v-567h132v-110h-132v-197h-143v197h-338q-88 -1 -88 73z" />
<glyph unicode="&#xbd;" horiz-adv-x="1708" d="M127 1333l35 111h268v-860h-143v749h-160zM311 -25l885 1483h141l-884 -1483h-142zM1038 90q0 23 11.5 40t22.5 26.5t50 38.5l328 237q100 76 100 170q0 72 -47 117t-121 45q-88 0 -138 -48t-50 -130q0 -63 51 -109.5t117 -54.5l-125 -80q-186 68 -186 258 q0 123 97 198.5t232 75.5q129 0 221.5 -78.5t92.5 -191.5q0 -96 -51.5 -161.5t-161.5 -145.5l-258 -182v-4h460v-111h-520q-125 0 -125 90z" />
<glyph unicode="&#xbe;" horiz-adv-x="1708" d="M31 584v110h299q88 0 137 45t49 115q0 63 -58.5 103t-160.5 40h-147v90l294 242v4h-391v111h412q131 0 131 -94q0 -14 -5 -28.5t-9 -24t-19.5 -23.5t-21.5 -19.5t-29 -24t-29 -22.5l-125 -96v-4q133 0 217 -68.5t84 -181.5q0 -123 -78.5 -198.5t-199.5 -75.5h-350z M397 -25l885 1483h141l-884 -1483h-142zM944 270q0 23 39 90l301 500h150l-336 -553h272v371l137 192l6 4v-567h132v-110h-132v-197h-143v197h-338q-88 -1 -88 73z" />
<glyph unicode="&#xbf;" horiz-adv-x="909" d="M12 -45q0 172 100.5 287.5t260.5 144.5v277h180v-451h-53q-147 0 -221 -67.5t-74 -182.5q0 -106 63.5 -178t167.5 -72q113 0 169.5 78t58.5 197h192q0 -197 -121 -326t-313 -129q-166 0 -288 124t-122 298zM336 889q0 51 36 89t91 38q53 0 90 -38t37 -89t-37 -89t-90 -38 q-55 0 -91 38t-36 89z" />
<glyph unicode="&#xc0;" d="M80 0v909q0 250 138 399.5t351 149.5t351.5 -149.5t138.5 -399.5v-909h-193v651h-516v180h516v91q0 166 -80.5 261t-216 95t-216.5 -95.5t-81 -260.5v-922h-192zM299 1806h221l185 -290h-140z" />
<glyph unicode="&#xc1;" d="M80 0v909q0 250 138 399.5t351 149.5t351.5 -149.5t138.5 -399.5v-909h-193v651h-516v180h516v91q0 166 -80.5 261t-216 95t-216.5 -95.5t-81 -260.5v-922h-192zM434 1516l184 290h222l-267 -290h-139z" />
<glyph unicode="&#xc2;" d="M80 0v909q0 250 138 399.5t351 149.5t351.5 -149.5t138.5 -399.5v-909h-193v651h-516v180h516v91q0 166 -80.5 261t-216 95t-216.5 -95.5t-81 -260.5v-922h-192zM270 1516l205 290h189l204 -290h-163l-136 192l-135 -192h-164z" />
<glyph unicode="&#xc3;" d="M80 0v909q0 250 138 399.5t351 149.5t351.5 -149.5t138.5 -399.5v-909h-193v651h-516v180h516v91q0 166 -80.5 261t-216 95t-216.5 -95.5t-81 -260.5v-922h-192zM221 1534q6 96 62.5 159.5t150.5 63.5q51 0 152 -39q104 -39 131 -39q92 0 102 93h99q-8 -84 -64.5 -154 t-136.5 -70q-45 0 -170 39t-144 39q-29 0 -54 -29.5t-30 -62.5h-98z" />
<glyph unicode="&#xc4;" d="M80 0v909q0 250 138 399.5t351 149.5t351.5 -149.5t138.5 -399.5v-909h-193v651h-516v180h516v91q0 166 -80.5 261t-216 95t-216.5 -95.5t-81 -260.5v-922h-192zM291 1642q0 49 31.5 82t83 33t83 -32.5t31.5 -82.5q0 -51 -31.5 -82.5t-83 -31.5t-83 31.5t-31.5 82.5z M618 1642q0 49 32 82t83 33t83 -32.5t32 -82.5q0 -51 -32 -82.5t-83 -31.5t-83 31.5t-32 82.5z" />
<glyph unicode="&#xc5;" d="M80 0v909q0 250 138 399.5t351 149.5t351.5 -149.5t138.5 -399.5v-909h-193v651h-516v180h516v91q0 166 -80.5 261t-216 95t-216.5 -95.5t-81 -260.5v-922h-192zM360 1716q0 88 59.5 148.5t149.5 60.5t149.5 -60.5t59.5 -148.5t-59.5 -148.5t-149.5 -60.5t-149.5 60.5 t-59.5 148.5zM459 1716q0 -49 30.5 -79.5t79.5 -30.5q51 0 81 30.5t30 79.5t-29.5 80t-81.5 31q-49 0 -79.5 -31t-30.5 -80z" />
<glyph unicode="&#xc6;" horiz-adv-x="1820" d="M55 0v909q0 250 138.5 399.5t351.5 149.5q354 0 469 -299q131 156 269 215.5t341 59.5h129v-181h-129q-125 0 -233.5 -43t-177 -107.5t-108.5 -136t-44 -135.5h692v-180h-692q12 -199 162.5 -335t343.5 -136h186v-180h-96q-133 0 -236.5 20.5t-172 61.5t-109.5 76t-82 86 h-4v-244h-193v651h-530v180h530v91q0 168 -84 262t-223 94t-222 -94t-83 -262v-922h-193z" />
<glyph unicode="&#xc7;" horiz-adv-x="1024" d="M72 717q0 178 88 340t263 269.5t398 107.5h152v-181h-131q-246 0 -408 -152.5t-162 -383.5q0 -133 47.5 -239.5t122 -169t159.5 -95.5t167 -33h205v-180h-205q-299 0 -497.5 205t-198.5 512zM504 -397l37 80q72 -31 133 -31q117 0 117 86q0 33 -25 57.5t-74 24.5 q-35 0 -78 -17l-36 41l131 176h98l-94 -129q68 6 69 7q72 0 118 -41t46 -111q0 -80 -61.5 -134t-177.5 -54q-101 0 -203 45z" />
<glyph unicode="&#xc8;" horiz-adv-x="1024" d="M47 717q0 305 210 511t531 206h152v-181h-129q-133 0 -243.5 -45t-176 -112.5t-102.5 -137t-41 -127.5h692v-180h-692q12 -199 162.5 -335t343.5 -136h186v-180h-152q-322 0 -531.5 206t-209.5 511zM420 1806h221l184 -290h-139z" />
<glyph unicode="&#xc9;" horiz-adv-x="1024" d="M47 717q0 305 210 511t531 206h152v-181h-129q-133 0 -243.5 -45t-176 -112.5t-102.5 -137t-41 -127.5h692v-180h-692q12 -199 162.5 -335t343.5 -136h186v-180h-152q-322 0 -531.5 206t-209.5 511zM555 1516l184 290h222l-267 -290h-139z" />
<glyph unicode="&#xca;" horiz-adv-x="1024" d="M47 717q0 305 210 511t531 206h152v-181h-129q-133 0 -243.5 -45t-176 -112.5t-102.5 -137t-41 -127.5h692v-180h-692q12 -199 162.5 -335t343.5 -136h186v-180h-152q-322 0 -531.5 206t-209.5 511zM391 1516l205 290h188l205 -290h-164l-135 192l-135 -192h-164z" />
<glyph unicode="&#xcb;" horiz-adv-x="1024" d="M47 717q0 305 210 511t531 206h152v-181h-129q-133 0 -243.5 -45t-176 -112.5t-102.5 -137t-41 -127.5h692v-180h-692q12 -199 162.5 -335t343.5 -136h186v-180h-152q-322 0 -531.5 206t-209.5 511zM412 1642q0 49 31.5 82t83 33t83 -32.5t31.5 -82.5q0 -51 -31.5 -82.5 t-83 -31.5t-83 31.5t-31.5 82.5zM739 1642q0 49 32 82t83 33t83 -32.5t32 -82.5q0 -51 -32 -82.5t-83 -31.5t-83 31.5t-32 82.5z" />
<glyph unicode="&#xcc;" horiz-adv-x="454" d="M-55 1806h221l184 -290h-139zM131 0v1434h193v-1434h-193z" />
<glyph unicode="&#xcd;" horiz-adv-x="454" d="M80 1516l184 290h221l-266 -290h-139zM131 0v1434h193v-1434h-193z" />
<glyph unicode="&#xce;" horiz-adv-x="454" d="M-84 1516l205 290h188l205 -290h-164l-135 192l-135 -192h-164zM131 0v1434h193v-1434h-193z" />
<glyph unicode="&#xcf;" horiz-adv-x="454" d="M-63 1642q0 49 31.5 82t82.5 33t83 -32.5t32 -82.5q0 -51 -32 -82.5t-83 -31.5t-82.5 31.5t-31.5 82.5zM131 0v1434h193v-1434h-193zM264 1642q0 49 32 82t83 33t83 -32.5t32 -82.5q0 -51 -32 -82.5t-83 -31.5t-83 31.5t-32 82.5z" />
<glyph unicode="&#xd0;" horiz-adv-x="1251" d="M-41 651v180h156v603h362q299 0 501 -212t202 -505t-202 -505t-501 -212h-88v180h105q203 0 344 156t141 381q0 236 -155.5 386t-399.5 150h-117v-422h348v-180h-348v-651h-192v651h-156z" />
<glyph unicode="&#xd1;" horiz-adv-x="1251" d="M102 0v1270q0 90 46.5 133t121.5 43q78 0 118 -44t101 -167l461 -952h4v1151h193v-1309q0 -61 -38 -99t-110 -38q-70 0 -109.5 28.5t-80.5 110.5l-510 1049h-4v-1176h-193zM303 1534q6 96 62.5 159.5t150.5 63.5q51 0 152 -39q104 -39 131 -39q92 0 102 93h98 q-8 -84 -64 -154t-136 -70q-45 0 -170 39t-144 39q-29 0 -54 -29.5t-30 -62.5h-98z" />
<glyph unicode="&#xd2;" horiz-adv-x="1593" d="M47 717q0 307 221 524t528.5 217t528.5 -217t221 -524t-221 -524.5t-528.5 -217.5t-528.5 217.5t-221 524.5zM248 716.5q0 -231.5 156.5 -396t392 -164.5t392.5 164.5t157 396t-157 396.5t-392.5 165t-392 -165t-156.5 -396.5zM526 1806h222l184 -290h-139z" />
<glyph unicode="&#xd3;" horiz-adv-x="1593" d="M47 717q0 307 221 524t528.5 217t528.5 -217t221 -524t-221 -524.5t-528.5 -217.5t-528.5 217.5t-221 524.5zM248 716.5q0 -231.5 156.5 -396t392 -164.5t392.5 164.5t157 396t-157 396.5t-392.5 165t-392 -165t-156.5 -396.5zM662 1516l184 290h221l-266 -290h-139z" />
<glyph unicode="&#xd4;" horiz-adv-x="1593" d="M47 717q0 307 221 524t528.5 217t528.5 -217t221 -524t-221 -524.5t-528.5 -217.5t-528.5 217.5t-221 524.5zM248 716.5q0 -231.5 156.5 -396t392 -164.5t392.5 164.5t157 396t-157 396.5t-392.5 165t-392 -165t-156.5 -396.5zM498 1516l204 290h189l205 -290h-164 l-135 192l-135 -192h-164z" />
<glyph unicode="&#xd5;" horiz-adv-x="1593" d="M47 717q0 307 221 524t528.5 217t528.5 -217t221 -524t-221 -524.5t-528.5 -217.5t-528.5 217.5t-221 524.5zM248 716.5q0 -231.5 156.5 -396t392 -164.5t392.5 164.5t157 396t-157 396.5t-392.5 165t-392 -165t-156.5 -396.5zM449 1534q6 96 62 159.5t151 63.5 q51 0 151 -39q104 -39 131 -39q92 0 103 93h98q-8 -84 -64.5 -154t-136.5 -70q-45 0 -170 39t-143 39q-29 0 -54.5 -29.5t-29.5 -62.5h-98z" />
<glyph unicode="&#xd6;" horiz-adv-x="1593" d="M47 717q0 307 221 524t528.5 217t528.5 -217t221 -524t-221 -524.5t-528.5 -217.5t-528.5 217.5t-221 524.5zM248 716.5q0 -231.5 156.5 -396t392 -164.5t392.5 164.5t157 396t-157 396.5t-392.5 165t-392 -165t-156.5 -396.5zM518 1642q0 49 32 82t83 33t83 -32.5 t32 -82.5q0 -51 -32 -82.5t-83 -31.5t-83 31.5t-32 82.5zM846 1642q0 49 31.5 82t83 33t83 -32.5t31.5 -82.5q0 -51 -31.5 -82.5t-83 -31.5t-83 31.5t-31.5 82.5z" />
<glyph unicode="&#xd7;" horiz-adv-x="1228" d="M123 113l379 379l-379 378l113 113l378 -379l379 379l113 -113l-379 -378l379 -379l-113 -113l-379 379l-378 -379z" />
<glyph unicode="&#xd8;" horiz-adv-x="1593" d="M-18 -25l249 258q-184 205 -184 484q0 307 221 524t529 217q262 0 467 -164l159 164h189l-250 -256q184 -207 184 -485q0 -307 -221 -524.5t-528 -217.5q-262 0 -467 164l-160 -164h-188zM248 717q0 -195 114 -348l773 792q-143 117 -338 117q-236 0 -392.5 -165 t-156.5 -396zM459 272q145 -117 338 -116q236 0 392.5 164.5t156.5 396.5q0 197 -117 348z" />
<glyph unicode="&#xd9;" d="M94 471v963h193v-942q0 -152 72.5 -244t207.5 -92t209 93t74 243v942h192v-963q0 -209 -137 -352.5t-337.5 -143.5t-337 143.5t-136.5 352.5zM299 1806h221l185 -290h-140z" />
<glyph unicode="&#xda;" d="M94 471v963h193v-942q0 -152 72.5 -244t207.5 -92t209 93t74 243v942h192v-963q0 -209 -137 -352.5t-337.5 -143.5t-337 143.5t-136.5 352.5zM434 1516l184 290h222l-267 -290h-139z" />
<glyph unicode="&#xdb;" d="M94 471v963h193v-942q0 -152 72.5 -244t207.5 -92t209 93t74 243v942h192v-963q0 -209 -137 -352.5t-337.5 -143.5t-337 143.5t-136.5 352.5zM270 1516l205 290h189l204 -290h-163l-136 192l-135 -192h-164z" />
<glyph unicode="&#xdc;" d="M94 471v963h193v-942q0 -152 72.5 -244t207.5 -92t209 93t74 243v942h192v-963q0 -209 -137 -352.5t-337.5 -143.5t-337 143.5t-136.5 352.5zM291 1642q0 49 31.5 82t83 33t83 -32.5t31.5 -82.5q0 -51 -31.5 -82.5t-83 -31.5t-83 31.5t-31.5 82.5zM618 1642q0 49 32 82 t83 33t83 -32.5t32 -82.5q0 -51 -32 -82.5t-83 -31.5t-83 31.5t-32 82.5z" />
<glyph unicode="&#xdd;" horiz-adv-x="1024" d="M47 999v435h193v-437q0 -121 73.5 -188.5t198.5 -67.5q123 0 196.5 68t73.5 188v437h193v-435q0 -154 -93.5 -274.5t-277.5 -163.5v-561h-192v561q-180 43 -272.5 164.5t-92.5 273.5zM424 1516l184 290h221l-266 -290h-139z" />
<glyph unicode="&#xde;" horiz-adv-x="1024" d="M82 0v1434h192v-326q94 92 267 92q211 0 342 -135t131 -326q0 -193 -120 -324.5t-304 -131.5h-240v180h205q117 0 191.5 74.5t74.5 201.5t-78.5 204t-199.5 77q-117 0 -193 -80t-76 -215v-725h-192z" />
<glyph unicode="&#xdf;" horiz-adv-x="1251" d="M14 770l45 172h166v113q0 176 102.5 277.5t270.5 101.5q164 0 259 -85t95 -208q0 -106 -58 -169t-171 -120q205 -72 328 -183.5t123 -295.5q0 -147 -105.5 -260t-290.5 -113h-303v172h277q117 0 179 55.5t62 147.5q0 90 -48 156.5t-117.5 102.5t-139.5 64.5t-118 63.5 t-48 82q0 51 39 86t86 50t86 51t39 91q0 66 -42 103t-120 37q-102 0 -153 -52.5t-51 -171.5v-1038h-181v770h-211z" />
<glyph unicode="&#xe0;" d="M53 502q0 215 138.5 358.5t369.5 143.5q227 0 361.5 -127t134.5 -340v-537h-180v553q0 131 -94.5 204.5t-225.5 73.5q-145 0 -234.5 -100t-89.5 -244q0 -139 91.5 -237t230.5 -98q141 0 248 135v-213q-127 -94 -266 -94q-209 0 -346.5 151.5t-137.5 370.5zM299 1393h221 l185 -291h-140z" />
<glyph unicode="&#xe1;" d="M53 502q0 215 138.5 358.5t369.5 143.5q227 0 361.5 -127t134.5 -340v-537h-180v553q0 131 -94.5 204.5t-225.5 73.5q-145 0 -234.5 -100t-89.5 -244q0 -139 91.5 -237t230.5 -98q141 0 248 135v-213q-127 -94 -266 -94q-209 0 -346.5 151.5t-137.5 370.5zM434 1102 l184 291h222l-267 -291h-139z" />
<glyph unicode="&#xe2;" d="M53 502q0 215 138.5 358.5t369.5 143.5q227 0 361.5 -127t134.5 -340v-537h-180v553q0 131 -94.5 204.5t-225.5 73.5q-145 0 -234.5 -100t-89.5 -244q0 -139 91.5 -237t230.5 -98q141 0 248 135v-213q-127 -94 -266 -94q-209 0 -346.5 151.5t-137.5 370.5zM270 1102 l205 291h189l204 -291h-163l-136 192l-135 -192h-164z" />
<glyph unicode="&#xe3;" d="M53 502q0 215 138.5 358.5t369.5 143.5q227 0 361.5 -127t134.5 -340v-537h-180v553q0 131 -94.5 204.5t-225.5 73.5q-145 0 -234.5 -100t-89.5 -244q0 -139 91.5 -237t230.5 -98q141 0 248 135v-213q-127 -94 -266 -94q-209 0 -346.5 151.5t-137.5 370.5zM221 1120 q6 96 62.5 159.5t150.5 63.5q51 0 152 -38q104 -39 131 -39q92 0 102 92h99q-8 -84 -64.5 -153.5t-136.5 -69.5q-45 0 -170 38.5t-144 38.5q-29 0 -54 -29.5t-30 -62.5h-98z" />
<glyph unicode="&#xe4;" d="M53 502q0 215 138.5 358.5t369.5 143.5q227 0 361.5 -127t134.5 -340v-537h-180v553q0 131 -94.5 204.5t-225.5 73.5q-145 0 -234.5 -100t-89.5 -244q0 -139 91.5 -237t230.5 -98q141 0 248 135v-213q-127 -94 -266 -94q-209 0 -346.5 151.5t-137.5 370.5zM291 1229 q0 49 31.5 81.5t83 32.5t83 -32.5t31.5 -81.5q0 -51 -31.5 -83t-83 -32t-83 32t-31.5 83zM618 1229q0 49 32 81.5t83 32.5t83 -32.5t32 -81.5q0 -51 -32 -83t-83 -32t-83 32t-32 83z" />
<glyph unicode="&#xe5;" d="M53 502q0 215 138.5 358.5t369.5 143.5q227 0 361.5 -127t134.5 -340v-537h-180v553q0 131 -94.5 204.5t-225.5 73.5q-145 0 -234.5 -100t-89.5 -244q0 -139 91.5 -237t230.5 -98q141 0 248 135v-213q-127 -94 -266 -94q-209 0 -346.5 151.5t-137.5 370.5zM360 1302.5 q0 88.5 59.5 148.5t149.5 60t149.5 -60t59.5 -148.5t-59.5 -148.5t-149.5 -60t-149.5 60t-59.5 148.5zM459 1302.5q0 -49.5 30.5 -80t79.5 -30.5q51 0 81 30.5t30 80t-29.5 80t-81.5 30.5q-49 0 -79.5 -30.5t-30.5 -80z" />
<glyph unicode="&#xe6;" horiz-adv-x="1820" d="M35 283q0 104 71.5 187t187.5 132t212 74.5t194 40.5q-68 115 -251 114q-152 0 -312 -88l-82 144q201 117 404 117q289 0 411 -220q41 88 147.5 154t239.5 66q109 0 195 -31t144.5 -86.5t94 -108.5t68.5 -125l-667 -278l-64 151l467 195q-86 111 -238 110 q-129 0 -217 -100t-88 -229q0 -147 95.5 -248.5t242.5 -101.5q123 0 206 78.5t118 203.5l164 -72q-59 -184 -186.5 -283t-305.5 -99q-143 0 -257 65.5t-175 175.5q-63 -117 -183 -179t-257 -62q-160 0 -269.5 79t-109.5 224zM223 270q0 -119 189 -118q154 0 253 91t99 234 v88q-74 -12 -144.5 -28.5t-171 -50t-163 -90t-62.5 -126.5z" />
<glyph unicode="&#xe7;" horiz-adv-x="796" d="M88 491.5q0 149.5 77 265t187.5 171t229.5 55.5h172v-172h-140q-137 0 -237.5 -85t-100.5 -234.5t100.5 -234.5t237.5 -85h140v-172h-172q-119 0 -229.5 55.5t-187.5 171t-77 265zM297 -397l37 80q72 -31 133 -31q117 0 117 86q0 33 -24.5 57.5t-74.5 24.5q-35 0 -77 -17 l-37 41l131 176h98l-94 -129q68 6 69 7q72 0 118 -41t46 -111q0 -80 -61.5 -134t-177.5 -54q-101 0 -203 45z" />
<glyph unicode="&#xe8;" d="M61 491.5q0 223.5 150.5 368t359.5 144.5q324 0 476 -312l-664 -368l-74 143l486 270q-51 51 -98.5 72.5t-125.5 21.5q-141 0 -231 -95t-90 -244.5t90 -244.5t231 -95q150 0 224.5 78.5t105.5 228.5l182 -23q-16 -197 -158.5 -326.5t-353.5 -129.5q-209 0 -359.5 144 t-150.5 367.5zM299 1393h221l185 -291h-140z" />
<glyph unicode="&#xe9;" d="M61 491.5q0 223.5 150.5 368t359.5 144.5q324 0 476 -312l-664 -368l-74 143l486 270q-51 51 -98.5 72.5t-125.5 21.5q-141 0 -231 -95t-90 -244.5t90 -244.5t231 -95q150 0 224.5 78.5t105.5 228.5l182 -23q-16 -197 -158.5 -326.5t-353.5 -129.5q-209 0 -359.5 144 t-150.5 367.5zM434 1102l184 291h222l-267 -291h-139z" />
<glyph unicode="&#xea;" d="M61 491.5q0 223.5 150.5 368t359.5 144.5q324 0 476 -312l-664 -368l-74 143l486 270q-51 51 -98.5 72.5t-125.5 21.5q-141 0 -231 -95t-90 -244.5t90 -244.5t231 -95q150 0 224.5 78.5t105.5 228.5l182 -23q-16 -197 -158.5 -326.5t-353.5 -129.5q-209 0 -359.5 144 t-150.5 367.5zM270 1102l205 291h189l204 -291h-163l-136 192l-135 -192h-164z" />
<glyph unicode="&#xeb;" d="M61 491.5q0 223.5 150.5 368t359.5 144.5q324 0 476 -312l-664 -368l-74 143l486 270q-51 51 -98.5 72.5t-125.5 21.5q-141 0 -231 -95t-90 -244.5t90 -244.5t231 -95q150 0 224.5 78.5t105.5 228.5l182 -23q-16 -197 -158.5 -326.5t-353.5 -129.5q-209 0 -359.5 144 t-150.5 367.5zM291 1229q0 49 31.5 81.5t83 32.5t83 -32.5t31.5 -81.5q0 -51 -31.5 -83t-83 -32t-83 32t-31.5 83zM618 1229q0 49 32 81.5t83 32.5t83 -32.5t32 -81.5q0 -51 -32 -83t-83 -32t-83 32t-32 83z" />
<glyph unicode="&#xec;" horiz-adv-x="569" d="M14 1393h222l184 -291h-139zM195 0v983h180v-983h-180z" />
<glyph unicode="&#xed;" horiz-adv-x="569" d="M150 1102l184 291h221l-266 -291h-139zM195 0v983h180v-983h-180z" />
<glyph unicode="&#xee;" horiz-adv-x="569" d="M-14 1102l204 291h189l205 -291h-164l-135 192l-135 -192h-164zM195 0v983h180v-983h-180z" />
<glyph unicode="&#xef;" horiz-adv-x="569" d="M6 1229q0 49 32 81.5t83 32.5t83 -32.5t32 -81.5q0 -51 -32 -83t-83 -32t-83 32t-32 83zM195 0v983h180v-983h-180zM334 1229q0 49 31.5 81.5t83 32.5t83 -32.5t31.5 -81.5q0 -51 -31.5 -83t-83 -32t-83 32t-31.5 83z" />
<glyph unicode="&#xf0;" d="M59 491.5q0 223.5 150.5 368t359.5 144.5q33 0 88 -7q84 -119 115 -235h-4q-76 70 -199 69q-141 0 -231 -95t-90 -244.5t90 -244.5t231 -95q143 0 232.5 104t89.5 293q0 326 -285 600l-217 -113l-98 119l186 96q-88 61 -170 92l111 115q113 -45 215 -123l211 113 l100 -119l-186 -100q141 -135 231 -313.5t90 -366.5q0 -260 -148.5 -414.5t-361.5 -154.5q-209 0 -359.5 144t-150.5 367.5z" />
<glyph unicode="&#xf1;" horiz-adv-x="1024" d="M92 0v573q0 190 119 310.5t301 120.5t301 -120t119 -311v-573h-180v573q0 111 -71 184.5t-169 73.5t-169 -73.5t-71 -184.5v-573h-180zM164 1120q6 96 62.5 159.5t150.5 63.5q51 0 151 -38q104 -39 131 -39q92 0 103 92h98q-8 -84 -64.5 -153.5t-136.5 -69.5 q-45 0 -169.5 38.5t-143.5 38.5q-29 0 -54.5 -29.5t-29.5 -62.5h-98z" />
<glyph unicode="&#xf2;" d="M59 491.5q0 223.5 150.5 368t359.5 144.5t359.5 -144.5t150.5 -368t-150.5 -367.5t-359.5 -144t-359.5 144t-150.5 367.5zM248 491.5q0 -149.5 90 -244.5t231.5 -95t231.5 95t90 244.5t-90 244.5t-231.5 95t-231.5 -95t-90 -244.5zM299 1393h221l185 -291h-140z" />
<glyph unicode="&#xf3;" d="M59 491.5q0 223.5 150.5 368t359.5 144.5t359.5 -144.5t150.5 -368t-150.5 -367.5t-359.5 -144t-359.5 144t-150.5 367.5zM248 491.5q0 -149.5 90 -244.5t231.5 -95t231.5 95t90 244.5t-90 244.5t-231.5 95t-231.5 -95t-90 -244.5zM434 1102l184 291h222l-267 -291h-139z " />
<glyph unicode="&#xf4;" d="M59 491.5q0 223.5 150.5 368t359.5 144.5t359.5 -144.5t150.5 -368t-150.5 -367.5t-359.5 -144t-359.5 144t-150.5 367.5zM248 491.5q0 -149.5 90 -244.5t231.5 -95t231.5 95t90 244.5t-90 244.5t-231.5 95t-231.5 -95t-90 -244.5zM270 1102l205 291h189l204 -291h-163 l-136 192l-135 -192h-164z" />
<glyph unicode="&#xf5;" d="M59 491.5q0 223.5 150.5 368t359.5 144.5t359.5 -144.5t150.5 -368t-150.5 -367.5t-359.5 -144t-359.5 144t-150.5 367.5zM221 1120q6 96 62.5 159.5t150.5 63.5q51 0 152 -38q104 -39 131 -39q92 0 102 92h99q-8 -84 -64.5 -153.5t-136.5 -69.5q-45 0 -170 38.5 t-144 38.5q-29 0 -54 -29.5t-30 -62.5h-98zM248 491.5q0 -149.5 90 -244.5t231.5 -95t231.5 95t90 244.5t-90 244.5t-231.5 95t-231.5 -95t-90 -244.5z" />
<glyph unicode="&#xf6;" d="M59 491.5q0 223.5 150.5 368t359.5 144.5t359.5 -144.5t150.5 -368t-150.5 -367.5t-359.5 -144t-359.5 144t-150.5 367.5zM248 491.5q0 -149.5 90 -244.5t231.5 -95t231.5 95t90 244.5t-90 244.5t-231.5 95t-231.5 -95t-90 -244.5zM291 1229q0 49 31.5 81.5t83 32.5 t83 -32.5t31.5 -81.5q0 -51 -31.5 -83t-83 -32t-83 32t-31.5 83zM618 1229q0 49 32 81.5t83 32.5t83 -32.5t32 -81.5q0 -51 -32 -83t-83 -32t-83 32t-32 83z" />
<glyph unicode="&#xf7;" horiz-adv-x="1228" d="M123 412v159h983v-159h-983zM475 90q0 57 39 98t100.5 41t100.5 -41t39 -98t-39 -98t-100.5 -41t-100.5 41t-39 98zM475 893q0 57 39 98t100.5 41t100.5 -41t39 -98t-39 -98t-100.5 -41t-100.5 41t-39 98z" />
<glyph unicode="&#xf8;" d="M-14 -20l184 190q-111 139 -111 322q0 223 150.5 367.5t359.5 144.5q174 0 310 -103l98 103h176l-184 -191q111 -133 110 -321q0 -223 -150.5 -367.5t-359.5 -144.5q-174 0 -309 102l-98 -102h-176zM248 492q0 -106 49 -191l459 473q-76 57 -187 57q-141 0 -231 -94.5 t-90 -244.5zM383 209q80 -57 186 -57q141 0 231.5 95t90.5 245q0 109 -49 190z" />
<glyph unicode="&#xf9;" horiz-adv-x="1024" d="M92 410v573h180v-573q0 -111 71 -184.5t169 -73.5t169 73.5t71 184.5v573h180v-573q0 -190 -119 -310t-301 -120t-301 120t-119 310zM242 1393h221l184 -291h-139z" />
<glyph unicode="&#xfa;" horiz-adv-x="1024" d="M92 410v573h180v-573q0 -111 71 -184.5t169 -73.5t169 73.5t71 184.5v573h180v-573q0 -190 -119 -310t-301 -120t-301 120t-119 310zM377 1102l184 291h221l-266 -291h-139z" />
<glyph unicode="&#xfb;" horiz-adv-x="1024" d="M92 410v573h180v-573q0 -111 71 -184.5t169 -73.5t169 73.5t71 184.5v573h180v-573q0 -190 -119 -310t-301 -120t-301 120t-119 310zM213 1102l205 291h188l205 -291h-164l-135 192l-135 -192h-164z" />
<glyph unicode="&#xfc;" horiz-adv-x="1024" d="M92 410v573h180v-573q0 -111 71 -184.5t169 -73.5t169 73.5t71 184.5v573h180v-573q0 -190 -119 -310t-301 -120t-301 120t-119 310zM233 1229q0 49 32 81.5t83 32.5t83 -32.5t32 -81.5q0 -51 -32 -83t-83 -32t-83 32t-32 83zM561 1229q0 49 32 81.5t83 32.5t83 -32.5 t32 -81.5q0 -51 -32 -83t-83 -32t-83 32t-32 83z" />
<glyph unicode="&#xfd;" horiz-adv-x="1024" d="M102 391v592h181v-590q0 -106 59 -173.5t170 -67.5t170 67.5t59 173.5v590h181v-592q0 -328 -320 -411v-422h-180v422q-320 83 -320 411zM377 1102l184 291h221l-266 -291h-139z" />
<glyph unicode="&#xfe;" d="M82 -442v1876h180v-545q135 115 316 115q231 0 369 -155t138 -382q0 -203 -141 -345t-332 -142q-158 0 -278 69v189q125 -86 248 -86q145 0 234 93t89 244.5t-92 246.5t-235 95q-137 0 -226.5 -103t-89.5 -298v-872h-180z" />
<glyph unicode="&#xff;" horiz-adv-x="1024" d="M102 391v592h181v-590q0 -106 59 -173.5t170 -67.5t170 67.5t59 173.5v590h181v-592q0 -328 -320 -411v-422h-180v422q-320 83 -320 411zM233 1229q0 49 32 81.5t83 32.5t83 -32.5t32 -81.5q0 -51 -32 -83t-83 -32t-83 32t-32 83zM561 1229q0 49 32 81.5t83 32.5 t83 -32.5t32 -81.5q0 -51 -32 -83t-83 -32t-83 32t-32 83z" />
<glyph unicode="&#x152;" horiz-adv-x="2048" d="M0 717q0 295 207 518t483 223q203 0 368 -97t245 -282q184 354 628 355h92v-181h-53q-240 0 -397.5 -140t-163.5 -282h614v-180h-614q10 -199 160.5 -335t343.5 -136h110v-180h-92q-444 0 -628 354q-80 -184 -245 -281.5t-368 -97.5q-276 0 -483 223.5t-207 518.5z M193 717q0 -221 146 -391t361 -170t361.5 170t146.5 391t-146.5 391t-361.5 170t-361 -170t-146 -391z" />
<glyph unicode="&#x153;" horiz-adv-x="1933" d="M29 491.5q0 223.5 150.5 368t359.5 144.5q133 0 245.5 -60.5t180.5 -161.5q94 117 192 169.5t252 52.5q188 0 302 -95.5t183 -269.5l-696 -299l-65 152l507 221q-41 55 -109.5 86.5t-141.5 31.5q-145 0 -236.5 -95t-91.5 -244q0 -131 102.5 -235.5t225.5 -104.5 q266 0 337 297l179 -68q-145 -401 -516 -401q-129 0 -238 60t-178 169q-174 -229 -434 -229q-209 0 -359.5 144t-150.5 367.5zM217 491.5q0 -149.5 91 -244.5t236.5 -95t236.5 95t91 244.5t-91 244.5t-236.5 95t-236.5 -95t-91 -244.5z" />
<glyph unicode="&#x178;" horiz-adv-x="1024" d="M47 999v435h193v-437q0 -121 73.5 -188.5t198.5 -67.5q123 0 196.5 68t73.5 188v437h193v-435q0 -154 -93.5 -274.5t-277.5 -163.5v-561h-192v561q-180 43 -272.5 164.5t-92.5 273.5zM281 1642q0 49 31.5 82t82.5 33t83 -32.5t32 -82.5q0 -51 -32 -82.5t-83 -31.5 t-82.5 31.5t-31.5 82.5zM608 1642q0 49 32 82t83 33t83 -32.5t32 -82.5q0 -51 -32 -82.5t-83 -31.5t-83 31.5t-32 82.5z" />
<glyph unicode="&#x2c6;" horiz-adv-x="569" d="M-14 1102l204 291h189l205 -291h-164l-135 192l-135 -192h-164z" />
<glyph unicode="&#x2dc;" horiz-adv-x="569" d="M-63 1120q6 96 62 159.5t151 63.5q51 0 151 -38q104 -39 131 -39q92 0 103 92h98q-8 -84 -64.5 -153.5t-136.5 -69.5q-45 0 -170 38.5t-143 38.5q-29 0 -54.5 -29.5t-29.5 -62.5h-98z" />
<glyph unicode="&#x2000;" horiz-adv-x="962" />
<glyph unicode="&#x2001;" horiz-adv-x="1925" />
<glyph unicode="&#x2002;" horiz-adv-x="962" />
<glyph unicode="&#x2003;" horiz-adv-x="1925" />
<glyph unicode="&#x2004;" horiz-adv-x="641" />
<glyph unicode="&#x2005;" horiz-adv-x="481" />
<glyph unicode="&#x2006;" horiz-adv-x="319" />
<glyph unicode="&#x2007;" horiz-adv-x="319" />
<glyph unicode="&#x2008;" horiz-adv-x="239" />
<glyph unicode="&#x2009;" horiz-adv-x="385" />
<glyph unicode="&#x200a;" horiz-adv-x="106" />
<glyph unicode="&#x2010;" horiz-adv-x="569" d="M55 410v163h459v-163h-459z" />
<glyph unicode="&#x2011;" horiz-adv-x="569" d="M55 410v163h459v-163h-459z" />
<glyph unicode="&#x2012;" horiz-adv-x="569" d="M55 410v163h459v-163h-459z" />
<glyph unicode="&#x2013;" horiz-adv-x="1024" d="M0 426v131h1024v-131h-1024z" />
<glyph unicode="&#x2014;" horiz-adv-x="2048" d="M0 426v131h2048v-131h-2048z" />
<glyph unicode="&#x2018;" horiz-adv-x="454" d="M94 1434h172l74 -414h-152z" />
<glyph unicode="&#x2019;" horiz-adv-x="454" d="M115 1020l73 414h172l-94 -414h-151z" />
<glyph unicode="&#x201a;" horiz-adv-x="454" d="M74 -209l73 414h172l-94 -414h-151z" />
<glyph unicode="&#x201c;" horiz-adv-x="796" d="M86 1434h172l74 -414h-152zM465 1434h172l74 -414h-152z" />
<glyph unicode="&#x201d;" horiz-adv-x="796" d="M86 1020l74 414h172l-94 -414h-152zM465 1020l74 414h172l-95 -414h-151z" />
<glyph unicode="&#x201e;" horiz-adv-x="796" d="M86 -209l74 414h172l-94 -414h-152zM465 -209l74 414h172l-95 -414h-151z" />
<glyph unicode="&#x2022;" horiz-adv-x="1024" d="M154 717q-2 150 102 254t256 104t256 -104.5t102 -253.5q2 -150 -102 -254.5t-256 -104.5t-256 104.5t-102 254.5z" />
<glyph unicode="&#x2026;" horiz-adv-x="2048" d="M221 108.5q0 51.5 36 86t85 34.5t85 -34.5t36 -86t-36 -86t-85 -34.5t-85 34.5t-36 86zM903 108.5q0 51.5 36 86t85 34.5t85 -34.5t36 -86t-36 -86t-85 -34.5t-85 34.5t-36 86zM1585 108.5q0 51.5 36 86t85 34.5t85 -34.5t36 -86t-36 -86t-85 -34.5t-85 34.5t-36 86z" />
<glyph unicode="&#x202f;" horiz-adv-x="385" />
<glyph unicode="&#x2039;" horiz-adv-x="681" d="M141 492l254 315h156l-254 -315l266 -316h-155z" />
<glyph unicode="&#x203a;" horiz-adv-x="681" d="M119 176l266 316l-254 315h156l254 -315l-267 -316h-155z" />
<glyph unicode="&#x205f;" horiz-adv-x="481" />
<glyph unicode="&#x2122;" horiz-adv-x="2027" d="M111 1303v131h680v-131h-254v-713h-172v713h-254zM946 590v844h256l232 -598l229 598h254v-844h-172v663h-4l-252 -663h-115l-252 663h-4v-663h-172z" />
<glyph unicode="&#xe000;" horiz-adv-x="985" d="M0 985h985v-985h-985v985z" />
<glyph unicode="&#xfb01;" horiz-adv-x="1024" d="M106 0v1075q0 166 96.5 262.5t252.5 96.5h151v-172h-127q-193 0 -192 -183v-96h295v-172h-295v-811h-181zM698 1202q0 45 30 77t79 32t78.5 -32t29.5 -77t-29.5 -76.5t-78.5 -31.5t-79 31.5t-30 76.5zM717 0v983h180v-983h-180z" />
<glyph unicode="&#xfb02;" horiz-adv-x="1024" d="M106 0v1075q0 166 96.5 262.5t252.5 96.5h151v-172h-127q-193 0 -192 -183v-96h295v-172h-295v-811h-181zM717 0v1434h180v-1434h-180z" />
<glyph unicode="&#xfb03;" horiz-adv-x="1708" d="M1315 1202q0 45 30 77t79 32t78.5 -32t29.5 -77t-29.5 -76.5t-78.5 -31.5t-79 31.5t-30 76.5zM1334 0v983h180v-983h-180zM675 0v1075q0 166 96.5 262.5t252.5 96.5h151v-172h-127q-193 0 -192 -183v-96h295v-172h-295v-811h-181zM106 0v1075q0 166 96.5 262.5 t252.5 96.5h151v-172h-127q-193 0 -192 -183v-96h295v-172h-295v-811h-181z" />
<glyph unicode="&#xfb04;" horiz-adv-x="1593" d="M1276 0v1434h180v-1434h-180zM675 0v1075q0 166 96.5 262.5t252.5 96.5h151v-172h-127q-193 0 -192 -183v-96h295v-172h-295v-811h-181zM106 0v1075q0 166 96.5 262.5t252.5 96.5h151v-172h-127q-193 0 -192 -183v-96h295v-172h-295v-811h-181z" />
</font>
</defs>
</svg>
